Benne-Regular-e.ufo
<glyph name="d" format="1">
  <advance width="506"/>
  <unicode hex="0064"/>
  <outline>
    <contour>
      <point x="359" y="-19"/>
      <point x="374" y="-13"/>
      <point x="400" y="-2" type="curve" smooth="yes"/>
      <point x="425" y="9"/>
      <point x="455" y="16"/>
      <point x="490" y="21" type="curve"/>
      <point x="499" y="21"/>
      <point x="504" y="26"/>
      <point x="504" y="36" type="curve" smooth="yes"/>
      <point x="504" y="46"/>
      <point x="499" y="50"/>
      <point x="489" y="48" type="curve" smooth="yes"/>
      <point x="479" y="46"/>
      <point x="464" y="45"/>
      <point x="443" y="45" type="curve" smooth="yes"/>
      <point x="429" y="45"/>
      <point x="422" y="67"/>
      <point x="422" y="110" type="curve" smooth="yes"/>
      <point x="422" y="562" type="line" smooth="yes"/>
      <point x="422" y="603"/>
      <point x="424" y="642"/>
      <point x="428" y="680" type="curve" smooth="yes"/>
      <point x="429" y="690"/>
      <point x="429" y="697"/>
      <point x="429" y="700" type="curve"/>
      <point x="428" y="703"/>
      <point x="426" y="704"/>
      <point x="423" y="704" type="curve" smooth="yes"/>
      <point x="419" y="704"/>
      <point x="404" y="699"/>
      <point x="378" y="689" type="curve" smooth="yes"/>
      <point x="352" y="678"/>
      <point x="326" y="670"/>
      <point x="300" y="664" type="curve" smooth="yes"/>
      <point x="295" y="663"/>
      <point x="293" y="659"/>
      <point x="293" y="652" type="curve" smooth="yes"/>
      <point x="293" y="645"/>
      <point x="296" y="640"/>
      <point x="301" y="639" type="curve" smooth="yes"/>
      <point x="338" y="631"/>
      <point x="352" y="617"/>
      <point x="352" y="566" type="curve" smooth="yes"/>
      <point x="352" y="408" type="line" smooth="yes"/>
      <point x="352" y="392"/>
      <point x="351" y="384"/>
      <point x="349" y="384" type="curve" smooth="yes"/>
      <point x="346" y="384"/>
      <point x="343" y="387"/>
      <point x="339" y="392" type="curve" smooth="yes"/>
      <point x="331" y="402"/>
      <point x="287" y="414"/>
      <point x="260" y="414" type="curve" smooth="yes"/>
      <point x="125" y="414"/>
      <point x="35" y="310"/>
      <point x="35" y="196" type="curve" smooth="yes"/>
      <point x="35" y="82"/>
      <point x="111" y="-14"/>
      <point x="220" y="-14" type="curve" smooth="yes"/>
      <point x="280" y="-14"/>
      <point x="327" y="20"/>
      <point x="351" y="57" type="curve"/>
      <point x="351" y="51" type="line"/>
      <point x="346" y="-15" type="line"/>
      <point x="346" y="-18"/>
      <point x="349" y="-19"/>
      <point x="354" y="-19" type="curve" smooth="yes"/>
    </contour>
    <contour>
      <point x="228" y="31"/>
      <point x="198" y="42"/>
      <point x="167" y="65" type="curve" smooth="yes"/>
      <point x="134" y="89"/>
      <point x="109" y="143"/>
      <point x="109" y="210" type="curve" smooth="yes"/>
      <point x="109" y="243"/>
      <point x="113" y="272"/>
      <point x="122" y="295" type="curve" smooth="yes"/>
      <point x="139" y="342"/>
      <point x="181" y="379"/>
      <point x="229" y="379" type="curve" smooth="yes"/>
      <point x="302" y="379"/>
      <point x="352" y="316"/>
      <point x="352" y="255" type="curve" smooth="yes"/>
      <point x="352" y="120" type="line" smooth="yes"/>
      <point x="352" y="71"/>
      <point x="312" y="31"/>
      <point x="256" y="31" type="curve" smooth="yes"/>
    </contour>
  </outline>
</glyph>
<glyph name="lcaron" format="1">
  <advance width="254"/>
  <unicode hex="013E"/>
  <outline>
    <contour>
      <point x="141" y="0" type="line"/>
      <point x="141" y="707" type="line"/>
      <point x="80" y="707" type="line"/>
      <point x="80" y="0" type="line"/>
    </contour>
    <contour>
      <point x="265" y="520" type="line"/>
      <point x="375" y="707" type="line"/>
      <point x="299" y="707" type="line"/>
      <point x="211" y="520" type="line"/>
    </contour>
  </outline>
</glyph>
<glyph name="uni02DE" format="1">
  <advance width="280"/>
  <unicode hex="02DE"/>
  <outline>
    <contour>
      <point x="196" y="240"/>
      <point x="245" y="281"/>
      <point x="245" y="294" type="curve" smooth="yes"/>
      <point x="245" y="306"/>
      <point x="241" y="312"/>
      <point x="232" y="312" type="curve" smooth="yes"/>
      <point x="231" y="312"/>
      <point x="224" y="308"/>
      <point x="212" y="301" type="curve" smooth="yes"/>
      <point x="199" y="293"/>
      <point x="189" y="289"/>
      <point x="182" y="289" type="curve" smooth="yes"/>
      <point x="162" y="289"/>
      <point x="152" y="300"/>
      <point x="152" y="322" type="curve" smooth="yes"/>
      <point x="152" y="344"/>
      <point x="159" y="365"/>
      <point x="174" y="385" type="curve" smooth="yes"/>
      <point x="179" y="392"/>
      <point x="182" y="395"/>
      <point x="182" y="396" type="curve" smooth="yes"/>
      <point x="182" y="405"/>
      <point x="175" y="410"/>
      <point x="162" y="410" type="curve" smooth="yes"/>
      <point x="156" y="410"/>
      <point x="140" y="400"/>
      <point x="113" y="381" type="curve" smooth="yes"/>
      <point x="21" y="314" type="line"/>
      <point x="39" y="282" type="line"/>
      <point x="106" y="330" type="line"/>
      <point x="112" y="335"/>
      <point x="117" y="338"/>
      <point x="122" y="340" type="curve"/>
      <point x="116" y="322"/>
      <point x="113" y="306"/>
      <point x="113" y="292" type="curve" smooth="yes"/>
      <point x="113" y="272"/>
      <point x="136" y="240"/>
      <point x="157" y="240" type="curve" smooth="yes"/>
    </contour>
  </outline>
</glyph>
<glyph name="knA" format="1">
  <advance width="782"/>
  <unicode hex="0C85"/>
  <outline>
    <contour>
      <point x="602" y="-14"/>
      <point x="722" y="104"/>
      <point x="722" y="283" type="curve" smooth="yes"/>
      <point x="722" y="414"/>
      <point x="650" y="520"/>
      <point x="556" y="520" type="curve" smooth="yes"/>
      <point x="482" y="520"/>
      <point x="455" y="471"/>
      <point x="455" y="416" type="curve" smooth="yes"/>
      <point x="455" y="392"/>
      <point x="470" y="364"/>
      <point x="479" y="354" type="curve"/>
      <point x="384" y="354" type="line"/>
      <point x="384" y="283" type="line"/>
      <point x="614" y="283" type="line"/>
      <point x="614" y="354" type="line"/>
      <point x="561" y="354" type="line" smooth="yes"/>
      <point x="516" y="354"/>
      <point x="495" y="379"/>
      <point x="495" y="405" type="curve" smooth="yes"/>
      <point x="495" y="437"/>
      <point x="519" y="454"/>
      <point x="561" y="454" type="curve" smooth="yes"/>
      <point x="639" y="454"/>
      <point x="683" y="389"/>
      <point x="683" y="294" type="curve" smooth="yes"/>
      <point x="683" y="171"/>
      <point x="581" y="71"/>
      <point x="391" y="71" type="curve" smooth="yes"/>
      <point x="200" y="71"/>
      <point x="100" y="171"/>
      <point x="100" y="294" type="curve" smooth="yes"/>
      <point x="100" y="387"/>
      <point x="142" y="454"/>
      <point x="235" y="454" type="curve" smooth="yes"/>
      <point x="273" y="454"/>
      <point x="307" y="440"/>
      <point x="307" y="401" type="curve" smooth="yes"/>
      <point x="307" y="365"/>
      <point x="279" y="344"/>
      <point x="232" y="344" type="curve" smooth="yes"/>
      <point x="190" y="344"/>
      <point x="159" y="365"/>
      <point x="159" y="408" type="curve" smooth="yes"/>
      <point x="159" y="419"/>
      <point x="163" y="440"/>
      <point x="166" y="450" type="curve"/>
      <point x="177" y="475"/>
      <point x="172" y="501"/>
      <point x="157" y="497" type="curve"/>
      <point x="135" y="429" type="line"/>
      <point x="132" y="407"/>
      <point x="131" y="394"/>
      <point x="131" y="381" type="curve" smooth="yes"/>
      <point x="131" y="308"/>
      <point x="174" y="273"/>
      <point x="232" y="273" type="curve" smooth="yes"/>
      <point x="295" y="273"/>
      <point x="337" y="325"/>
      <point x="337" y="391" type="curve" smooth="yes"/>
      <point x="337" y="457"/>
      <point x="301" y="519"/>
      <point x="230" y="519" type="curve" smooth="yes"/>
      <point x="128" y="519"/>
      <point x="60" y="414"/>
      <point x="60" y="283" type="curve" smooth="yes"/>
      <point x="60" y="104"/>
      <point x="180" y="-14"/>
      <point x="391" y="-14" type="curve" smooth="yes"/>
    </contour>
  </outline>
</glyph>
<glyph name="knI" format="1">
  <advance width="691"/>
  <unicode hex="0C87"/>
  <outline>
    <contour>
      <point x="628" y="-97"/>
      <point x="641" y="-85"/>
      <point x="641" y="-61" type="curve" smooth="yes"/>
      <point x="641" y="39"/>
      <point x="534" y="216"/>
      <point x="334" y="216" type="curve" smooth="yes"/>
      <point x="247" y="216"/>
      <point x="190" y="168"/>
      <point x="190" y="108" type="curve" smooth="yes"/>
      <point x="190" y="38"/>
      <point x="253" y="-14"/>
      <point x="355" y="-14" type="curve" smooth="yes"/>
      <point x="500" y="-14"/>
      <point x="634" y="148"/>
      <point x="634" y="315" type="curve" smooth="yes"/>
      <point x="634" y="442"/>
      <point x="581" y="519"/>
      <point x="490" y="519" type="curve" smooth="yes"/>
      <point x="417" y="519"/>
      <point x="352" y="461"/>
      <point x="329" y="377" type="curve"/>
      <point x="327" y="377" type="line"/>
      <point x="304" y="461"/>
      <point x="238" y="519"/>
      <point x="163" y="519" type="curve" smooth="yes"/>
      <point x="89" y="519"/>
      <point x="40" y="467"/>
      <point x="40" y="391" type="curve" smooth="yes"/>
      <point x="40" y="346"/>
      <point x="59" y="308"/>
      <point x="97" y="269" type="curve"/>
      <point x="119" y="286" type="line"/>
      <point x="96" y="312"/>
      <point x="87" y="329"/>
      <point x="87" y="359" type="curve" smooth="yes"/>
      <point x="87" y="402"/>
      <point x="118" y="442"/>
      <point x="174" y="442" type="curve" smooth="yes"/>
      <point x="259" y="442"/>
      <point x="309" y="358"/>
      <point x="323" y="283" type="curve"/>
      <point x="333" y="283" type="line"/>
      <point x="345" y="357"/>
      <point x="401" y="441"/>
      <point x="485" y="441" type="curve" smooth="yes"/>
      <point x="546" y="441"/>
      <point x="598" y="390"/>
      <point x="598" y="310" type="curve" smooth="yes"/>
      <point x="598" y="164"/>
      <point x="485" y="71"/>
      <point x="363" y="71" type="curve" smooth="yes"/>
      <point x="294" y="71"/>
      <point x="243" y="95"/>
      <point x="243" y="124" type="curve" smooth="yes"/>
      <point x="243" y="155"/>
      <point x="281" y="184"/>
      <point x="341" y="184" type="curve" smooth="yes"/>
      <point x="499" y="184"/>
      <point x="582" y="46"/>
      <point x="582" y="-70" type="curve" smooth="yes"/>
      <point x="582" y="-85"/>
      <point x="595" y="-97"/>
      <point x="611" y="-97" type="curve" smooth="yes"/>
    </contour>
  </outline>
</glyph>
<glyph name="knvL" format="1">
  <advance width="971"/>
  <unicode hex="0C8C"/>
  <outline>
    <contour>
      <point x="823" y="-14"/>
      <point x="916" y="120"/>
      <point x="916" y="241" type="curve" smooth="yes"/>
      <point x="916" y="419"/>
      <point x="818" y="509"/>
      <point x="736" y="509" type="curve" smooth="yes"/>
      <point x="701" y="509"/>
      <point x="681" y="496"/>
      <point x="681" y="473" type="curve" smooth="yes"/>
      <point x="681" y="456"/>
      <point x="692" y="444"/>
      <point x="705" y="437" type="curve" smooth="yes"/>
      <point x="720" y="429"/>
      <point x="743" y="435"/>
      <point x="776" y="427" type="curve" smooth="yes"/>
      <point x="825" y="414"/>
      <point x="882" y="353"/>
      <point x="882" y="262" type="curve" smooth="yes"/>
      <point x="882" y="137"/>
      <point x="776" y="71"/>
      <point x="634" y="71" type="curve" smooth="yes"/>
      <point x="519" y="71"/>
      <point x="464" y="100"/>
      <point x="464" y="155" type="curve" smooth="yes"/>
      <point x="464" y="236"/>
      <point x="607" y="275"/>
      <point x="607" y="387" type="curve" smooth="yes"/>
      <point x="607" y="464"/>
      <point x="558" y="519"/>
      <point x="484" y="519" type="curve" smooth="yes"/>
      <point x="413" y="519"/>
      <point x="341" y="461"/>
      <point x="318" y="377" type="curve"/>
      <point x="316" y="377" type="line"/>
      <point x="293" y="461"/>
      <point x="228" y="519"/>
      <point x="153" y="519" type="curve" smooth="yes"/>
      <point x="79" y="519"/>
      <point x="30" y="467"/>
      <point x="30" y="391" type="curve" smooth="yes"/>
      <point x="30" y="346"/>
      <point x="49" y="308"/>
      <point x="87" y="269" type="curve"/>
      <point x="109" y="286" type="line"/>
      <point x="86" y="312"/>
      <point x="77" y="329"/>
      <point x="77" y="359" type="curve" smooth="yes"/>
      <point x="77" y="402"/>
      <point x="108" y="442"/>
      <point x="164" y="442" type="curve" smooth="yes"/>
      <point x="249" y="442"/>
      <point x="298" y="358"/>
      <point x="312" y="283" type="curve"/>
      <point x="321" y="283" type="line"/>
      <point x="334" y="358"/>
      <point x="396" y="442"/>
      <point x="479" y="442" type="curve" smooth="yes"/>
      <point x="533" y="442"/>
      <point x="561" y="415"/>
      <point x="561" y="371" type="curve" smooth="yes"/>
      <point x="561" y="278"/>
      <point x="417" y="245"/>
      <point x="417" y="141" type="curve" smooth="yes"/>
      <point x="417" y="56"/>
      <point x="465" y="-14"/>
      <point x="632" y="-14" type="curve" smooth="yes"/>
    </contour>
  </outline>
</glyph>
<glyph name="knEE" format="1">
  <advance width="725"/>
  <unicode hex="0C8F"/>
  <outline>
    <contour>
      <point x="243" y="-14"/>
      <point x="311" y="43"/>
      <point x="334" y="126" type="curve"/>
      <point x="336" y="126" type="line"/>
      <point x="359" y="43"/>
      <point x="427" y="-14"/>
      <point x="497" y="-14" type="curve" smooth="yes"/>
      <point x="608" y="-14"/>
      <point x="670" y="88"/>
      <point x="670" y="211" type="curve" smooth="yes"/>
      <point x="670" y="378"/>
      <point x="547" y="522"/>
      <point x="373" y="532" type="curve"/>
      <point x="349" y="480"/>
      <point x="318" y="457"/>
      <point x="273" y="457" type="curve" smooth="yes"/>
      <point x="225" y="457"/>
      <point x="186" y="492"/>
      <point x="186" y="547" type="curve" smooth="yes"/>
      <point x="186" y="557"/>
      <point x="188" y="570"/>
      <point x="190" y="581" type="curve"/>
      <point x="169" y="592" type="line"/>
      <point x="160" y="566"/>
      <point x="153" y="537"/>
      <point x="153" y="510" type="curve" smooth="yes"/>
      <point x="153" y="441"/>
      <point x="195" y="384"/>
      <point x="267" y="384" type="curve" smooth="yes"/>
      <point x="320" y="384"/>
      <point x="356" y="421"/>
      <point x="383" y="476" type="curve"/>
      <point x="511" y="459"/>
      <point x="635" y="360"/>
      <point x="635" y="227" type="curve" smooth="yes"/>
      <point x="635" y="138"/>
      <point x="579" y="71"/>
      <point x="491" y="71" type="curve" smooth="yes"/>
      <point x="418" y="71"/>
      <point x="352" y="146"/>
      <point x="339" y="221" type="curve"/>
      <point x="330" y="221" type="line"/>
      <point x="316" y="145"/>
      <point x="251" y="71"/>
      <point x="178" y="71" type="curve" smooth="yes"/>
      <point x="127" y="71"/>
      <point x="92" y="104"/>
      <point x="90" y="156" type="curve"/>
      <point x="92" y="201"/>
      <point x="121" y="227"/>
      <point x="156" y="227" type="curve" smooth="yes"/>
      <point x="188" y="227"/>
      <point x="213" y="217"/>
      <point x="222" y="193" type="curve"/>
      <point x="238" y="208" type="line"/>
      <point x="227" y="250"/>
      <point x="203" y="287"/>
      <point x="153" y="287" type="curve" smooth="yes"/>
      <point x="95" y="287"/>
      <point x="52" y="232"/>
      <point x="50" y="143" type="curve"/>
      <point x="52" y="56"/>
      <point x="101" y="-14"/>
      <point x="173" y="-14" type="curve" smooth="yes"/>
    </contour>
  </outline>
</glyph>
<glyph name="knJHA" format="1">
  <advance width="1231"/>
  <unicode hex="0C9D"/>
  <outline>
    <contour>
      <point x="421" y="-14"/>
      <point x="515" y="86"/>
      <point x="515" y="226" type="curve" smooth="yes"/>
      <point x="515" y="315"/>
      <point x="469" y="398"/>
      <point x="395" y="436" type="curve" smooth="yes"/>
      <point x="363" y="453"/>
      <point x="326" y="461"/>
      <point x="285" y="461" type="curve" smooth="yes"/>
      <point x="244" y="461"/>
      <point x="207" y="453"/>
      <point x="175" y="436" type="curve" smooth="yes"/>
      <point x="101" y="398"/>
      <point x="55" y="315"/>
      <point x="55" y="226" type="curve" smooth="yes"/>
      <point x="55" y="86"/>
      <point x="149" y="-14"/>
      <point x="285" y="-14" type="curve" smooth="yes"/>
    </contour>
    <contour>
      <point x="175" y="71"/>
      <point x="100" y="144"/>
      <point x="100" y="247" type="curve" smooth="yes"/>
      <point x="100" y="348"/>
      <point x="184" y="433"/>
      <point x="285" y="433" type="curve" smooth="yes"/>
      <point x="386" y="433"/>
      <point x="470" y="349"/>
      <point x="470" y="248" type="curve" smooth="yes"/>
      <point x="470" y="145"/>
      <point x="394" y="71"/>
      <point x="285" y="71" type="curve" smooth="yes"/>
    </contour>
    <contour>
      <point x="836" y="-220"/>
      <point x="861" y="-201"/>
      <point x="861" y="-161" type="curve" smooth="yes"/>
      <point x="861" y="-117"/>
      <point x="832" y="-104"/>
      <point x="818" y="16" type="curve"/>
      <point x="802" y="16" type="line"/>
      <point x="789" y="-104"/>
      <point x="758" y="-117"/>
      <point x="758" y="-161" type="curve" smooth="yes"/>
      <point x="758" y="-197"/>
      <point x="783" y="-220"/>
      <point x="810" y="-220" type="curve" smooth="yes"/>
    </contour>
    <contour>
      <point x="218" y="434" type="line"/>
      <point x="284" y="451" type="line"/>
      <point x="348" y="434" type="line"/>
      <point x="380" y="434" type="line" smooth="yes"/>
      <point x="461" y="434"/>
      <point x="515" y="480"/>
      <point x="515" y="552" type="curve" smooth="yes"/>
      <point x="515" y="607"/>
      <point x="484" y="648"/>
      <point x="441" y="664" type="curve"/>
      <point x="426" y="644" type="line"/>
      <point x="450" y="635"/>
      <point x="472" y="610"/>
      <point x="472" y="576" type="curve" smooth="yes"/>
      <point x="472" y="536"/>
      <point x="441" y="509"/>
      <point x="380" y="509" type="curve" smooth="yes"/>
      <point x="55" y="509" type="line"/>
      <point x="55" y="434" type="line"/>
    </contour>
    <contour>
      <point x="755" y="-14"/>
      <point x="835" y="95"/>
      <point x="835" y="242" type="curve" smooth="yes"/>
      <point x="835" y="415"/>
      <point x="739" y="513"/>
      <point x="668" y="513" type="curve" smooth="yes"/>
      <point x="637" y="513"/>
      <point x="620" y="493"/>
      <point x="620" y="470" type="curve" smooth="yes"/>
      <point x="620" y="451"/>
      <point x="632" y="435"/>
      <point x="648" y="430" type="curve" smooth="yes"/>
      <point x="671" y="423"/>
      <point x="692" y="428"/>
      <point x="716" y="420" type="curve" smooth="yes"/>
      <point x="753" y="407"/>
      <point x="800" y="344"/>
      <point x="800" y="255" type="curve" smooth="yes"/>
      <point x="800" y="137"/>
      <point x="730" y="71"/>
      <point x="642" y="71" type="curve" smooth="yes"/>
      <point x="573" y="71"/>
      <point x="520" y="105"/>
      <point x="483" y="207" type="curve"/>
      <point x="463" y="188" type="line"/>
      <point x="481" y="61"/>
      <point x="556" y="-14"/>
      <point x="642" y="-14" type="curve" smooth="yes"/>
    </contour>
    <contour>
      <point x="1091" y="-14"/>
      <point x="1171" y="95"/>
      <point x="1171" y="242" type="curve" smooth="yes"/>
      <point x="1171" y="415"/>
      <point x="1075" y="513"/>
      <point x="1004" y="513" type="curve" smooth="yes"/>
      <point x="973" y="513"/>
      <point x="956" y="493"/>
      <point x="956" y="470" type="curve" smooth="yes"/>
      <point x="956" y="451"/>
      <point x="968" y="435"/>
      <point x="984" y="430" type="curve" smooth="yes"/>
      <point x="1007" y="423"/>
      <point x="1028" y="428"/>
      <point x="1052" y="420" type="curve" smooth="yes"/>
      <point x="1089" y="407"/>
      <point x="1136" y="344"/>
      <point x="1136" y="255" type="curve" smooth="yes"/>
      <point x="1136" y="137"/>
      <point x="1066" y="71"/>
      <point x="978" y="71" type="curve" smooth="yes"/>
      <point x="909" y="71"/>
      <point x="856" y="105"/>
      <point x="819" y="207" type="curve"/>
      <point x="799" y="188" type="line"/>
      <point x="817" y="61"/>
      <point x="892" y="-14"/>
      <point x="978" y="-14" type="curve" smooth="yes"/>
    </contour>
  </outline>
</glyph>
<glyph name="knPA" format="1">
  <advance width="711"/>
  <unicode hex="0CAA"/>
  <outline>
    <contour>
      <point x="251" y="-14"/>
      <point x="321" y="43"/>
      <point x="344" y="126" type="curve"/>
      <point x="346" y="126" type="line"/>
      <point x="369" y="43"/>
      <point x="438" y="-14"/>
      <point x="503" y="-14" type="curve" smooth="yes"/>
      <point x="598" y="-14"/>
      <point x="635" y="84"/>
      <point x="635" y="179" type="curve" smooth="yes"/>
      <point x="635" y="271"/>
      <point x="613" y="392"/>
      <point x="561" y="392" type="curve" smooth="yes"/>
      <point x="536" y="392"/>
      <point x="519" y="375"/>
      <point x="519" y="352" type="curve" smooth="yes"/>
      <point x="519" y="304"/>
      <point x="600" y="339"/>
      <point x="600" y="202" type="curve" smooth="yes"/>
      <point x="600" y="131"/>
      <point x="569" y="71"/>
      <point x="493" y="71" type="curve" smooth="yes"/>
      <point x="428" y="71"/>
      <point x="363" y="145"/>
      <point x="349" y="221" type="curve"/>
      <point x="340" y="221" type="line"/>
      <point x="326" y="145"/>
      <point x="261" y="71"/>
      <point x="186" y="71" type="curve" smooth="yes"/>
      <point x="135" y="71"/>
      <point x="100" y="104"/>
      <point x="100" y="156" type="curve" smooth="yes"/>
      <point x="100" y="201"/>
      <point x="129" y="227"/>
      <point x="166" y="227" type="curve" smooth="yes"/>
      <point x="196" y="227"/>
      <point x="221" y="217"/>
      <point x="232" y="193" type="curve"/>
      <point x="248" y="208" type="line"/>
      <point x="235" y="250"/>
      <point x="211" y="287"/>
      <point x="163" y="287" type="curve" smooth="yes"/>
      <point x="103" y="287"/>
      <point x="60" y="232"/>
      <point x="60" y="143" type="curve" smooth="yes"/>
      <point x="60" y="56"/>
      <point x="109" y="-14"/>
      <point x="183" y="-14" type="curve" smooth="yes"/>
    </contour>
    <contour>
      <point x="376" y="271"/>
      <point x="403" y="298"/>
      <point x="403" y="331" type="curve" smooth="yes"/>
      <point x="403" y="363"/>
      <point x="376" y="390"/>
      <point x="343" y="390" type="curve" smooth="yes"/>
      <point x="309" y="390"/>
      <point x="284" y="363"/>
      <point x="284" y="331" type="curve" smooth="yes"/>
      <point x="284" y="298"/>
      <point x="309" y="271"/>
      <point x="343" y="271" type="curve" smooth="yes"/>
    </contour>
    <contour>
      <point x="521" y="434" type="line" smooth="yes"/>
      <point x="602" y="434"/>
      <point x="656" y="480"/>
      <point x="656" y="552" type="curve" smooth="yes"/>
      <point x="656" y="607"/>
      <point x="625" y="648"/>
      <point x="582" y="664" type="curve"/>
      <point x="567" y="644" type="line"/>
      <point x="591" y="635"/>
      <point x="613" y="610"/>
      <point x="613" y="576" type="curve" smooth="yes"/>
      <point x="613" y="536"/>
      <point x="582" y="509"/>
      <point x="521" y="509" type="curve" smooth="yes"/>
      <point x="60" y="509" type="line"/>
      <point x="60" y="434" type="line"/>
    </contour>
  </outline>
</glyph>
<glyph name="knBHA" format="1">
  <advance width="747"/>
  <unicode hex="0CAD"/>
  <outline>
    <contour>
      <point x="276" y="-14"/>
      <point x="344" y="43"/>
      <point x="367" y="126" type="curve"/>
      <point x="369" y="126" type="line"/>
      <point x="392" y="43"/>
      <point x="460" y="-14"/>
      <point x="531" y="-14" type="curve" smooth="yes"/>
      <point x="633" y="-14"/>
      <point x="687" y="84"/>
      <point x="687" y="171" type="curve" smooth="yes"/>
      <point x="687" y="360"/>
      <point x="544" y="470"/>
      <point x="408" y="470" type="curve"/>
      <point x="398" y="434" type="line"/>
      <point x="550" y="424"/>
      <point x="649" y="301"/>
      <point x="649" y="203" type="curve" smooth="yes"/>
      <point x="649" y="121"/>
      <point x="600" y="71"/>
      <point x="524" y="71" type="curve" smooth="yes"/>
      <point x="451" y="71"/>
      <point x="385" y="146"/>
      <point x="372" y="221" type="curve"/>
      <point x="363" y="221" type="line"/>
      <point x="349" y="145"/>
      <point x="284" y="71"/>
      <point x="211" y="71" type="curve" smooth="yes"/>
      <point x="158" y="71"/>
      <point x="131" y="114"/>
      <point x="131" y="156" type="curve" smooth="yes"/>
      <point x="131" y="187"/>
      <point x="156" y="223"/>
      <point x="189" y="257" type="curve" smooth="yes"/>
      <point x="229" y="298"/>
      <point x="278" y="349"/>
      <point x="278" y="399" type="curve" smooth="yes"/>
      <point x="278" y="465"/>
      <point x="230" y="519"/>
      <point x="154" y="519" type="curve" smooth="yes"/>
      <point x="79" y="519"/>
      <point x="40" y="465"/>
      <point x="40" y="413" type="curve" smooth="yes"/>
      <point x="40" y="381"/>
      <point x="48" y="352"/>
      <point x="69" y="330" type="curve"/>
      <point x="89" y="345" type="line"/>
      <point x="82" y="360"/>
      <point x="79" y="372"/>
      <point x="79" y="383" type="curve" smooth="yes"/>
      <point x="79" y="421"/>
      <point x="102" y="452"/>
      <point x="154" y="452" type="curve" smooth="yes"/>
      <point x="191" y="452"/>
      <point x="225" y="427"/>
      <point x="225" y="385" type="curve" smooth="yes"/>
      <point x="225" y="344"/>
      <point x="194" y="311"/>
      <point x="162" y="278" type="curve" smooth="yes"/>
      <point x="123" y="238"/>
      <point x="80" y="193"/>
      <point x="80" y="125" type="curve" smooth="yes"/>
      <point x="80" y="38"/>
      <point x="141" y="-14"/>
      <point x="208" y="-14" type="curve" smooth="yes"/>
    </contour>
    <contour>
      <point x="395" y="-220"/>
      <point x="420" y="-201"/>
      <point x="420" y="-161" type="curve" smooth="yes"/>
      <point x="420" y="-117"/>
      <point x="391" y="-104"/>
      <point x="377" y="16" type="curve"/>
      <point x="361" y="16" type="line"/>
      <point x="348" y="-104"/>
      <point x="317" y="-117"/>
      <point x="317" y="-161" type="curve" smooth="yes"/>
      <point x="317" y="-197"/>
      <point x="342" y="-220"/>
      <point x="369" y="-220" type="curve" smooth="yes"/>
    </contour>
    <contour>
      <point x="552" y="434" type="line" smooth="yes"/>
      <point x="633" y="434"/>
      <point x="687" y="480"/>
      <point x="687" y="552" type="curve" smooth="yes"/>
      <point x="687" y="607"/>
      <point x="656" y="648"/>
      <point x="613" y="664" type="curve"/>
      <point x="598" y="644" type="line"/>
      <point x="622" y="635"/>
      <point x="644" y="610"/>
      <point x="644" y="576" type="curve" smooth="yes"/>
      <point x="644" y="536"/>
      <point x="613" y="509"/>
      <point x="552" y="509" type="curve" smooth="yes"/>
      <point x="361" y="509" type="line"/>
      <point x="361" y="434" type="line"/>
    </contour>
  </outline>
</glyph>
<glyph name="knYA" format="1">
  <advance width="1231"/>
  <unicode hex="0CAF"/>
  <outline>
    <contour>
      <point x="424" y="-14"/>
      <point x="515" y="99"/>
      <point x="515" y="250" type="curve" smooth="yes"/>
      <point x="515" y="402"/>
      <point x="425" y="519"/>
      <point x="286" y="519" type="curve" smooth="yes"/>
      <point x="147" y="519"/>
      <point x="55" y="402"/>
      <point x="55" y="250" type="curve" smooth="yes"/>
      <point x="55" y="99"/>
      <point x="146" y="-14"/>
      <point x="285" y="-14" type="curve" smooth="yes"/>
    </contour>
    <contour>
      <point x="184" y="71"/>
      <point x="95" y="144"/>
      <point x="95" y="259" type="curve" smooth="yes"/>
      <point x="95" y="369"/>
      <point x="175" y="441"/>
      <point x="286" y="441" type="curve" smooth="yes"/>
      <point x="397" y="441"/>
      <point x="477" y="369"/>
      <point x="477" y="254" type="curve" smooth="yes"/>
      <point x="477" y="144"/>
      <point x="386" y="71"/>
      <point x="285" y="71" type="curve" smooth="yes"/>
    </contour>
    <contour>
      <point x="755" y="-14"/>
      <point x="835" y="95"/>
      <point x="835" y="242" type="curve" smooth="yes"/>
      <point x="835" y="415"/>
      <point x="739" y="509"/>
      <point x="668" y="509" type="curve" smooth="yes"/>
      <point x="637" y="509"/>
      <point x="620" y="493"/>
      <point x="620" y="470" type="curve" smooth="yes"/>
      <point x="620" y="464"/>
      <point x="649" y="453"/>
      <point x="688" y="434" type="curve" smooth="yes"/>
      <point x="735" y="411"/>
      <point x="800" y="344"/>
      <point x="800" y="255" type="curve" smooth="yes"/>
      <point x="800" y="137"/>
      <point x="730" y="71"/>
      <point x="642" y="71" type="curve" smooth="yes"/>
      <point x="573" y="71"/>
      <point x="525" y="105"/>
      <point x="488" y="207" type="curve"/>
      <point x="468" y="188" type="line"/>
      <point x="486" y="61"/>
      <point x="556" y="-14"/>
      <point x="642" y="-14" type="curve" smooth="yes"/>
    </contour>
    <contour>
      <point x="1091" y="-14"/>
      <point x="1171" y="95"/>
      <point x="1171" y="242" type="curve" smooth="yes"/>
      <point x="1171" y="415"/>
      <point x="1075" y="513"/>
      <point x="1004" y="513" type="curve" smooth="yes"/>
      <point x="973" y="513"/>
      <point x="956" y="493"/>
      <point x="956" y="470" type="curve" smooth="yes"/>
      <point x="956" y="451"/>
      <point x="968" y="435"/>
      <point x="984" y="430" type="curve" smooth="yes"/>
      <point x="1007" y="423"/>
      <point x="1028" y="428"/>
      <point x="1052" y="420" type="curve" smooth="yes"/>
      <point x="1089" y="407"/>
      <point x="1136" y="344"/>
      <point x="1136" y="255" type="curve" smooth="yes"/>
      <point x="1136" y="137"/>
      <point x="1066" y="71"/>
      <point x="978" y="71" type="curve" smooth="yes"/>
      <point x="909" y="71"/>
      <point x="856" y="105"/>
      <point x="819" y="207" type="curve"/>
      <point x="799" y="188" type="line"/>
      <point x="817" y="61"/>
      <point x="892" y="-14"/>
      <point x="978" y="-14" type="curve" smooth="yes"/>
    </contour>
    <contour>
      <point x="732" y="434" type="line" smooth="yes"/>
      <point x="813" y="434"/>
      <point x="867" y="480"/>
      <point x="867" y="552" type="curve" smooth="yes"/>
      <point x="867" y="607"/>
      <point x="836" y="648"/>
      <point x="793" y="664" type="curve"/>
      <point x="778" y="644" type="line"/>
      <point x="802" y="635"/>
      <point x="824" y="610"/>
      <point x="824" y="576" type="curve" smooth="yes"/>
      <point x="824" y="536"/>
      <point x="793" y="509"/>
      <point x="732" y="509" type="curve" smooth="yes"/>
      <point x="540" y="509" type="line"/>
      <point x="540" y="434" type="line"/>
    </contour>
  </outline>
</glyph>
<glyph name="knSHA" format="1">
  <advance width="593"/>
  <unicode hex="0CB6"/>
  <outline>
    <contour>
      <point x="418" y="-14"/>
      <point x="519" y="90"/>
      <point x="519" y="236" type="curve" smooth="yes"/>
      <point x="519" y="379"/>
      <point x="418" y="469"/>
      <point x="275" y="470" type="curve" smooth="yes"/>
      <point x="182" y="471"/>
      <point x="141" y="426"/>
      <point x="141" y="377" type="curve" smooth="yes"/>
      <point x="141" y="342"/>
      <point x="167" y="308"/>
      <point x="214" y="308" type="curve" smooth="yes"/>
      <point x="248" y="308"/>
      <point x="266" y="331"/>
      <point x="266" y="353" type="curve" smooth="yes"/>
      <point x="266" y="375"/>
      <point x="250" y="393"/>
      <point x="228" y="393" type="curve" smooth="yes"/>
      <point x="208" y="393"/>
      <point x="194" y="376"/>
      <point x="194" y="354" type="curve" smooth="yes"/>
      <point x="194" y="351"/>
      <point x="193" y="347"/>
      <point x="189" y="347" type="curve" smooth="yes"/>
      <point x="180" y="347"/>
      <point x="172" y="360"/>
      <point x="172" y="378" type="curve" smooth="yes"/>
      <point x="172" y="412"/>
      <point x="206" y="439"/>
      <point x="249" y="439" type="curve" smooth="yes"/>
      <point x="292" y="439"/>
      <point x="330" y="399"/>
      <point x="330" y="346" type="curve" smooth="yes"/>
      <point x="330" y="273"/>
      <point x="271" y="261"/>
      <point x="175" y="261" type="curve" smooth="yes"/>
      <point x="102" y="261"/>
      <point x="55" y="222"/>
      <point x="55" y="163" type="curve" smooth="yes"/>
      <point x="55" y="66"/>
      <point x="133" y="-14"/>
      <point x="260" y="-14" type="curve" smooth="yes"/>
    </contour>
    <contour>
      <point x="165" y="71"/>
      <point x="102" y="126"/>
      <point x="102" y="174" type="curve" smooth="yes"/>
      <point x="102" y="209"/>
      <point x="125" y="231"/>
      <point x="209" y="231" type="curve" smooth="yes"/>
      <point x="322" y="231"/>
      <point x="362" y="274"/>
      <point x="362" y="339" type="curve" smooth="yes"/>
      <point x="362" y="383"/>
      <point x="345" y="420"/>
      <point x="313" y="440" type="curve"/>
      <point x="394" y="435"/>
      <point x="469" y="373"/>
      <point x="469" y="263" type="curve" smooth="yes"/>
      <point x="469" y="138"/>
      <point x="390" y="71"/>
      <point x="259" y="71" type="curve" smooth="yes"/>
    </contour>
    <contour>
      <point x="194" y="434" type="line"/>
      <point x="295" y="459" type="line"/>
      <point x="403" y="434" type="line"/>
      <point x="484" y="434"/>
      <point x="538" y="480"/>
      <point x="538" y="552" type="curve" smooth="yes"/>
      <point x="538" y="607"/>
      <point x="507" y="648"/>
      <point x="464" y="664" type="curve"/>
      <point x="449" y="644" type="line"/>
      <point x="473" y="635"/>
      <point x="495" y="610"/>
      <point x="495" y="576" type="curve" smooth="yes"/>
      <point x="495" y="536"/>
      <point x="464" y="509"/>
      <point x="403" y="509" type="curve" smooth="yes"/>
      <point x="58" y="509" type="line"/>
      <point x="58" y="434" type="line"/>
    </contour>
  </outline>
</glyph>
<glyph name="knmO" format="1">
  <advance width="730"/>
  <unicode hex="0CCA"/>
  <outline>
    <contour>
      <point x="208" y="-14"/>
      <point x="238" y="103"/>
      <point x="238" y="274" type="curve"/>
      <point x="238" y="416"/>
      <point x="327" y="437"/>
      <point x="405" y="437" type="curve" smooth="yes"/>
      <point x="499" y="437"/>
      <point x="621" y="357"/>
      <point x="621" y="235" type="curve"/>
      <point x="621" y="140"/>
      <point x="571" y="71"/>
      <point x="479" y="71" type="curve" smooth="yes"/>
      <point x="408" y="71"/>
      <point x="366" y="112"/>
      <point x="366" y="169" type="curve"/>
      <point x="366" y="211"/>
      <point x="375" y="237"/>
      <point x="387" y="237" type="curve" smooth="yes"/>
      <point x="392" y="237"/>
      <point x="393" y="232"/>
      <point x="393" y="227" type="curve" smooth="yes"/>
      <point x="393" y="191"/>
      <point x="415" y="165"/>
      <point x="448" y="165" type="curve" smooth="yes"/>
      <point x="483" y="165"/>
      <point x="508" y="194"/>
      <point x="508" y="230" type="curve" smooth="yes"/>
      <point x="508" y="262"/>
      <point x="483" y="299"/>
      <point x="430" y="299" type="curve" smooth="yes"/>
      <point x="351" y="299"/>
      <point x="314" y="233"/>
      <point x="314" y="155" type="curve"/>
      <point x="314" y="56"/>
      <point x="377" y="-14"/>
      <point x="463" y="-14" type="curve" smooth="yes"/>
      <point x="574" y="-14"/>
      <point x="660" y="82"/>
      <point x="660" y="238" type="curve"/>
      <point x="660" y="424"/>
      <point x="522" y="519"/>
      <point x="405" y="519" type="curve"/>
      <point x="312" y="519"/>
      <point x="191" y="456"/>
      <point x="191" y="273" type="curve"/>
      <point x="191" y="177"/>
      <point x="175" y="71"/>
      <point x="82" y="71" type="curve"/>
      <point x="1" y="71"/>
      <point x="-49" y="145"/>
      <point x="-78" y="222" type="curve"/>
      <point x="-100" y="182" type="line"/>
      <point x="-91" y="84"/>
      <point x="-4" y="-14"/>
      <point x="85" y="-14" type="curve"/>
    </contour>
    <contour>
      <point x="-121" y="434"/>
      <point x="-67" y="480"/>
      <point x="-67" y="553" type="curve" smooth="yes"/>
      <point x="-67" y="651"/>
      <point x="-145" y="685"/>
      <point x="-202" y="685" type="curve" smooth="yes"/>
      <point x="-257" y="685"/>
      <point x="-285" y="657"/>
      <point x="-285" y="625" type="curve" smooth="yes"/>
      <point x="-285" y="592"/>
      <point x="-262" y="571"/>
      <point x="-228" y="571" type="curve" smooth="yes"/>
      <point x="-194" y="571"/>
      <point x="-173" y="597"/>
      <point x="-173" y="633" type="curve" smooth="yes"/>
      <point x="-173" y="639"/>
      <point x="-171" y="643"/>
      <point x="-167" y="643" type="curve" smooth="yes"/>
      <point x="-154" y="643"/>
      <point x="-110" y="629"/>
      <point x="-110" y="577" type="curve"/>
      <point x="-110" y="530"/>
      <point x="-150" y="509"/>
      <point x="-201" y="509" type="curve"/>
      <point x="-202" y="434" type="line"/>
    </contour>
  </outline>
</glyph>
<glyph name="knZero" format="1">
  <advance width="534"/>
  <unicode hex="0CE6"/>
  <outline>
    <contour>
      <point x="365" y="71"/>
      <point x="439" y="117"/>
      <point x="439" y="251" type="curve" smooth="yes"/>
      <point x="439" y="372"/>
      <point x="376" y="434"/>
      <point x="267" y="434" type="curve"/>
      <point x="158" y="434"/>
      <point x="95" y="372"/>
      <point x="95" y="251" type="curve" smooth="yes"/>
      <point x="95" y="117"/>
      <point x="169" y="71"/>
      <point x="267" y="71" type="curve"/>
    </contour>
    <contour>
      <point x="152" y="-14"/>
      <point x="55" y="85"/>
      <point x="55" y="251" type="curve" smooth="yes"/>
      <point x="55" y="411"/>
      <point x="141" y="519"/>
      <point x="267" y="519" type="curve"/>
      <point x="393" y="519"/>
      <point x="479" y="411"/>
      <point x="479" y="251" type="curve" smooth="yes"/>
      <point x="479" y="85"/>
      <point x="382" y="-14"/>
      <point x="267" y="-14" type="curve"/>
    </contour>
  </outline>
</glyph>
<glyph name="knOne" format="1">
  <advance width="534"/>
  <unicode hex="0CE7"/>
  <outline>
    <contour>
      <point x="376" y="434"/>
      <point x="439" y="372"/>
      <point x="439" y="261" type="curve" smooth="yes"/>
      <point x="439" y="137"/>
      <point x="387" y="106"/>
      <point x="314" y="57" type="curve"/>
      <point x="362" y="-14" type="line"/>
      <point x="445" y="65"/>
      <point x="479" y="138"/>
      <point x="479" y="249" type="curve" smooth="yes"/>
      <point x="479" y="411"/>
      <point x="393" y="519"/>
      <point x="267" y="519" type="curve"/>
      <point x="141" y="519"/>
      <point x="55" y="411"/>
      <point x="55" y="249" type="curve" smooth="yes"/>
      <point x="55" y="138"/>
      <point x="89" y="65"/>
      <point x="172" y="-14" type="curve"/>
      <point x="220" y="57" type="line"/>
      <point x="147" y="106"/>
      <point x="95" y="137"/>
      <point x="95" y="261" type="curve" smooth="yes"/>
      <point x="95" y="372"/>
      <point x="158" y="434"/>
      <point x="267" y="434" type="curve"/>
    </contour>
  </outline>
</glyph>
<glyph name="knSix" format="1">
  <advance width="473"/>
  <unicode hex="0CEC"/>
  <outline>
    <contour>
      <point x="68" y="543"/>
      <point x="107" y="597"/>
      <point x="167" y="597" type="curve" smooth="yes"/>
      <point x="222" y="597"/>
      <point x="259" y="557"/>
      <point x="259" y="498" type="curve" smooth="yes"/>
      <point x="259" y="400"/>
      <point x="173" y="374"/>
      <point x="173" y="323" type="curve" smooth="yes"/>
      <point x="173" y="288"/>
      <point x="199" y="267"/>
      <point x="249" y="267" type="curve" smooth="yes"/>
      <point x="301" y="267"/>
      <point x="329" y="289"/>
      <point x="329" y="320" type="curve" smooth="yes"/>
      <point x="329" y="354"/>
      <point x="296" y="380"/>
      <point x="236" y="380" type="curve"/>
      <point x="157" y="380"/>
      <point x="90" y="310"/>
      <point x="90" y="224" type="curve"/>
      <point x="90" y="134"/>
      <point x="149" y="62"/>
      <point x="258" y="62" type="curve" smooth="yes"/>
      <point x="448" y="62" type="line"/>
      <point x="448" y="-14" type="line"/>
      <point x="259" y="-14" type="line" smooth="yes"/>
      <point x="129" y="-14"/>
      <point x="50" y="77"/>
      <point x="50" y="223" type="curve"/>
      <point x="50" y="352"/>
      <point x="129" y="442"/>
      <point x="237" y="442" type="curve" smooth="yes"/>
      <point x="308" y="442"/>
      <point x="359" y="400"/>
      <point x="359" y="320" type="curve" smooth="yes"/>
      <point x="359" y="253"/>
      <point x="319" y="204"/>
      <point x="256" y="204" type="curve" smooth="yes"/>
      <point x="197" y="204"/>
      <point x="142" y="236"/>
      <point x="142" y="311" type="curve" smooth="yes"/>
      <point x="142" y="377"/>
      <point x="220" y="412"/>
      <point x="220" y="463" type="curve"/>
      <point x="220" y="495"/>
      <point x="191" y="517"/>
      <point x="153" y="517" type="curve" smooth="yes"/>
      <point x="118" y="517"/>
      <point x="95" y="505"/>
      <point x="80" y="479" type="curve"/>
      <point x="68" y="487" type="line"/>
    </contour>
  </outline>
</glyph>
<glyph name="knSeven" format="1">
  <advance width="485"/>
  <unicode hex="0CED"/>
  <outline>
    <contour>
      <point x="89" y="88"/>
      <point x="119" y="62"/>
      <point x="188" y="62" type="curve" smooth="yes"/>
      <point x="448" y="62" type="line"/>
      <point x="448" y="-14" type="line"/>
      <point x="199" y="-14" type="line" smooth="yes"/>
      <point x="109" y="-14"/>
      <point x="50" y="32"/>
      <point x="50" y="123" type="curve" smooth="yes"/>
      <point x="50" y="279"/>
      <point x="290" y="263"/>
      <point x="290" y="385" type="curve" smooth="yes"/>
      <point x="290" y="417"/>
      <point x="259" y="440"/>
      <point x="218" y="440" type="curve" smooth="yes"/>
      <point x="170" y="440"/>
      <point x="144" y="412"/>
      <point x="144" y="383" type="curve" smooth="yes"/>
      <point x="144" y="372"/>
      <point x="147" y="360"/>
      <point x="154" y="345" type="curve"/>
      <point x="134" y="330" type="line"/>
      <point x="113" y="352"/>
      <point x="105" y="381"/>
      <point x="105" y="413" type="curve" smooth="yes"/>
      <point x="105" y="465"/>
      <point x="144" y="519"/>
      <point x="219" y="519" type="curve" smooth="yes"/>
      <point x="298" y="519"/>
      <point x="343" y="473"/>
      <point x="343" y="401" type="curve" smooth="yes"/>
      <point x="343" y="250"/>
      <point x="89" y="234"/>
      <point x="89" y="130" type="curve" smooth="yes"/>
    </contour>
    <contour>
      <point x="188" y="62" type="move"/>
      <point x="448" y="62" type="line"/>
      <point x="448" y="-14" type="line"/>
      <point x="199" y="-14" type="line"/>
    </contour>
    <contour>
      <point x="206" y="404" type="move"/>
    </contour>
  </outline>
</glyph>
<glyph name="guilsinglleft" format="1">
  <advance width="464"/>
  <unicode hex="2039"/>
  <outline>
    <contour>
      <point x="353" y="19" type="line" smooth="yes"/>
      <point x="359" y="19"/>
      <point x="362" y="23"/>
      <point x="362" y="31" type="curve" smooth="yes"/>
      <point x="362" y="34"/>
      <point x="361" y="37"/>
      <point x="359" y="40" type="curve" smooth="yes"/>
      <point x="318" y="102"/>
      <point x="268" y="156"/>
      <point x="207" y="203" type="curve" smooth="yes"/>
      <point x="203" y="206"/>
      <point x="201" y="208"/>
      <point x="201" y="210" type="curve" smooth="yes"/>
      <point x="201" y="211"/>
      <point x="202" y="213"/>
      <point x="203" y="214" type="curve" smooth="yes"/>
      <point x="204" y="215"/>
      <point x="210" y="219"/>
      <point x="221" y="228" type="curve" smooth="yes"/>
      <point x="243" y="245"/>
      <point x="263" y="259"/>
      <point x="303" y="304" type="curve" smooth="yes"/>
      <point x="323" y="326"/>
      <point x="342" y="350"/>
      <point x="359" y="376" type="curve"/>
      <point x="362" y="381"/>
      <point x="364" y="387"/>
      <point x="364" y="392" type="curve" smooth="yes"/>
      <point x="364" y="397"/>
      <point x="362" y="400"/>
      <point x="358" y="400" type="curve" smooth="yes"/>
      <point x="357" y="400" type="line"/>
      <point x="348" y="398"/>
      <point x="339" y="392"/>
      <point x="329" y="382" type="curve" smooth="yes"/>
      <point x="276" y="331"/>
      <point x="200" y="276"/>
      <point x="103" y="218" type="curve"/>
      <point x="101" y="217"/>
      <point x="100" y="214"/>
      <point x="100" y="210" type="curve" smooth="yes"/>
      <point x="100" y="202"/>
      <point x="109" y="187"/>
      <point x="118" y="182" type="curve"/>
      <point x="188" y="150"/>
      <point x="256" y="102"/>
      <point x="323" y="37" type="curve" smooth="yes"/>
      <point x="333" y="27"/>
      <point x="342" y="21"/>
      <point x="351" y="19" type="curve"/>
    </contour>
  </outline>
</glyph>
<glyph name="dollar.sinf" format="1">
  <advance width="297"/>
  <outline>
    <contour>
      <point x="137" y="-214"/>
      <point x="141" y="-211"/>
      <point x="142" y="-205" type="curve"/>
      <point x="148" y="-159" type="line"/>
      <point x="149" y="-156"/>
      <point x="150" y="-155"/>
      <point x="153" y="-155" type="curve" smooth="yes"/>
      <point x="242" y="-155"/>
      <point x="287" y="-98"/>
      <point x="287" y="-41" type="curve" smooth="yes"/>
      <point x="287" y="-22"/>
      <point x="283" y="-7"/>
      <point x="274" y="6" type="curve" smooth="yes"/>
      <point x="269" y="13"/>
      <point x="264" y="19"/>
      <point x="260" y="24" type="curve" smooth="yes"/>
      <point x="252" y="34"/>
      <point x="217" y="62"/>
      <point x="185" y="78" type="curve" smooth="yes"/>
      <point x="183" y="79"/>
      <point x="182" y="80"/>
      <point x="182" y="81" type="curve"/>
      <point x="182" y="81"/>
      <point x="182" y="82"/>
      <point x="181" y="83" type="curve" smooth="yes"/>
      <point x="180" y="84"/>
      <point x="180" y="86"/>
      <point x="181" y="88" type="curve"/>
      <point x="200" y="224" type="line"/>
      <point x="200" y="227"/>
      <point x="201" y="228"/>
      <point x="203" y="227" type="curve"/>
      <point x="230" y="217"/>
      <point x="247" y="196"/>
      <point x="256" y="165" type="curve"/>
      <point x="259" y="157"/>
      <point x="269" y="150"/>
      <point x="273" y="150" type="curve" smooth="yes"/>
      <point x="274" y="150"/>
      <point x="276" y="152"/>
      <point x="278" y="156" type="curve"/>
      <point x="279" y="159"/>
      <point x="280" y="164"/>
      <point x="280" y="170" type="curve" smooth="yes"/>
      <point x="280" y="176"/>
      <point x="277" y="196"/>
      <point x="270" y="229" type="curve"/>
      <point x="269" y="237"/>
      <point x="265" y="241"/>
      <point x="259" y="242" type="curve" smooth="yes"/>
      <point x="232" y="247"/>
      <point x="216" y="250"/>
      <point x="211" y="251" type="curve" smooth="yes"/>
      <point x="206" y="252"/>
      <point x="203" y="253"/>
      <point x="203" y="255" type="curve"/>
      <point x="206" y="271" type="line"/>
      <point x="207" y="278"/>
      <point x="205" y="281"/>
      <point x="198" y="281" type="curve" smooth="yes"/>
      <point x="186" y="281"/>
      <point x="180" y="278"/>
      <point x="179" y="271" type="curve"/>
      <point x="176" y="255" type="line"/>
      <point x="176" y="253"/>
      <point x="174" y="252"/>
      <point x="170" y="251" type="curve"/>
      <point x="97" y="247"/>
      <point x="54" y="197"/>
      <point x="54" y="154" type="curve" smooth="yes"/>
      <point x="54" y="117"/>
      <point x="82" y="81"/>
      <point x="139" y="44" type="curve"/>
      <point x="144" y="41"/>
      <point x="147" y="37"/>
      <point x="147" y="34" type="curve"/>
      <point x="125" y="-127" type="line"/>
      <point x="125" y="-129"/>
      <point x="123" y="-129"/>
      <point x="120" y="-128" type="curve"/>
      <point x="97" y="-117"/>
      <point x="76" y="-93"/>
      <point x="58" y="-57" type="curve"/>
      <point x="52" y="-46"/>
      <point x="48" y="-40"/>
      <point x="47" y="-40" type="curve" smooth="yes"/>
      <point x="38" y="-40"/>
      <point x="34" y="-43"/>
      <point x="34" y="-49" type="curve"/>
      <point x="35" y="-70"/>
      <point x="48" y="-118"/>
      <point x="53" y="-129" type="curve"/>
      <point x="56" y="-134"/>
      <point x="59" y="-138"/>
      <point x="64" y="-139" type="curve"/>
      <point x="118" y="-153" type="line"/>
      <point x="121" y="-153"/>
      <point x="122" y="-154"/>
      <point x="122" y="-157" type="curve"/>
      <point x="115" y="-205" type="line" smooth="yes"/>
      <point x="114" y="-211"/>
      <point x="119" y="-214"/>
      <point x="130" y="-214" type="curve" smooth="yes"/>
    </contour>
    <contour>
      <point x="153" y="-134"/>
      <point x="151" y="-132"/>
      <point x="152" y="-128" type="curve"/>
      <point x="172" y="18" type="line"/>
      <point x="173" y="19"/>
      <point x="173" y="20"/>
      <point x="174" y="21" type="curve"/>
      <point x="197" y="8"/>
      <point x="229" y="-28"/>
      <point x="229" y="-55" type="curve" smooth="yes"/>
      <point x="229" y="-110"/>
      <point x="208" y="-131"/>
      <point x="157" y="-134" type="curve"/>
    </contour>
    <contour>
      <point x="152" y="102"/>
      <point x="151" y="102"/>
      <point x="150" y="103" type="curve"/>
      <point x="119" y="124"/>
      <point x="104" y="143"/>
      <point x="104" y="162" type="curve" smooth="yes"/>
      <point x="104" y="199"/>
      <point x="131" y="229"/>
      <point x="168" y="232" type="curve"/>
      <point x="171" y="232"/>
      <point x="173" y="230"/>
      <point x="173" y="227" type="curve"/>
      <point x="156" y="104" type="line"/>
      <point x="156" y="103"/>
      <point x="155" y="102"/>
      <point x="154" y="102" type="curve" smooth="yes"/>
    </contour>
  </outline>
</glyph>
<glyph name="knBHA.base" format="1">
  <advance width="747"/>
  <outline>
    <contour>
      <point x="276" y="-14"/>
      <point x="344" y="43"/>
      <point x="367" y="126" type="curve"/>
      <point x="369" y="126" type="line"/>
      <point x="392" y="43"/>
      <point x="460" y="-14"/>
      <point x="531" y="-14" type="curve" smooth="yes"/>
      <point x="633" y="-14"/>
      <point x="687" y="84"/>
      <point x="687" y="171" type="curve" smooth="yes"/>
      <point x="687" y="360"/>
      <point x="544" y="470"/>
      <point x="408" y="470" type="curve"/>
      <point x="398" y="434" type="line"/>
      <point x="550" y="424"/>
      <point x="649" y="301"/>
      <point x="649" y="203" type="curve" smooth="yes"/>
      <point x="649" y="121"/>
      <point x="600" y="71"/>
      <point x="524" y="71" type="curve" smooth="yes"/>
      <point x="451" y="71"/>
      <point x="385" y="146"/>
      <point x="372" y="221" type="curve"/>
      <point x="363" y="221" type="line"/>
      <point x="349" y="145"/>
      <point x="284" y="71"/>
      <point x="211" y="71" type="curve" smooth="yes"/>
      <point x="158" y="71"/>
      <point x="131" y="114"/>
      <point x="131" y="156" type="curve" smooth="yes"/>
      <point x="131" y="187"/>
      <point x="156" y="223"/>
      <point x="189" y="257" type="curve" smooth="yes"/>
      <point x="229" y="298"/>
      <point x="278" y="349"/>
      <point x="278" y="399" type="curve" smooth="yes"/>
      <point x="278" y="465"/>
      <point x="230" y="519"/>
      <point x="154" y="519" type="curve" smooth="yes"/>
      <point x="79" y="519"/>
      <point x="40" y="465"/>
      <point x="40" y="413" type="curve" smooth="yes"/>
      <point x="40" y="381"/>
      <point x="48" y="352"/>
      <point x="69" y="330" type="curve"/>
      <point x="89" y="345" type="line"/>
      <point x="82" y="360"/>
      <point x="79" y="372"/>
      <point x="79" y="383" type="curve" smooth="yes"/>
      <point x="79" y="421"/>
      <point x="102" y="452"/>
      <point x="154" y="452" type="curve" smooth="yes"/>
      <point x="191" y="452"/>
      <point x="225" y="427"/>
      <point x="225" y="385" type="curve" smooth="yes"/>
      <point x="225" y="344"/>
      <point x="194" y="311"/>
      <point x="162" y="278" type="curve" smooth="yes"/>
      <point x="123" y="238"/>
      <point x="80" y="193"/>
      <point x="80" y="125" type="curve" smooth="yes"/>
      <point x="80" y="38"/>
      <point x="141" y="-14"/>
      <point x="208" y="-14" type="curve" smooth="yes"/>
    </contour>
    <contour>
      <point x="395" y="-220"/>
      <point x="420" y="-201"/>
      <point x="420" y="-161" type="curve" smooth="yes"/>
      <point x="420" y="-117"/>
      <point x="391" y="-104"/>
      <point x="377" y="16" type="curve"/>
      <point x="361" y="16" type="line"/>
      <point x="348" y="-104"/>
      <point x="317" y="-117"/>
      <point x="317" y="-161" type="curve" smooth="yes"/>
      <point x="317" y="-197"/>
      <point x="342" y="-220"/>
      <point x="369" y="-220" type="curve" smooth="yes"/>
    </contour>
    <contour>
      <point x="552" y="434" type="line"/>
      <point x="552" y="509" type="line"/>
      <point x="361" y="509" type="line"/>
      <point x="361" y="434" type="line"/>
    </contour>
  </outline>
</glyph>
<glyph name="knDHAA" format="1">
  <advance width="1134"/>
  <outline>
    <contour>
      <point x="1000" y="-13"/>
      <point x="1074" y="93"/>
      <point x="1074" y="239" type="curve" smooth="yes"/>
      <point x="1074" y="390"/>
      <point x="1004" y="509"/>
      <point x="766" y="509" type="curve" smooth="yes"/>
      <point x="489" y="509" type="line"/>
      <point x="489" y="434" type="line"/>
      <point x="775" y="434" type="line" smooth="yes"/>
      <point x="969" y="434"/>
      <point x="1039" y="346"/>
      <point x="1039" y="236" type="curve" smooth="yes"/>
      <point x="1039" y="130"/>
      <point x="977" y="69"/>
      <point x="887" y="69" type="curve" smooth="yes"/>
      <point x="814" y="69"/>
      <point x="770" y="112"/>
      <point x="769" y="170" type="curve" smooth="yes"/>
      <point x="768" y="212"/>
      <point x="790" y="238"/>
      <point x="802" y="238" type="curve" smooth="yes"/>
      <point x="807" y="238"/>
      <point x="809" y="234"/>
      <point x="808" y="228" type="curve"/>
      <point x="809" y="192"/>
      <point x="830" y="166"/>
      <point x="863" y="166" type="curve" smooth="yes"/>
      <point x="898" y="166"/>
      <point x="924" y="195"/>
      <point x="923" y="231" type="curve"/>
      <point x="924" y="263"/>
      <point x="899" y="300"/>
      <point x="844" y="300" type="curve" smooth="yes"/>
      <point x="772" y="300"/>
      <point x="732" y="236"/>
      <point x="731" y="158" type="curve" smooth="yes"/>
      <point x="732" y="59"/>
      <point x="792" y="-13"/>
      <point x="888" y="-13" type="curve" smooth="yes"/>
    </contour>
    <contour>
      <point x="370" y="-220"/>
      <point x="395" y="-201"/>
      <point x="395" y="-161" type="curve" smooth="yes"/>
      <point x="395" y="-117"/>
      <point x="366" y="-104"/>
      <point x="352" y="16" type="curve"/>
      <point x="336" y="16" type="line"/>
      <point x="323" y="-104"/>
      <point x="292" y="-117"/>
      <point x="292" y="-161" type="curve" smooth="yes"/>
      <point x="292" y="-197"/>
      <point x="317" y="-220"/>
      <point x="344" y="-220" type="curve" smooth="yes"/>
    </contour>
    <contour>
      <point x="253" y="-14"/>
      <point x="321" y="43"/>
      <point x="344" y="126" type="curve"/>
      <point x="346" y="126" type="line"/>
      <point x="369" y="43"/>
      <point x="437" y="-14"/>
      <point x="505" y="-14" type="curve" smooth="yes"/>
      <point x="572" y="-14"/>
      <point x="635" y="33"/>
      <point x="635" y="160" type="curve" smooth="yes"/>
      <point x="635" y="339"/>
      <point x="482" y="467"/>
      <point x="345" y="467" type="curve" smooth="yes"/>
      <point x="208" y="467"/>
      <point x="55" y="339"/>
      <point x="55" y="160" type="curve" smooth="yes"/>
      <point x="55" y="33"/>
      <point x="117" y="-14"/>
      <point x="185" y="-14" type="curve" smooth="yes"/>
    </contour>
    <contour>
      <point x="138" y="71"/>
      <point x="104" y="114"/>
      <point x="104" y="192" type="curve" smooth="yes"/>
      <point x="104" y="300"/>
      <point x="213" y="441"/>
      <point x="345" y="441" type="curve" smooth="yes"/>
      <point x="477" y="441"/>
      <point x="586" y="300"/>
      <point x="586" y="192" type="curve" smooth="yes"/>
      <point x="586" y="114"/>
      <point x="552" y="71"/>
      <point x="495" y="71" type="curve" smooth="yes"/>
      <point x="429" y="71"/>
      <point x="364" y="145"/>
      <point x="350" y="221" type="curve"/>
      <point x="341" y="221" type="line"/>
      <point x="327" y="145"/>
      <point x="261" y="71"/>
      <point x="196" y="71" type="curve" smooth="yes"/>
    </contour>
    <contour>
      <point x="241" y="434" type="line"/>
      <point x="345" y="444" type="line"/>
      <point x="448" y="434" type="line"/>
      <point x="499" y="434" type="line"/>
      <point x="499" y="509" type="line"/>
      <point x="55" y="509" type="line"/>
      <point x="55" y="434" type="line"/>
    </contour>
  </outline>
</glyph>
<glyph name="knDHI" format="1">
  <advance width="708"/>
  <outline>
    <contour>
      <point x="253" y="-14"/>
      <point x="321" y="43"/>
      <point x="344" y="126" type="curve"/>
      <point x="346" y="126" type="line"/>
      <point x="369" y="43"/>
      <point x="437" y="-14"/>
      <point x="505" y="-14" type="curve" smooth="yes"/>
      <point x="572" y="-14"/>
      <point x="635" y="33"/>
      <point x="635" y="160" type="curve" smooth="yes"/>
      <point x="635" y="339"/>
      <point x="482" y="467"/>
      <point x="345" y="467" type="curve" smooth="yes"/>
      <point x="208" y="467"/>
      <point x="55" y="339"/>
      <point x="55" y="160" type="curve" smooth="yes"/>
      <point x="55" y="33"/>
      <point x="117" y="-14"/>
      <point x="185" y="-14" type="curve" smooth="yes"/>
    </contour>
    <contour>
      <point x="370" y="-220"/>
      <point x="395" y="-201"/>
      <point x="395" y="-161" type="curve" smooth="yes"/>
      <point x="395" y="-117"/>
      <point x="366" y="-104"/>
      <point x="352" y="16" type="curve"/>
      <point x="336" y="16" type="line"/>
      <point x="323" y="-104"/>
      <point x="292" y="-117"/>
      <point x="292" y="-161" type="curve" smooth="yes"/>
      <point x="292" y="-197"/>
      <point x="317" y="-220"/>
      <point x="344" y="-220" type="curve" smooth="yes"/>
    </contour>
    <contour>
      <point x="138" y="71"/>
      <point x="104" y="114"/>
      <point x="104" y="192" type="curve" smooth="yes"/>
      <point x="104" y="300"/>
      <point x="213" y="441"/>
      <point x="345" y="441" type="curve" smooth="yes"/>
      <point x="477" y="441"/>
      <point x="586" y="300"/>
      <point x="586" y="192" type="curve" smooth="yes"/>
      <point x="586" y="114"/>
      <point x="552" y="71"/>
      <point x="495" y="71" type="curve" smooth="yes"/>
      <point x="429" y="71"/>
      <point x="364" y="145"/>
      <point x="350" y="221" type="curve"/>
      <point x="341" y="221" type="line"/>
      <point x="327" y="145"/>
      <point x="261" y="71"/>
      <point x="196" y="71" type="curve" smooth="yes"/>
    </contour>
    <contour>
      <point x="611" y="279" type="line"/>
      <point x="557" y="426"/>
      <point x="377" y="644"/>
      <point x="203" y="644" type="curve" smooth="yes"/>
      <point x="117" y="644"/>
      <point x="69" y="599"/>
      <point x="69" y="531" type="curve"/>
      <point x="69" y="435"/>
      <point x="154" y="406"/>
      <point x="238" y="420" type="curve"/>
      <point x="268" y="434" type="line"/>
      <point x="287" y="460" type="line"/>
      <point x="183" y="425"/>
      <point x="147" y="478"/>
      <point x="147" y="526" type="curve"/>
      <point x="147" y="568"/>
      <point x="178" y="595"/>
      <point x="234" y="595" type="curve" smooth="yes"/>
      <point x="332" y="595"/>
      <point x="489" y="471"/>
      <point x="554" y="322" type="curve"/>
    </contour>
  </outline>
</glyph>
<glyph name="knGH" format="1">
  <advance width="1106"/>
  <outline>
    <contour>
      <point x="1040" y="265"/>
      <point x="1073" y="315"/>
      <point x="1073" y="382" type="curve" smooth="yes"/>
      <point x="1073" y="448"/>
      <point x="1030" y="509"/>
      <point x="929" y="509" type="curve" smooth="yes"/>
      <point x="452" y="509" type="line"/>
      <point x="452" y="434" type="line"/>
      <point x="964" y="434" type="line" smooth="yes"/>
      <point x="1027" y="434"/>
      <point x="1043" y="412"/>
      <point x="1043" y="385" type="curve" smooth="yes"/>
      <point x="1043" y="355"/>
      <point x="1027" y="334"/>
      <point x="991" y="334" type="curve" smooth="yes"/>
      <point x="945" y="334"/>
      <point x="920" y="369"/>
      <point x="920" y="410" type="curve" smooth="yes"/>
      <point x="920" y="520"/>
      <point x="1034" y="582"/>
      <point x="1126" y="598" type="curve"/>
      <point x="1115" y="634" type="line"/>
      <point x="1003" y="607"/>
      <point x="882" y="541"/>
      <point x="882" y="406" type="curve" smooth="yes"/>
      <point x="882" y="320"/>
      <point x="931" y="265"/>
      <point x="983" y="265" type="curve" smooth="yes"/>
    </contour>
    <component base="knGHA.base"/>
  </outline>
</glyph>
<glyph name="knGHAA" format="1">
  <advance width="1226"/>
  <outline>
    <contour>
      <point x="1092" y="-13"/>
      <point x="1166" y="93"/>
      <point x="1166" y="239" type="curve" smooth="yes"/>
      <point x="1166" y="390"/>
      <point x="1096" y="509"/>
      <point x="858" y="509" type="curve" smooth="yes"/>
      <point x="481" y="509" type="line"/>
      <point x="481" y="434" type="line"/>
      <point x="867" y="434" type="line" smooth="yes"/>
      <point x="1061" y="434"/>
      <point x="1131" y="346"/>
      <point x="1131" y="236" type="curve" smooth="yes"/>
      <point x="1131" y="130"/>
      <point x="1069" y="69"/>
      <point x="979" y="69" type="curve" smooth="yes"/>
      <point x="906" y="69"/>
      <point x="862" y="112"/>
      <point x="861" y="170" type="curve" smooth="yes"/>
      <point x="860" y="212"/>
      <point x="882" y="238"/>
      <point x="894" y="238" type="curve" smooth="yes"/>
      <point x="899" y="238"/>
      <point x="901" y="234"/>
      <point x="900" y="228" type="curve"/>
      <point x="901" y="192"/>
      <point x="922" y="166"/>
      <point x="955" y="166" type="curve" smooth="yes"/>
      <point x="990" y="166"/>
      <point x="1016" y="195"/>
      <point x="1015" y="231" type="curve"/>
      <point x="1016" y="263"/>
      <point x="991" y="300"/>
      <point x="936" y="300" type="curve" smooth="yes"/>
      <point x="864" y="300"/>
      <point x="824" y="236"/>
      <point x="823" y="158" type="curve" smooth="yes"/>
      <point x="824" y="59"/>
      <point x="884" y="-13"/>
      <point x="980" y="-13" type="curve" smooth="yes"/>
    </contour>
    <contour>
      <point x="370" y="-220"/>
      <point x="395" y="-201"/>
      <point x="395" y="-161" type="curve" smooth="yes"/>
      <point x="395" y="-117"/>
      <point x="366" y="-104"/>
      <point x="352" y="16" type="curve"/>
      <point x="336" y="16" type="line"/>
      <point x="323" y="-104"/>
      <point x="292" y="-117"/>
      <point x="292" y="-161" type="curve" smooth="yes"/>
      <point x="292" y="-197"/>
      <point x="317" y="-220"/>
      <point x="344" y="-220" type="curve" smooth="yes"/>
    </contour>
    <contour>
      <point x="251" y="-14"/>
      <point x="321" y="43"/>
      <point x="344" y="126" type="curve"/>
      <point x="346" y="126" type="line"/>
      <point x="369" y="43"/>
      <point x="438" y="-14"/>
      <point x="506" y="-14" type="curve" smooth="yes"/>
      <point x="598" y="-14"/>
      <point x="635" y="84"/>
      <point x="635" y="174" type="curve" smooth="yes"/>
      <point x="635" y="251"/>
      <point x="618" y="335"/>
      <point x="585" y="390" type="curve"/>
      <point x="562" y="372" type="line"/>
      <point x="582" y="330"/>
      <point x="599" y="270"/>
      <point x="599" y="202" type="curve" smooth="yes"/>
      <point x="599" y="141"/>
      <point x="569" y="71"/>
      <point x="493" y="71" type="curve" smooth="yes"/>
      <point x="428" y="71"/>
      <point x="363" y="145"/>
      <point x="349" y="221" type="curve"/>
      <point x="340" y="221" type="line"/>
      <point x="326" y="145"/>
      <point x="261" y="71"/>
      <point x="186" y="71" type="curve" smooth="yes"/>
      <point x="135" y="71"/>
      <point x="100" y="104"/>
      <point x="100" y="156" type="curve" smooth="yes"/>
      <point x="100" y="201"/>
      <point x="129" y="227"/>
      <point x="166" y="227" type="curve" smooth="yes"/>
      <point x="196" y="227"/>
      <point x="221" y="217"/>
      <point x="232" y="193" type="curve"/>
      <point x="248" y="208" type="line"/>
      <point x="235" y="250"/>
      <point x="211" y="287"/>
      <point x="163" y="287" type="curve" smooth="yes"/>
      <point x="103" y="287"/>
      <point x="60" y="232"/>
      <point x="60" y="143" type="curve" smooth="yes"/>
      <point x="60" y="56"/>
      <point x="109" y="-14"/>
      <point x="183" y="-14" type="curve" smooth="yes"/>
    </contour>
    <contour>
      <point x="376" y="271"/>
      <point x="403" y="298"/>
      <point x="403" y="331" type="curve" smooth="yes"/>
      <point x="403" y="363"/>
      <point x="376" y="390"/>
      <point x="343" y="390" type="curve" smooth="yes"/>
      <point x="309" y="390"/>
      <point x="284" y="363"/>
      <point x="284" y="331" type="curve" smooth="yes"/>
      <point x="284" y="298"/>
      <point x="309" y="271"/>
      <point x="343" y="271" type="curve" smooth="yes"/>
    </contour>
    <contour>
      <point x="551" y="434" type="line"/>
      <point x="551" y="509" type="line"/>
      <point x="60" y="509" type="line"/>
      <point x="60" y="434" type="line"/>
    </contour>
    <contour>
      <point x="766" y="201"/>
      <point x="806" y="248"/>
      <point x="806" y="308" type="curve" smooth="yes"/>
      <point x="806" y="362"/>
      <point x="777" y="411"/>
      <point x="715" y="449" type="curve"/>
      <point x="696" y="429" type="line"/>
      <point x="739" y="399"/>
      <point x="757" y="367"/>
      <point x="757" y="337" type="curve" smooth="yes"/>
      <point x="757" y="301"/>
      <point x="736" y="275"/>
      <point x="703" y="275" type="curve" smooth="yes"/>
      <point x="662" y="275"/>
      <point x="629" y="298"/>
      <point x="585" y="390" type="curve"/>
      <point x="579" y="372" type="line"/>
      <point x="619" y="228"/>
      <point x="660" y="201"/>
      <point x="716" y="201" type="curve" smooth="yes"/>
    </contour>
  </outline>
</glyph>
<glyph name="knGHAc2" format="1">
  <advance width="103"/>
  <outline>
    <contour>
      <point x="255" y="-297"/>
      <point x="281" y="-273"/>
      <point x="281" y="-223" type="curve" smooth="yes"/>
      <point x="281" y="-184"/>
      <point x="261" y="-144"/>
      <point x="218" y="-121" type="curve"/>
      <point x="204" y="-138" type="line"/>
      <point x="233" y="-160"/>
      <point x="246" y="-181"/>
      <point x="246" y="-205" type="curve" smooth="yes"/>
      <point x="246" y="-231"/>
      <point x="238" y="-245"/>
      <point x="213" y="-245" type="curve" smooth="yes"/>
      <point x="180" y="-245"/>
      <point x="158" y="-231"/>
      <point x="128" y="-166" type="curve"/>
      <point x="124" y="-177" type="line"/>
      <point x="153" y="-278"/>
      <point x="182" y="-297"/>
      <point x="218" y="-297" type="curve" smooth="yes"/>
    </contour>
    <contour>
      <point x="0" y="33"/>
      <point x="-8" y="26"/>
      <point x="-8" y="12" type="curve" smooth="yes"/>
      <point x="-8" y="-1"/>
      <point x="-1" y="-6"/>
      <point x="10" y="-16" type="curve" smooth="yes"/>
      <point x="28" y="-30"/>
      <point x="116" y="-121"/>
      <point x="116" y="-262" type="curve" smooth="yes"/>
      <point x="116" y="-321"/>
      <point x="97" y="-377"/>
      <point x="41" y="-377" type="curve" smooth="yes"/>
      <point x="-6" y="-377"/>
      <point x="-45" y="-321"/>
      <point x="-55" y="-268" type="curve"/>
      <point x="-69" y="-268" type="line"/>
      <point x="-79" y="-321"/>
      <point x="-122" y="-377"/>
      <point x="-173" y="-377" type="curve" smooth="yes"/>
      <point x="-209" y="-377"/>
      <point x="-232" y="-357"/>
      <point x="-232" y="-317" type="curve" smooth="yes"/>
      <point x="-232" y="-280"/>
      <point x="-213" y="-263"/>
      <point x="-186" y="-263" type="curve" smooth="yes"/>
      <point x="-166" y="-263"/>
      <point x="-153" y="-275"/>
      <point x="-144" y="-292" type="curve"/>
      <point x="-127" y="-279" type="line"/>
      <point x="-135" y="-249"/>
      <point x="-155" y="-223"/>
      <point x="-188" y="-223" type="curve" smooth="yes"/>
      <point x="-238" y="-223"/>
      <point x="-260" y="-255"/>
      <point x="-260" y="-321" type="curve" smooth="yes"/>
      <point x="-260" y="-387"/>
      <point x="-233" y="-431"/>
      <point x="-174" y="-431" type="curve" smooth="yes"/>
      <point x="-128" y="-431"/>
      <point x="-79" y="-399"/>
      <point x="-65" y="-343" type="curve"/>
      <point x="-59" y="-343" type="line"/>
      <point x="-45" y="-399"/>
      <point x="4" y="-431"/>
      <point x="50" y="-431" type="curve" smooth="yes"/>
      <point x="113" y="-431"/>
      <point x="139" y="-362"/>
      <point x="139" y="-282" type="curve" smooth="yes"/>
      <point x="139" y="-78"/>
      <point x="52" y="33"/>
      <point x="15" y="33" type="curve" smooth="yes"/>
    </contour>
    <contour>
      <point x="-47" y="-564"/>
      <point x="-31" y="-553"/>
      <point x="-31" y="-531" type="curve" smooth="yes"/>
      <point x="-31" y="-502"/>
      <point x="-46" y="-490"/>
      <point x="-55" y="-416" type="curve"/>
      <point x="-70" y="-416" type="line"/>
      <point x="-78" y="-490"/>
      <point x="-97" y="-502"/>
      <point x="-97" y="-531" type="curve" smooth="yes"/>
      <point x="-97" y="-549"/>
      <point x="-78" y="-564"/>
      <point x="-62" y="-564" type="curve" smooth="yes"/>
    </contour>
  </outline>
</glyph>
<glyph name="knGI" format="1">
  <advance width="614"/>
  <outline>
    <contour>
      <point x="530" y="295"/>
      <point x="373" y="644"/>
      <point x="179" y="644" type="curve" smooth="yes"/>
      <point x="103" y="644"/>
      <point x="55" y="599"/>
      <point x="55" y="531" type="curve"/>
      <point x="55" y="435"/>
      <point x="140" y="406"/>
      <point x="224" y="420" type="curve"/>
      <point x="254" y="434" type="line"/>
      <point x="273" y="460" type="line"/>
      <point x="169" y="425"/>
      <point x="133" y="478"/>
      <point x="133" y="526" type="curve"/>
      <point x="133" y="569"/>
      <point x="164" y="595"/>
      <point x="206" y="595" type="curve" smooth="yes"/>
      <point x="278" y="595"/>
      <point x="381" y="510"/>
      <point x="466" y="297" type="curve"/>
      <point x="503" y="128" type="line"/>
      <point x="545" y="113" type="line"/>
    </contour>
    <contour>
      <point x="153" y="0" type="line"/>
      <point x="153" y="78" type="line" smooth="yes"/>
      <point x="153" y="247"/>
      <point x="207" y="438"/>
      <point x="312" y="438" type="curve"/>
      <point x="417" y="438"/>
      <point x="471" y="247"/>
      <point x="471" y="78" type="curve" smooth="yes"/>
      <point x="471" y="0" type="line"/>
      <point x="549" y="0" type="line"/>
      <point x="549" y="41" type="line" smooth="yes"/>
      <point x="549" y="226"/>
      <point x="457" y="466"/>
      <point x="312" y="466" type="curve"/>
      <point x="167" y="466"/>
      <point x="75" y="226"/>
      <point x="75" y="41" type="curve" smooth="yes"/>
      <point x="75" y="0" type="line"/>
    </contour>
  </outline>
</glyph>
<glyph name="knHAc2.following" format="1">
  <advance width="353"/>
  <outline>
    <contour>
      <point x="-119" y="-341"/>
      <point x="-83" y="-308"/>
      <point x="-65" y="-255" type="curve"/>
      <point x="-67" y="-153" type="line"/>
      <point x="-86" y="-114"/>
      <point x="-116" y="-86"/>
      <point x="-168" y="-86" type="curve" smooth="yes"/>
      <point x="-239" y="-86"/>
      <point x="-290" y="-138"/>
      <point x="-290" y="-211" type="curve" smooth="yes"/>
      <point x="-290" y="-285"/>
      <point x="-239" y="-341"/>
      <point x="-171" y="-341" type="curve" smooth="yes"/>
    </contour>
    <contour>
      <point x="-225" y="-280"/>
      <point x="-254" y="-255"/>
      <point x="-254" y="-200" type="curve" smooth="yes"/>
      <point x="-254" y="-154"/>
      <point x="-223" y="-121"/>
      <point x="-168" y="-121" type="curve" smooth="yes"/>
      <point x="-122" y="-121"/>
      <point x="-84" y="-149"/>
      <point x="-84" y="-200" type="curve" smooth="yes"/>
      <point x="-84" y="-251"/>
      <point x="-124" y="-280"/>
      <point x="-170" y="-280" type="curve" smooth="yes"/>
    </contour>
    <contour>
      <point x="101" y="-341"/>
      <point x="152" y="-285"/>
      <point x="152" y="-211" type="curve" smooth="yes"/>
      <point x="152" y="-138"/>
      <point x="101" y="-86"/>
      <point x="30" y="-86" type="curve" smooth="yes"/>
      <point x="-22" y="-86"/>
      <point x="-52" y="-114"/>
      <point x="-71" y="-153" type="curve"/>
      <point x="-73" y="-255" type="line"/>
      <point x="-55" y="-308"/>
      <point x="-19" y="-341"/>
      <point x="33" y="-341" type="curve" smooth="yes"/>
    </contour>
    <contour>
      <point x="-14" y="-280"/>
      <point x="-54" y="-251"/>
      <point x="-54" y="-200" type="curve" smooth="yes"/>
      <point x="-54" y="-149"/>
      <point x="-16" y="-121"/>
      <point x="30" y="-121" type="curve" smooth="yes"/>
      <point x="85" y="-121"/>
      <point x="116" y="-154"/>
      <point x="116" y="-200" type="curve" smooth="yes"/>
      <point x="116" y="-255"/>
      <point x="87" y="-280"/>
      <point x="32" y="-280" type="curve" smooth="yes"/>
    </contour>
  </outline>
</glyph>
<glyph name="knJAA" format="1">
  <advance width="1162"/>
  <outline>
    <contour>
      <point x="276" y="-14"/>
      <point x="344" y="43"/>
      <point x="367" y="126" type="curve"/>
      <point x="369" y="126" type="line"/>
      <point x="392" y="43"/>
      <point x="460" y="-14"/>
      <point x="528" y="-14" type="curve" smooth="yes"/>
      <point x="594" y="-14"/>
      <point x="655" y="38"/>
      <point x="655" y="125" type="curve" smooth="yes"/>
      <point x="655" y="172"/>
      <point x="626" y="222"/>
      <point x="592" y="251" type="curve"/>
      <point x="571" y="236" type="line"/>
      <point x="595" y="212"/>
      <point x="607" y="183"/>
      <point x="607" y="154" type="curve" smooth="yes"/>
      <point x="607" y="116"/>
      <point x="582" y="71"/>
      <point x="524" y="71" type="curve" smooth="yes"/>
      <point x="451" y="71"/>
      <point x="385" y="146"/>
      <point x="372" y="221" type="curve"/>
      <point x="363" y="221" type="line"/>
      <point x="349" y="145"/>
      <point x="284" y="71"/>
      <point x="211" y="71" type="curve" smooth="yes"/>
      <point x="158" y="71"/>
      <point x="131" y="114"/>
      <point x="131" y="156" type="curve" smooth="yes"/>
      <point x="131" y="187"/>
      <point x="155" y="223"/>
      <point x="189" y="257" type="curve" smooth="yes"/>
      <point x="230" y="298"/>
      <point x="278" y="349"/>
      <point x="278" y="399" type="curve" smooth="yes"/>
      <point x="278" y="465"/>
      <point x="230" y="519"/>
      <point x="154" y="519" type="curve" smooth="yes"/>
      <point x="79" y="519"/>
      <point x="40" y="465"/>
      <point x="40" y="413" type="curve" smooth="yes"/>
      <point x="40" y="381"/>
      <point x="48" y="352"/>
      <point x="69" y="330" type="curve"/>
      <point x="89" y="345" type="line"/>
      <point x="82" y="360"/>
      <point x="79" y="372"/>
      <point x="79" y="383" type="curve" smooth="yes"/>
      <point x="79" y="421"/>
      <point x="102" y="452"/>
      <point x="154" y="452" type="curve" smooth="yes"/>
      <point x="191" y="452"/>
      <point x="225" y="427"/>
      <point x="225" y="385" type="curve" smooth="yes"/>
      <point x="225" y="344"/>
      <point x="194" y="311"/>
      <point x="162" y="278" type="curve" smooth="yes"/>
      <point x="123" y="238"/>
      <point x="80" y="193"/>
      <point x="80" y="125" type="curve" smooth="yes"/>
      <point x="80" y="38"/>
      <point x="141" y="-14"/>
      <point x="208" y="-14" type="curve" smooth="yes"/>
    </contour>
    <contour>
      <point x="544" y="287"/>
      <point x="597" y="339"/>
      <point x="597" y="414" type="curve" smooth="yes"/>
      <point x="597" y="458"/>
      <point x="593" y="453"/>
      <point x="556" y="486" type="curve"/>
      <point x="537" y="469" type="line"/>
      <point x="562" y="444"/>
      <point x="555" y="469"/>
      <point x="555" y="443" type="curve" smooth="yes"/>
      <point x="555" y="387"/>
      <point x="515" y="360"/>
      <point x="461" y="360" type="curve" smooth="yes"/>
      <point x="395" y="360"/>
      <point x="325" y="393"/>
      <point x="246" y="480" type="curve"/>
      <point x="214" y="477" type="line"/>
      <point x="301" y="356"/>
      <point x="387" y="287"/>
      <point x="479" y="287" type="curve" smooth="yes"/>
    </contour>
    <contour>
      <point x="1028" y="-13"/>
      <point x="1102" y="93"/>
      <point x="1102" y="239" type="curve" smooth="yes"/>
      <point x="1102" y="390"/>
      <point x="1032" y="509"/>
      <point x="794" y="509" type="curve" smooth="yes"/>
      <point x="427" y="509" type="line"/>
      <point x="427" y="434" type="line"/>
      <point x="803" y="434" type="line" smooth="yes"/>
      <point x="997" y="434"/>
      <point x="1067" y="346"/>
      <point x="1067" y="236" type="curve" smooth="yes"/>
      <point x="1067" y="130"/>
      <point x="1005" y="69"/>
      <point x="915" y="69" type="curve" smooth="yes"/>
      <point x="842" y="69"/>
      <point x="798" y="112"/>
      <point x="797" y="170" type="curve" smooth="yes"/>
      <point x="796" y="212"/>
      <point x="818" y="238"/>
      <point x="830" y="238" type="curve" smooth="yes"/>
      <point x="835" y="238"/>
      <point x="837" y="234"/>
      <point x="836" y="228" type="curve"/>
      <point x="837" y="192"/>
      <point x="858" y="166"/>
      <point x="891" y="166" type="curve" smooth="yes"/>
      <point x="926" y="166"/>
      <point x="952" y="195"/>
      <point x="951" y="231" type="curve"/>
      <point x="952" y="263"/>
      <point x="927" y="300"/>
      <point x="872" y="300" type="curve" smooth="yes"/>
      <point x="800" y="300"/>
      <point x="760" y="236"/>
      <point x="759" y="158" type="curve" smooth="yes"/>
      <point x="760" y="59"/>
      <point x="820" y="-13"/>
      <point x="916" y="-13" type="curve" smooth="yes"/>
    </contour>
  </outline>
</glyph>
<glyph name="knJE" format="1">
  <advance width="737"/>
  <outline>
    <contour>
      <point x="276" y="-14"/>
      <point x="344" y="43"/>
      <point x="367" y="126" type="curve"/>
      <point x="369" y="126" type="line"/>
      <point x="392" y="43"/>
      <point x="460" y="-14"/>
      <point x="528" y="-14" type="curve" smooth="yes"/>
      <point x="594" y="-14"/>
      <point x="655" y="38"/>
      <point x="655" y="125" type="curve" smooth="yes"/>
      <point x="655" y="172"/>
      <point x="626" y="222"/>
      <point x="592" y="251" type="curve"/>
      <point x="571" y="236" type="line"/>
      <point x="595" y="212"/>
      <point x="607" y="183"/>
      <point x="607" y="154" type="curve" smooth="yes"/>
      <point x="607" y="116"/>
      <point x="582" y="71"/>
      <point x="524" y="71" type="curve" smooth="yes"/>
      <point x="451" y="71"/>
      <point x="385" y="146"/>
      <point x="372" y="221" type="curve"/>
      <point x="363" y="221" type="line"/>
      <point x="349" y="145"/>
      <point x="284" y="71"/>
      <point x="211" y="71" type="curve" smooth="yes"/>
      <point x="158" y="71"/>
      <point x="131" y="114"/>
      <point x="131" y="156" type="curve" smooth="yes"/>
      <point x="131" y="187"/>
      <point x="155" y="223"/>
      <point x="189" y="257" type="curve" smooth="yes"/>
      <point x="230" y="298"/>
      <point x="278" y="349"/>
      <point x="278" y="399" type="curve" smooth="yes"/>
      <point x="278" y="465"/>
      <point x="230" y="519"/>
      <point x="154" y="519" type="curve" smooth="yes"/>
      <point x="79" y="519"/>
      <point x="40" y="465"/>
      <point x="40" y="413" type="curve" smooth="yes"/>
      <point x="40" y="381"/>
      <point x="48" y="352"/>
      <point x="69" y="330" type="curve"/>
      <point x="89" y="345" type="line"/>
      <point x="82" y="360"/>
      <point x="79" y="372"/>
      <point x="79" y="383" type="curve" smooth="yes"/>
      <point x="79" y="421"/>
      <point x="102" y="452"/>
      <point x="154" y="452" type="curve" smooth="yes"/>
      <point x="191" y="452"/>
      <point x="225" y="427"/>
      <point x="225" y="385" type="curve" smooth="yes"/>
      <point x="225" y="344"/>
      <point x="194" y="311"/>
      <point x="162" y="278" type="curve" smooth="yes"/>
      <point x="123" y="238"/>
      <point x="80" y="193"/>
      <point x="80" y="125" type="curve" smooth="yes"/>
      <point x="80" y="38"/>
      <point x="141" y="-14"/>
      <point x="208" y="-14" type="curve" smooth="yes"/>
    </contour>
    <contour>
      <point x="544" y="287"/>
      <point x="597" y="339"/>
      <point x="597" y="414" type="curve" smooth="yes"/>
      <point x="597" y="458"/>
      <point x="575" y="483"/>
      <point x="538" y="496" type="curve"/>
      <point x="519" y="479" type="line"/>
      <point x="544" y="474"/>
      <point x="555" y="459"/>
      <point x="555" y="443" type="curve" smooth="yes"/>
      <point x="555" y="387"/>
      <point x="515" y="360"/>
      <point x="461" y="360" type="curve" smooth="yes"/>
      <point x="395" y="360"/>
      <point x="325" y="393"/>
      <point x="246" y="480" type="curve"/>
      <point x="214" y="477" type="line"/>
      <point x="301" y="356"/>
      <point x="387" y="287"/>
      <point x="479" y="287" type="curve" smooth="yes"/>
    </contour>
    <contour>
      <point x="643" y="434"/>
      <point x="697" y="480"/>
      <point x="697" y="553" type="curve" smooth="yes"/>
      <point x="697" y="651"/>
      <point x="619" y="685"/>
      <point x="562" y="685" type="curve" smooth="yes"/>
      <point x="507" y="685"/>
      <point x="479" y="657"/>
      <point x="479" y="625" type="curve" smooth="yes"/>
      <point x="479" y="592"/>
      <point x="502" y="571"/>
      <point x="536" y="571" type="curve" smooth="yes"/>
      <point x="570" y="571"/>
      <point x="591" y="597"/>
      <point x="591" y="633" type="curve" smooth="yes"/>
      <point x="591" y="639"/>
      <point x="593" y="643"/>
      <point x="597" y="643" type="curve" smooth="yes"/>
      <point x="610" y="643"/>
      <point x="654" y="629"/>
      <point x="654" y="577" type="curve"/>
      <point x="654" y="530"/>
      <point x="614" y="509"/>
      <point x="563" y="509" type="curve"/>
      <point x="448" y="509" type="line"/>
      <point x="448" y="434" type="line"/>
      <point x="562" y="434" type="line"/>
    </contour>
  </outline>
</glyph>
<glyph name="knJHAU" format="1">
  <advance width="1679"/>
  <outline>
    <contour>
      <point x="1530" y="186"/>
      <point x="1604" y="292"/>
      <point x="1604" y="438" type="curve" smooth="yes"/>
      <point x="1604" y="601"/>
      <point x="1515" y="709"/>
      <point x="1295" y="709" type="curve" smooth="yes"/>
      <point x="950" y="709" type="line"/>
      <point x="950" y="634" type="line"/>
      <point x="1316" y="634" type="line" smooth="yes"/>
      <point x="1471" y="634"/>
      <point x="1569" y="555"/>
      <point x="1569" y="435" type="curve" smooth="yes"/>
      <point x="1569" y="329"/>
      <point x="1507" y="268"/>
      <point x="1417" y="268" type="curve" smooth="yes"/>
      <point x="1344" y="268"/>
      <point x="1300" y="311"/>
      <point x="1299" y="369" type="curve" smooth="yes"/>
      <point x="1298" y="411"/>
      <point x="1320" y="437"/>
      <point x="1332" y="437" type="curve" smooth="yes"/>
      <point x="1337" y="437"/>
      <point x="1339" y="433"/>
      <point x="1338" y="427" type="curve"/>
      <point x="1339" y="391"/>
      <point x="1360" y="365"/>
      <point x="1393" y="365" type="curve" smooth="yes"/>
      <point x="1428" y="365"/>
      <point x="1454" y="394"/>
      <point x="1453" y="430" type="curve"/>
      <point x="1454" y="462"/>
      <point x="1429" y="499"/>
      <point x="1374" y="499" type="curve" smooth="yes"/>
      <point x="1302" y="499"/>
      <point x="1262" y="435"/>
      <point x="1261" y="357" type="curve" smooth="yes"/>
      <point x="1262" y="258"/>
      <point x="1322" y="186"/>
      <point x="1418" y="186" type="curve" smooth="yes"/>
    </contour>
    <contour>
      <point x="1051" y="434" type="line" smooth="yes"/>
      <point x="1132" y="434"/>
      <point x="1186" y="480"/>
      <point x="1186" y="552" type="curve" smooth="yes"/>
      <point x="1186" y="607"/>
      <point x="1155" y="648"/>
      <point x="1112" y="664" type="curve"/>
      <point x="1097" y="644" type="line"/>
      <point x="1121" y="635"/>
      <point x="1143" y="610"/>
      <point x="1143" y="576" type="curve" smooth="yes"/>
      <point x="1143" y="536"/>
      <point x="1112" y="509"/>
      <point x="1051" y="509" type="curve" smooth="yes"/>
      <point x="1004" y="509" type="line"/>
      <point x="1004" y="434" type="line"/>
    </contour>
    <component base="knJHA.base"/>
  </outline>
</glyph>
<glyph name="knJHAc2" format="1">
  <advance width="0"/>
  <outline>
    <contour>
      <point x="57" y="-431"/>
      <point x="112" y="-362"/>
      <point x="112" y="-269" type="curve" smooth="yes"/>
      <point x="112" y="-156"/>
      <point x="47" y="-94"/>
      <point x="3" y="-94" type="curve" smooth="yes"/>
      <point x="-18" y="-94"/>
      <point x="-29" y="-106"/>
      <point x="-29" y="-121" type="curve" smooth="yes"/>
      <point x="-29" y="-133"/>
      <point x="-20" y="-144"/>
      <point x="-10" y="-146" type="curve" smooth="yes"/>
      <point x="4" y="-150"/>
      <point x="18" y="-148"/>
      <point x="33" y="-153" type="curve" smooth="yes"/>
      <point x="56" y="-161"/>
      <point x="87" y="-200"/>
      <point x="87" y="-262" type="curve" smooth="yes"/>
      <point x="87" y="-335"/>
      <point x="41" y="-377"/>
      <point x="-14" y="-377" type="curve" smooth="yes"/>
      <point x="-62" y="-377"/>
      <point x="-91" y="-356"/>
      <point x="-110" y="-292" type="curve"/>
      <point x="-128" y="-303" type="line"/>
      <point x="-116" y="-385"/>
      <point x="-69" y="-431"/>
      <point x="-14" y="-431" type="curve" smooth="yes"/>
    </contour>
    <contour>
      <point x="270" y="-431"/>
      <point x="323" y="-362"/>
      <point x="323" y="-269" type="curve" smooth="yes"/>
      <point x="323" y="-156"/>
      <point x="259" y="-94"/>
      <point x="215" y="-94" type="curve" smooth="yes"/>
      <point x="196" y="-94"/>
      <point x="185" y="-106"/>
      <point x="185" y="-121" type="curve" smooth="yes"/>
      <point x="185" y="-133"/>
      <point x="191" y="-144"/>
      <point x="202" y="-146" type="curve" smooth="yes"/>
      <point x="216" y="-150"/>
      <point x="230" y="-148"/>
      <point x="244" y="-153" type="curve" smooth="yes"/>
      <point x="267" y="-161"/>
      <point x="297" y="-200"/>
      <point x="297" y="-262" type="curve" smooth="yes"/>
      <point x="297" y="-335"/>
      <point x="253" y="-377"/>
      <point x="199" y="-377" type="curve" smooth="yes"/>
      <point x="150" y="-377"/>
      <point x="122" y="-356"/>
      <point x="103" y="-292" type="curve"/>
      <point x="85" y="-303" type="line"/>
      <point x="97" y="-385"/>
      <point x="144" y="-431"/>
      <point x="207" y="-431" type="curve" smooth="yes"/>
    </contour>
    <contour>
      <point x="111" y="-564"/>
      <point x="127" y="-553"/>
      <point x="127" y="-528" type="curve" smooth="yes"/>
      <point x="127" y="-499"/>
      <point x="109" y="-493"/>
      <point x="101" y="-416" type="curve"/>
      <point x="90" y="-416" type="line"/>
      <point x="83" y="-493"/>
      <point x="62" y="-499"/>
      <point x="62" y="-528" type="curve" smooth="yes"/>
      <point x="62" y="-549"/>
      <point x="78" y="-564"/>
      <point x="95" y="-564" type="curve" smooth="yes"/>
    </contour>
    <contour>
      <point x="-141" y="-432"/>
      <point x="-85" y="-363"/>
      <point x="-85" y="-279" type="curve" smooth="yes"/>
      <point x="-85" y="-186"/>
      <point x="-144" y="-121"/>
      <point x="-239" y="-121" type="curve" smooth="yes"/>
      <point x="-332" y="-121"/>
      <point x="-391" y="-186"/>
      <point x="-391" y="-279" type="curve" smooth="yes"/>
      <point x="-391" y="-363"/>
      <point x="-334" y="-432"/>
      <point x="-239" y="-432" type="curve" smooth="yes"/>
    </contour>
    <contour>
      <point x="-308" y="-377"/>
      <point x="-353" y="-330"/>
      <point x="-353" y="-265" type="curve" smooth="yes"/>
      <point x="-353" y="-194"/>
      <point x="-305" y="-154"/>
      <point x="-239" y="-154" type="curve" smooth="yes"/>
      <point x="-172" y="-154"/>
      <point x="-122" y="-194"/>
      <point x="-122" y="-265" type="curve" smooth="yes"/>
      <point x="-122" y="-330"/>
      <point x="-169" y="-377"/>
      <point x="-239" y="-377" type="curve" smooth="yes"/>
    </contour>
  </outline>
</glyph>
<glyph name="knKA.base" format="1">
  <advance width="525"/>
  <outline>
    <contour>
      <point x="363" y="-14"/>
      <point x="436" y="64"/>
      <point x="436" y="159" type="curve" smooth="yes"/>
      <point x="436" y="249"/>
      <point x="363" y="327"/>
      <point x="269" y="327" type="curve" smooth="yes"/>
      <point x="172" y="327"/>
      <point x="99" y="249"/>
      <point x="99" y="159" type="curve" smooth="yes"/>
      <point x="99" y="64"/>
      <point x="172" y="-14"/>
      <point x="269" y="-14" type="curve" smooth="yes"/>
    </contour>
    <contour>
      <point x="197" y="71"/>
      <point x="147" y="117"/>
      <point x="147" y="186" type="curve" smooth="yes"/>
      <point x="147" y="252"/>
      <point x="206" y="297"/>
      <point x="269" y="297" type="curve" smooth="yes"/>
      <point x="331" y="297"/>
      <point x="389" y="252"/>
      <point x="389" y="186" type="curve" smooth="yes"/>
      <point x="389" y="117"/>
      <point x="340" y="71"/>
      <point x="269" y="71" type="curve" smooth="yes"/>
    </contour>
    <contour>
      <point x="213" y="294" type="line"/>
      <point x="269" y="306" type="line"/>
      <point x="328" y="294" type="line"/>
      <point x="480" y="294" type="line"/>
      <point x="480" y="360" type="line"/>
      <point x="55" y="360" type="line"/>
      <point x="55" y="294" type="line"/>
    </contour>
    <contour>
      <point x="279" y="331"/>
      <point x="296" y="364"/>
      <point x="296" y="401" type="curve" smooth="yes"/>
      <point x="296" y="438"/>
      <point x="279" y="471"/>
      <point x="239" y="488" type="curve"/>
      <point x="226" y="465" type="line"/>
      <point x="250" y="453"/>
      <point x="262" y="430"/>
      <point x="262" y="401" type="curve" smooth="yes"/>
      <point x="262" y="372"/>
      <point x="246" y="350"/>
      <point x="222" y="337" type="curve"/>
      <point x="239" y="314" type="line"/>
    </contour>
    <contour>
      <point x="345" y="434" type="line"/>
      <point x="345" y="509" type="line"/>
      <point x="55" y="509" type="line"/>
      <point x="55" y="434" type="line"/>
    </contour>
  </outline>
</glyph>
<glyph name="knKAA" format="1">
  <advance width="940"/>
  <outline>
    <contour>
      <point x="806" y="-13"/>
      <point x="880" y="93"/>
      <point x="880" y="239" type="curve" smooth="yes"/>
      <point x="880" y="390"/>
      <point x="810" y="509"/>
      <point x="572" y="509" type="curve" smooth="yes"/>
      <point x="295" y="509" type="line"/>
      <point x="295" y="434" type="line"/>
      <point x="581" y="434" type="line" smooth="yes"/>
      <point x="775" y="434"/>
      <point x="845" y="346"/>
      <point x="845" y="236" type="curve" smooth="yes"/>
      <point x="845" y="130"/>
      <point x="783" y="69"/>
      <point x="693" y="69" type="curve" smooth="yes"/>
      <point x="620" y="69"/>
      <point x="576" y="112"/>
      <point x="575" y="170" type="curve" smooth="yes"/>
      <point x="574" y="212"/>
      <point x="596" y="238"/>
      <point x="608" y="238" type="curve" smooth="yes"/>
      <point x="613" y="238"/>
      <point x="615" y="234"/>
      <point x="614" y="228" type="curve"/>
      <point x="615" y="192"/>
      <point x="636" y="166"/>
      <point x="669" y="166" type="curve" smooth="yes"/>
      <point x="704" y="166"/>
      <point x="730" y="195"/>
      <point x="729" y="231" type="curve"/>
      <point x="730" y="263"/>
      <point x="705" y="300"/>
      <point x="650" y="300" type="curve" smooth="yes"/>
      <point x="578" y="300"/>
      <point x="538" y="236"/>
      <point x="537" y="158" type="curve" smooth="yes"/>
      <point x="538" y="59"/>
      <point x="598" y="-13"/>
      <point x="694" y="-13" type="curve" smooth="yes"/>
    </contour>
    <contour>
      <point x="363" y="-14"/>
      <point x="436" y="64"/>
      <point x="436" y="159" type="curve" smooth="yes"/>
      <point x="436" y="249"/>
      <point x="363" y="327"/>
      <point x="269" y="327" type="curve" smooth="yes"/>
      <point x="172" y="327"/>
      <point x="99" y="249"/>
      <point x="99" y="159" type="curve" smooth="yes"/>
      <point x="99" y="64"/>
      <point x="172" y="-14"/>
      <point x="269" y="-14" type="curve" smooth="yes"/>
    </contour>
    <contour>
      <point x="197" y="71"/>
      <point x="147" y="117"/>
      <point x="147" y="186" type="curve" smooth="yes"/>
      <point x="147" y="252"/>
      <point x="206" y="297"/>
      <point x="269" y="297" type="curve" smooth="yes"/>
      <point x="331" y="297"/>
      <point x="389" y="252"/>
      <point x="389" y="186" type="curve" smooth="yes"/>
      <point x="389" y="117"/>
      <point x="340" y="71"/>
      <point x="269" y="71" type="curve" smooth="yes"/>
    </contour>
    <contour>
      <point x="213" y="294" type="line"/>
      <point x="269" y="306" type="line"/>
      <point x="328" y="294" type="line"/>
      <point x="480" y="294" type="line"/>
      <point x="480" y="360" type="line"/>
      <point x="55" y="360" type="line"/>
      <point x="55" y="294" type="line"/>
    </contour>
    <contour>
      <point x="279" y="331"/>
      <point x="296" y="364"/>
      <point x="296" y="401" type="curve" smooth="yes"/>
      <point x="296" y="438"/>
      <point x="279" y="471"/>
      <point x="239" y="488" type="curve"/>
      <point x="226" y="465" type="line"/>
      <point x="250" y="453"/>
      <point x="262" y="430"/>
      <point x="262" y="401" type="curve" smooth="yes"/>
      <point x="262" y="372"/>
      <point x="246" y="350"/>
      <point x="222" y="337" type="curve"/>
      <point x="239" y="314" type="line"/>
    </contour>
    <contour>
      <point x="345" y="434" type="line"/>
      <point x="345" y="509" type="line"/>
      <point x="55" y="509" type="line"/>
      <point x="55" y="434" type="line"/>
    </contour>
    <contour>
      <point x="300" y="0" type="move" name="blwm.kssa"/>
    </contour>
  </outline>
</glyph>
<glyph name="knKI" format="1">
  <advance width="535"/>
  <outline>
    <contour>
      <point x="363" y="-14"/>
      <point x="436" y="64"/>
      <point x="436" y="159" type="curve" smooth="yes"/>
      <point x="436" y="249"/>
      <point x="363" y="327"/>
      <point x="269" y="327" type="curve" smooth="yes"/>
      <point x="172" y="327"/>
      <point x="99" y="249"/>
      <point x="99" y="159" type="curve" smooth="yes"/>
      <point x="99" y="64"/>
      <point x="172" y="-14"/>
      <point x="269" y="-14" type="curve" smooth="yes"/>
    </contour>
    <contour>
      <point x="197" y="71"/>
      <point x="147" y="117"/>
      <point x="147" y="186" type="curve" smooth="yes"/>
      <point x="147" y="252"/>
      <point x="206" y="297"/>
      <point x="269" y="297" type="curve" smooth="yes"/>
      <point x="331" y="297"/>
      <point x="389" y="252"/>
      <point x="389" y="186" type="curve" smooth="yes"/>
      <point x="389" y="117"/>
      <point x="340" y="71"/>
      <point x="269" y="71" type="curve" smooth="yes"/>
    </contour>
    <contour>
      <point x="213" y="294" type="line"/>
      <point x="269" y="306" type="line"/>
      <point x="328" y="294" type="line"/>
      <point x="480" y="294" type="line"/>
      <point x="480" y="360" type="line"/>
      <point x="55" y="360" type="line"/>
      <point x="55" y="294" type="line"/>
    </contour>
    <contour>
      <point x="351" y="328"/>
      <point x="423" y="400"/>
      <point x="423" y="494" type="curve" smooth="yes"/>
      <point x="423" y="581"/>
      <point x="362" y="674"/>
      <point x="278" y="674" type="curve" smooth="yes"/>
      <point x="219" y="674"/>
      <point x="183" y="629"/>
      <point x="183" y="560" type="curve" smooth="yes"/>
      <point x="183" y="499"/>
      <point x="223" y="450"/>
      <point x="279" y="451" type="curve" smooth="yes"/>
      <point x="337" y="452"/>
      <point x="367" y="505"/>
      <point x="367" y="563" type="curve" smooth="yes"/>
      <point x="367" y="594"/>
      <point x="360" y="612"/>
      <point x="349" y="627" type="curve"/>
      <point x="321" y="631" type="line"/>
      <point x="335" y="617"/>
      <point x="339" y="601"/>
      <point x="339" y="578" type="curve" smooth="yes"/>
      <point x="339" y="548"/>
      <point x="320" y="511"/>
      <point x="273" y="511" type="curve" smooth="yes"/>
      <point x="237" y="511"/>
      <point x="216" y="530"/>
      <point x="216" y="560" type="curve" smooth="yes"/>
      <point x="216" y="583"/>
      <point x="236" y="608"/>
      <point x="280" y="608" type="curve" smooth="yes"/>
      <point x="346" y="608"/>
      <point x="391" y="549"/>
      <point x="391" y="498" type="curve" smooth="yes"/>
      <point x="391" y="431"/>
      <point x="321" y="373"/>
      <point x="200" y="359" type="curve"/>
      <point x="229" y="308" type="line"/>
    </contour>
    <contour>
      <point x="300" y="0" type="move" name="blwm.kssa"/>
    </contour>
  </outline>
</glyph>
<glyph name="knLAc2.following" format="1">
  <advance width="338"/>
  <outline>
    <contour>
      <point x="-55" y="-228" type="line"/>
      <point x="-63" y="-183"/>
      <point x="-93" y="-135"/>
      <point x="-148" y="-135" type="curve" smooth="yes"/>
      <point x="-185" y="-135"/>
      <point x="-203" y="-156"/>
      <point x="-203" y="-181" type="curve" smooth="yes"/>
      <point x="-203" y="-194"/>
      <point x="-198" y="-204"/>
      <point x="-194" y="-210" type="curve"/>
      <point x="-212" y="-221" type="line"/>
      <point x="-226" y="-206"/>
      <point x="-231" y="-187"/>
      <point x="-231" y="-165" type="curve" smooth="yes"/>
      <point x="-231" y="-124"/>
      <point x="-204" y="-86"/>
      <point x="-149" y="-86" type="curve" smooth="yes"/>
      <point x="-98" y="-86"/>
      <point x="-67" y="-121"/>
      <point x="-53" y="-171" type="curve"/>
      <point x="-47" y="-171" type="line"/>
      <point x="-33" y="-121"/>
      <point x="-2" y="-86"/>
      <point x="49" y="-86" type="curve" smooth="yes"/>
      <point x="104" y="-86"/>
      <point x="131" y="-124"/>
      <point x="131" y="-165" type="curve" smooth="yes"/>
      <point x="131" y="-187"/>
      <point x="126" y="-206"/>
      <point x="112" y="-221" type="curve"/>
      <point x="94" y="-210" type="line"/>
      <point x="98" y="-204"/>
      <point x="103" y="-194"/>
      <point x="103" y="-181" type="curve" smooth="yes"/>
      <point x="103" y="-156"/>
      <point x="85" y="-135"/>
      <point x="48" y="-135" type="curve" smooth="yes"/>
      <point x="-7" y="-135"/>
      <point x="-37" y="-183"/>
      <point x="-45" y="-228" type="curve"/>
    </contour>
  </outline>
</glyph>
<glyph name="knLAc2" format="1">
  <advance width="0"/>
  <outline>
    <contour>
      <point x="-121" y="-315" type="line"/>
      <point x="-132" y="-250"/>
      <point x="-177" y="-167"/>
      <point x="-256" y="-167" type="curve" smooth="yes"/>
      <point x="-320" y="-167"/>
      <point x="-348" y="-204"/>
      <point x="-348" y="-248" type="curve" smooth="yes"/>
      <point x="-348" y="-267"/>
      <point x="-341" y="-282"/>
      <point x="-336" y="-293" type="curve"/>
      <point x="-351" y="-306" type="line"/>
      <point x="-367" y="-285"/>
      <point x="-376" y="-258"/>
      <point x="-376" y="-226" type="curve" smooth="yes"/>
      <point x="-376" y="-168"/>
      <point x="-337" y="-113"/>
      <point x="-257" y="-113" type="curve" smooth="yes"/>
      <point x="-185" y="-113"/>
      <point x="-135" y="-172"/>
      <point x="-118" y="-244" type="curve"/>
      <point x="-113" y="-244" type="line"/>
      <point x="-96" y="-172"/>
      <point x="-46" y="-113"/>
      <point x="26" y="-113" type="curve" smooth="yes"/>
      <point x="106" y="-113"/>
      <point x="144" y="-168"/>
      <point x="144" y="-226" type="curve" smooth="yes"/>
      <point x="144" y="-258"/>
      <point x="136" y="-285"/>
      <point x="120" y="-306" type="curve"/>
      <point x="106" y="-293" type="line"/>
      <point x="116" y="-285"/>
      <point x="120" y="-267"/>
      <point x="120" y="-248" type="curve" smooth="yes"/>
      <point x="120" y="-204"/>
      <point x="88" y="-167"/>
      <point x="25" y="-167" type="curve" smooth="yes"/>
      <point x="-54" y="-167"/>
      <point x="-100" y="-250"/>
      <point x="-112" y="-315" type="curve"/>
    </contour>
  </outline>
</glyph>
<glyph name="knLLAA" format="1">
  <advance width="1029"/>
  <outline>
    <contour>
      <point x="895" y="-13"/>
      <point x="969" y="93"/>
      <point x="969" y="239" type="curve" smooth="yes"/>
      <point x="969" y="390"/>
      <point x="899" y="509"/>
      <point x="661" y="509" type="curve" smooth="yes"/>
      <point x="384" y="509" type="line"/>
      <point x="384" y="434" type="line"/>
      <point x="670" y="434" type="line" smooth="yes"/>
      <point x="864" y="434"/>
      <point x="934" y="346"/>
      <point x="934" y="236" type="curve" smooth="yes"/>
      <point x="934" y="130"/>
      <point x="872" y="69"/>
      <point x="782" y="69" type="curve" smooth="yes"/>
      <point x="709" y="69"/>
      <point x="665" y="112"/>
      <point x="664" y="170" type="curve" smooth="yes"/>
      <point x="663" y="212"/>
      <point x="685" y="238"/>
      <point x="697" y="238" type="curve" smooth="yes"/>
      <point x="702" y="238"/>
      <point x="704" y="234"/>
      <point x="703" y="228" type="curve"/>
      <point x="704" y="192"/>
      <point x="725" y="166"/>
      <point x="758" y="166" type="curve" smooth="yes"/>
      <point x="793" y="166"/>
      <point x="819" y="195"/>
      <point x="818" y="231" type="curve"/>
      <point x="819" y="263"/>
      <point x="794" y="300"/>
      <point x="739" y="300" type="curve" smooth="yes"/>
      <point x="667" y="300"/>
      <point x="627" y="236"/>
      <point x="626" y="158" type="curve" smooth="yes"/>
      <point x="627" y="59"/>
      <point x="687" y="-13"/>
      <point x="783" y="-13" type="curve" smooth="yes"/>
    </contour>
    <contour>
      <point x="403" y="-14"/>
      <point x="447" y="34"/>
      <point x="447" y="97" type="curve" smooth="yes"/>
      <point x="447" y="301"/>
      <point x="85" y="191"/>
      <point x="85" y="363" type="curve" smooth="yes"/>
      <point x="85" y="422"/>
      <point x="151" y="454"/>
      <point x="219" y="454" type="curve" smooth="yes"/>
      <point x="270" y="454"/>
      <point x="285" y="430"/>
      <point x="285" y="413" type="curve" smooth="yes"/>
      <point x="285" y="390"/>
      <point x="265" y="373"/>
      <point x="226" y="373" type="curve" smooth="yes"/>
      <point x="183" y="373"/>
      <point x="163" y="394"/>
      <point x="163" y="427" type="curve" smooth="yes"/>
      <point x="163" y="450"/>
      <point x="168" y="471"/>
      <point x="175" y="477" type="curve"/>
      <point x="151" y="482" type="line"/>
      <point x="139" y="460"/>
      <point x="133" y="436"/>
      <point x="133" y="410" type="curve" smooth="yes"/>
      <point x="133" y="350"/>
      <point x="169" y="310"/>
      <point x="225" y="310" type="curve" smooth="yes"/>
      <point x="291" y="310"/>
      <point x="315" y="363"/>
      <point x="315" y="414" type="curve" smooth="yes"/>
      <point x="315" y="467"/>
      <point x="282" y="519"/>
      <point x="212" y="519" type="curve" smooth="yes"/>
      <point x="115" y="519"/>
      <point x="50" y="460"/>
      <point x="50" y="363" type="curve" smooth="yes"/>
      <point x="50" y="107"/>
      <point x="411" y="207"/>
      <point x="411" y="109" type="curve" smooth="yes"/>
      <point x="411" y="83"/>
      <point x="378" y="71"/>
      <point x="341" y="71" type="curve" smooth="yes"/>
      <point x="298" y="71"/>
      <point x="266" y="85"/>
      <point x="266" y="112" type="curve" smooth="yes"/>
      <point x="266" y="203"/>
      <point x="587" y="186"/>
      <point x="587" y="354" type="curve" smooth="yes"/>
      <point x="587" y="434"/>
      <point x="514" y="471"/>
      <point x="453" y="471" type="curve"/>
      <point x="444" y="434" type="line"/>
      <point x="514" y="434"/>
      <point x="552" y="400"/>
      <point x="552" y="355" type="curve" smooth="yes"/>
      <point x="552" y="211"/>
      <point x="220" y="246"/>
      <point x="220" y="86" type="curve" smooth="yes"/>
      <point x="220" y="28"/>
      <point x="265" y="-14"/>
      <point x="336" y="-14" type="curve" smooth="yes"/>
    </contour>
  </outline>
</glyph>
<glyph name="knLLE" format="1">
  <advance width="635"/>
  <outline>
    <contour>
      <point x="403" y="-14"/>
      <point x="447" y="34"/>
      <point x="447" y="97" type="curve" smooth="yes"/>
      <point x="447" y="301"/>
      <point x="85" y="191"/>
      <point x="85" y="363" type="curve" smooth="yes"/>
      <point x="85" y="422"/>
      <point x="151" y="454"/>
      <point x="219" y="454" type="curve" smooth="yes"/>
      <point x="270" y="454"/>
      <point x="285" y="430"/>
      <point x="285" y="413" type="curve" smooth="yes"/>
      <point x="285" y="390"/>
      <point x="265" y="373"/>
      <point x="226" y="373" type="curve" smooth="yes"/>
      <point x="183" y="373"/>
      <point x="163" y="394"/>
      <point x="163" y="427" type="curve" smooth="yes"/>
      <point x="163" y="450"/>
      <point x="168" y="471"/>
      <point x="175" y="477" type="curve"/>
      <point x="151" y="482" type="line"/>
      <point x="139" y="460"/>
      <point x="133" y="436"/>
      <point x="133" y="410" type="curve" smooth="yes"/>
      <point x="133" y="350"/>
      <point x="169" y="310"/>
      <point x="225" y="310" type="curve" smooth="yes"/>
      <point x="291" y="310"/>
      <point x="315" y="363"/>
      <point x="315" y="414" type="curve" smooth="yes"/>
      <point x="315" y="467"/>
      <point x="282" y="519"/>
      <point x="212" y="519" type="curve" smooth="yes"/>
      <point x="115" y="519"/>
      <point x="50" y="460"/>
      <point x="50" y="363" type="curve" smooth="yes"/>
      <point x="50" y="107"/>
      <point x="411" y="207"/>
      <point x="411" y="109" type="curve" smooth="yes"/>
      <point x="411" y="83"/>
      <point x="378" y="71"/>
      <point x="341" y="71" type="curve" smooth="yes"/>
      <point x="298" y="71"/>
      <point x="266" y="85"/>
      <point x="266" y="112" type="curve" smooth="yes"/>
      <point x="266" y="203"/>
      <point x="587" y="186"/>
      <point x="587" y="354" type="curve" smooth="yes"/>
      <point x="587" y="434"/>
      <point x="514" y="471"/>
      <point x="453" y="471" type="curve"/>
      <point x="444" y="434" type="line"/>
      <point x="514" y="434"/>
      <point x="552" y="400"/>
      <point x="552" y="355" type="curve" smooth="yes"/>
      <point x="552" y="211"/>
      <point x="220" y="246"/>
      <point x="220" y="86" type="curve" smooth="yes"/>
      <point x="220" y="28"/>
      <point x="265" y="-14"/>
      <point x="336" y="-14" type="curve" smooth="yes"/>
    </contour>
    <contour>
      <point x="490" y="434" type="line" smooth="yes"/>
      <point x="571" y="434"/>
      <point x="625" y="480"/>
      <point x="625" y="552" type="curve" smooth="yes"/>
      <point x="625" y="607"/>
      <point x="594" y="648"/>
      <point x="551" y="664" type="curve"/>
      <point x="536" y="644" type="line"/>
      <point x="560" y="635"/>
      <point x="582" y="610"/>
      <point x="582" y="576" type="curve" smooth="yes"/>
      <point x="582" y="536"/>
      <point x="551" y="509"/>
      <point x="490" y="509" type="curve" smooth="yes"/>
      <point x="409" y="509" type="line"/>
      <point x="409" y="434" type="line"/>
    </contour>
    <contour>
      <point x="571" y="434"/>
      <point x="625" y="480"/>
      <point x="625" y="553" type="curve" smooth="yes"/>
      <point x="625" y="651"/>
      <point x="547" y="685"/>
      <point x="490" y="685" type="curve" smooth="yes"/>
      <point x="435" y="685"/>
      <point x="407" y="657"/>
      <point x="407" y="625" type="curve" smooth="yes"/>
      <point x="407" y="592"/>
      <point x="430" y="571"/>
      <point x="464" y="571" type="curve" smooth="yes"/>
      <point x="498" y="571"/>
      <point x="519" y="597"/>
      <point x="519" y="633" type="curve" smooth="yes"/>
      <point x="519" y="639"/>
      <point x="521" y="643"/>
      <point x="525" y="643" type="curve" smooth="yes"/>
      <point x="538" y="643"/>
      <point x="582" y="629"/>
      <point x="582" y="577" type="curve"/>
      <point x="582" y="530"/>
      <point x="542" y="509"/>
      <point x="491" y="509" type="curve"/>
      <point x="490" y="434" type="line"/>
    </contour>
  </outline>
</glyph>
<glyph name="knLLLAU" format="1">
  <advance width="1257"/>
  <outline>
    <contour>
      <point x="1129" y="186"/>
      <point x="1203" y="292"/>
      <point x="1203" y="438" type="curve" smooth="yes"/>
      <point x="1203" y="601"/>
      <point x="1114" y="709"/>
      <point x="894" y="709" type="curve" smooth="yes"/>
      <point x="549" y="709" type="line"/>
      <point x="549" y="634" type="line"/>
      <point x="915" y="634" type="line" smooth="yes"/>
      <point x="1070" y="634"/>
      <point x="1168" y="555"/>
      <point x="1168" y="435" type="curve" smooth="yes"/>
      <point x="1168" y="329"/>
      <point x="1106" y="268"/>
      <point x="1016" y="268" type="curve" smooth="yes"/>
      <point x="943" y="268"/>
      <point x="899" y="311"/>
      <point x="898" y="369" type="curve" smooth="yes"/>
      <point x="897" y="411"/>
      <point x="919" y="437"/>
      <point x="931" y="437" type="curve" smooth="yes"/>
      <point x="936" y="437"/>
      <point x="938" y="433"/>
      <point x="937" y="427" type="curve"/>
      <point x="938" y="391"/>
      <point x="959" y="365"/>
      <point x="992" y="365" type="curve" smooth="yes"/>
      <point x="1027" y="365"/>
      <point x="1053" y="394"/>
      <point x="1052" y="430" type="curve"/>
      <point x="1053" y="462"/>
      <point x="1028" y="499"/>
      <point x="973" y="499" type="curve" smooth="yes"/>
      <point x="901" y="499"/>
      <point x="861" y="435"/>
      <point x="860" y="357" type="curve" smooth="yes"/>
      <point x="861" y="258"/>
      <point x="921" y="186"/>
      <point x="1017" y="186" type="curve" smooth="yes"/>
    </contour>
    <contour>
      <point x="670" y="434" type="line" smooth="yes"/>
      <point x="731" y="434"/>
      <point x="785" y="480"/>
      <point x="785" y="552" type="curve" smooth="yes"/>
      <point x="785" y="607"/>
      <point x="754" y="648"/>
      <point x="711" y="664" type="curve"/>
      <point x="696" y="644" type="line"/>
      <point x="720" y="635"/>
      <point x="742" y="610"/>
      <point x="742" y="576" type="curve" smooth="yes"/>
      <point x="742" y="536"/>
      <point x="711" y="509"/>
      <point x="650" y="509" type="curve" smooth="yes"/>
      <point x="629" y="509" type="line"/>
      <point x="659" y="434" type="line"/>
    </contour>
    <component base="knLLLA"/>
  </outline>
</glyph>
<glyph name="knLLLE" format="1">
  <advance width="1086"/>
  <outline>
    <contour>
      <point x="318" y="-14"/>
      <point x="382" y="43"/>
      <point x="405" y="126" type="curve"/>
      <point x="407" y="126" type="line"/>
      <point x="430" y="43"/>
      <point x="500" y="-14"/>
      <point x="570" y="-14" type="curve" smooth="yes"/>
      <point x="676" y="-14"/>
      <point x="753" y="82"/>
      <point x="753" y="261" type="curve" smooth="yes"/>
      <point x="753" y="392"/>
      <point x="685" y="519"/>
      <point x="583" y="519" type="curve" smooth="yes"/>
      <point x="512" y="519"/>
      <point x="476" y="457"/>
      <point x="476" y="391" type="curve" smooth="yes"/>
      <point x="476" y="325"/>
      <point x="518" y="273"/>
      <point x="581" y="273" type="curve" smooth="yes"/>
      <point x="639" y="273"/>
      <point x="682" y="308"/>
      <point x="682" y="381" type="curve" smooth="yes"/>
      <point x="682" y="394"/>
      <point x="681" y="407"/>
      <point x="678" y="429" type="curve"/>
      <point x="656" y="497" type="line"/>
      <point x="641" y="501"/>
      <point x="636" y="475"/>
      <point x="647" y="450" type="curve"/>
      <point x="650" y="440"/>
      <point x="654" y="419"/>
      <point x="654" y="408" type="curve" smooth="yes"/>
      <point x="654" y="365"/>
      <point x="623" y="344"/>
      <point x="581" y="344" type="curve" smooth="yes"/>
      <point x="534" y="344"/>
      <point x="506" y="365"/>
      <point x="506" y="401" type="curve" smooth="yes"/>
      <point x="506" y="440"/>
      <point x="540" y="454"/>
      <point x="578" y="454" type="curve" smooth="yes"/>
      <point x="671" y="454"/>
      <point x="713" y="365"/>
      <point x="713" y="272" type="curve" smooth="yes"/>
      <point x="713" y="149"/>
      <point x="656" y="71"/>
      <point x="565" y="71" type="curve" smooth="yes"/>
      <point x="490" y="71"/>
      <point x="423" y="146"/>
      <point x="410" y="221" type="curve"/>
      <point x="401" y="221" type="line"/>
      <point x="387" y="145"/>
      <point x="323" y="71"/>
      <point x="248" y="71" type="curve" smooth="yes"/>
      <point x="157" y="71"/>
      <point x="100" y="149"/>
      <point x="100" y="272" type="curve" smooth="yes"/>
      <point x="100" y="365"/>
      <point x="142" y="454"/>
      <point x="235" y="454" type="curve" smooth="yes"/>
      <point x="273" y="454"/>
      <point x="307" y="440"/>
      <point x="307" y="401" type="curve" smooth="yes"/>
      <point x="307" y="365"/>
      <point x="279" y="344"/>
      <point x="232" y="344" type="curve" smooth="yes"/>
      <point x="190" y="344"/>
      <point x="159" y="365"/>
      <point x="159" y="408" type="curve" smooth="yes"/>
      <point x="159" y="419"/>
      <point x="163" y="440"/>
      <point x="166" y="450" type="curve"/>
      <point x="177" y="475"/>
      <point x="172" y="501"/>
      <point x="157" y="497" type="curve"/>
      <point x="135" y="429" type="line"/>
      <point x="132" y="407"/>
      <point x="131" y="394"/>
      <point x="131" y="381" type="curve" smooth="yes"/>
      <point x="131" y="308"/>
      <point x="174" y="273"/>
      <point x="232" y="273" type="curve" smooth="yes"/>
      <point x="295" y="273"/>
      <point x="337" y="325"/>
      <point x="337" y="391" type="curve" smooth="yes"/>
      <point x="337" y="457"/>
      <point x="301" y="519"/>
      <point x="230" y="519" type="curve" smooth="yes"/>
      <point x="128" y="519"/>
      <point x="60" y="392"/>
      <point x="60" y="261" type="curve" smooth="yes"/>
      <point x="60" y="82"/>
      <point x="137" y="-14"/>
      <point x="248" y="-14" type="curve" smooth="yes"/>
    </contour>
    <contour>
      <point x="987" y="434"/>
      <point x="1041" y="480"/>
      <point x="1041" y="553" type="curve" smooth="yes"/>
      <point x="1041" y="651"/>
      <point x="963" y="685"/>
      <point x="906" y="685" type="curve" smooth="yes"/>
      <point x="851" y="685"/>
      <point x="823" y="657"/>
      <point x="823" y="625" type="curve" smooth="yes"/>
      <point x="823" y="592"/>
      <point x="846" y="571"/>
      <point x="880" y="571" type="curve" smooth="yes"/>
      <point x="914" y="571"/>
      <point x="935" y="597"/>
      <point x="935" y="633" type="curve" smooth="yes"/>
      <point x="935" y="639"/>
      <point x="937" y="643"/>
      <point x="941" y="643" type="curve" smooth="yes"/>
      <point x="954" y="643"/>
      <point x="998" y="629"/>
      <point x="998" y="577" type="curve"/>
      <point x="998" y="530"/>
      <point x="958" y="509"/>
      <point x="907" y="509" type="curve"/>
      <point x="832" y="509" type="line"/>
      <point x="832" y="434" type="line"/>
      <point x="906" y="434" type="line"/>
    </contour>
    <contour>
      <point x="786" y="360"/>
      <point x="759" y="372"/>
      <point x="717" y="404" type="curve"/>
      <point x="740" y="335" type="line"/>
      <point x="746" y="331" type="line" smooth="yes"/>
      <point x="777" y="310"/>
      <point x="811" y="297"/>
      <point x="847" y="297" type="curve" smooth="yes"/>
      <point x="917" y="297"/>
      <point x="958" y="355"/>
      <point x="958" y="419" type="curve" smooth="yes"/>
      <point x="958" y="440"/>
      <point x="953" y="456"/>
      <point x="945" y="471" type="curve"/>
      <point x="905" y="491" type="line"/>
      <point x="915" y="479"/>
      <point x="922" y="462"/>
      <point x="922" y="443" type="curve" smooth="yes"/>
      <point x="922" y="394"/>
      <point x="888" y="360"/>
      <point x="834" y="360" type="curve" smooth="yes"/>
    </contour>
  </outline>
</glyph>
<glyph name="knLLLI" format="1">
  <advance width="923"/>
  <outline>
    <contour>
      <point x="318" y="-14"/>
      <point x="382" y="43"/>
      <point x="405" y="126" type="curve"/>
      <point x="407" y="126" type="line"/>
      <point x="430" y="43"/>
      <point x="500" y="-14"/>
      <point x="570" y="-14" type="curve" smooth="yes"/>
      <point x="676" y="-14"/>
      <point x="753" y="82"/>
      <point x="753" y="261" type="curve" smooth="yes"/>
      <point x="753" y="392"/>
      <point x="685" y="519"/>
      <point x="583" y="519" type="curve" smooth="yes"/>
      <point x="512" y="519"/>
      <point x="476" y="457"/>
      <point x="476" y="391" type="curve" smooth="yes"/>
      <point x="476" y="325"/>
      <point x="518" y="273"/>
      <point x="581" y="273" type="curve" smooth="yes"/>
      <point x="639" y="273"/>
      <point x="682" y="308"/>
      <point x="682" y="381" type="curve" smooth="yes"/>
      <point x="682" y="394"/>
      <point x="681" y="407"/>
      <point x="678" y="429" type="curve"/>
      <point x="656" y="497" type="line"/>
      <point x="641" y="501"/>
      <point x="636" y="475"/>
      <point x="647" y="450" type="curve"/>
      <point x="650" y="440"/>
      <point x="654" y="419"/>
      <point x="654" y="408" type="curve" smooth="yes"/>
      <point x="654" y="365"/>
      <point x="623" y="344"/>
      <point x="581" y="344" type="curve" smooth="yes"/>
      <point x="534" y="344"/>
      <point x="506" y="365"/>
      <point x="506" y="401" type="curve" smooth="yes"/>
      <point x="506" y="440"/>
      <point x="540" y="454"/>
      <point x="578" y="454" type="curve" smooth="yes"/>
      <point x="671" y="454"/>
      <point x="713" y="365"/>
      <point x="713" y="272" type="curve" smooth="yes"/>
      <point x="713" y="149"/>
      <point x="656" y="71"/>
      <point x="565" y="71" type="curve" smooth="yes"/>
      <point x="490" y="71"/>
      <point x="423" y="146"/>
      <point x="410" y="221" type="curve"/>
      <point x="401" y="221" type="line"/>
      <point x="387" y="145"/>
      <point x="323" y="71"/>
      <point x="248" y="71" type="curve" smooth="yes"/>
      <point x="157" y="71"/>
      <point x="100" y="149"/>
      <point x="100" y="272" type="curve" smooth="yes"/>
      <point x="100" y="365"/>
      <point x="142" y="454"/>
      <point x="235" y="454" type="curve" smooth="yes"/>
      <point x="273" y="454"/>
      <point x="307" y="440"/>
      <point x="307" y="401" type="curve" smooth="yes"/>
      <point x="307" y="365"/>
      <point x="279" y="344"/>
      <point x="232" y="344" type="curve" smooth="yes"/>
      <point x="190" y="344"/>
      <point x="159" y="365"/>
      <point x="159" y="408" type="curve" smooth="yes"/>
      <point x="159" y="419"/>
      <point x="163" y="440"/>
      <point x="166" y="450" type="curve"/>
      <point x="177" y="475"/>
      <point x="172" y="501"/>
      <point x="157" y="497" type="curve"/>
      <point x="135" y="429" type="line"/>
      <point x="132" y="407"/>
      <point x="131" y="394"/>
      <point x="131" y="381" type="curve" smooth="yes"/>
      <point x="131" y="308"/>
      <point x="174" y="273"/>
      <point x="232" y="273" type="curve" smooth="yes"/>
      <point x="295" y="273"/>
      <point x="337" y="325"/>
      <point x="337" y="391" type="curve" smooth="yes"/>
      <point x="337" y="457"/>
      <point x="301" y="519"/>
      <point x="230" y="519" type="curve" smooth="yes"/>
      <point x="128" y="519"/>
      <point x="60" y="392"/>
      <point x="60" y="261" type="curve" smooth="yes"/>
      <point x="60" y="82"/>
      <point x="137" y="-14"/>
      <point x="248" y="-14" type="curve" smooth="yes"/>
    </contour>
    <contour>
      <point x="705" y="394" type="line"/>
      <point x="822" y="419"/>
      <point x="888" y="487"/>
      <point x="888" y="579" type="curve" smooth="yes"/>
      <point x="888" y="666"/>
      <point x="827" y="759"/>
      <point x="743" y="759" type="curve" smooth="yes"/>
      <point x="684" y="759"/>
      <point x="648" y="714"/>
      <point x="648" y="645" type="curve" smooth="yes"/>
      <point x="648" y="584"/>
      <point x="688" y="535"/>
      <point x="744" y="536" type="curve" smooth="yes"/>
      <point x="802" y="537"/>
      <point x="832" y="590"/>
      <point x="832" y="648" type="curve" smooth="yes"/>
      <point x="832" y="679"/>
      <point x="825" y="697"/>
      <point x="814" y="712" type="curve"/>
      <point x="786" y="716" type="line"/>
      <point x="800" y="702"/>
      <point x="804" y="686"/>
      <point x="804" y="663" type="curve" smooth="yes"/>
      <point x="804" y="633"/>
      <point x="785" y="596"/>
      <point x="738" y="596" type="curve" smooth="yes"/>
      <point x="702" y="596"/>
      <point x="681" y="615"/>
      <point x="681" y="645" type="curve" smooth="yes"/>
      <point x="681" y="668"/>
      <point x="701" y="693"/>
      <point x="745" y="693" type="curve" smooth="yes"/>
      <point x="811" y="693"/>
      <point x="856" y="634"/>
      <point x="856" y="583" type="curve" smooth="yes"/>
      <point x="856" y="520"/>
      <point x="793" y="464"/>
      <point x="684" y="447" type="curve"/>
    </contour>
  </outline>
</glyph>
<glyph name="knLUU" format="1">
  <advance width="1444"/>
  <outline>
    <contour>
      <point x="937" y="-14"/>
      <point x="967" y="103"/>
      <point x="967" y="274" type="curve" smooth="yes"/>
      <point x="967" y="416"/>
      <point x="1056" y="437"/>
      <point x="1134" y="437" type="curve" smooth="yes"/>
      <point x="1228" y="437"/>
      <point x="1350" y="357"/>
      <point x="1350" y="235" type="curve" smooth="yes"/>
      <point x="1350" y="140"/>
      <point x="1300" y="71"/>
      <point x="1208" y="71" type="curve" smooth="yes"/>
      <point x="1137" y="71"/>
      <point x="1095" y="112"/>
      <point x="1095" y="169" type="curve" smooth="yes"/>
      <point x="1095" y="211"/>
      <point x="1104" y="237"/>
      <point x="1116" y="237" type="curve" smooth="yes"/>
      <point x="1121" y="237"/>
      <point x="1122" y="232"/>
      <point x="1122" y="227" type="curve" smooth="yes"/>
      <point x="1122" y="191"/>
      <point x="1144" y="165"/>
      <point x="1177" y="165" type="curve" smooth="yes"/>
      <point x="1212" y="165"/>
      <point x="1237" y="194"/>
      <point x="1237" y="230" type="curve" smooth="yes"/>
      <point x="1237" y="262"/>
      <point x="1212" y="299"/>
      <point x="1159" y="299" type="curve" smooth="yes"/>
      <point x="1080" y="299"/>
      <point x="1043" y="233"/>
      <point x="1043" y="155" type="curve" smooth="yes"/>
      <point x="1043" y="56"/>
      <point x="1106" y="-14"/>
      <point x="1192" y="-14" type="curve" smooth="yes"/>
      <point x="1303" y="-14"/>
      <point x="1389" y="82"/>
      <point x="1389" y="238" type="curve" smooth="yes"/>
      <point x="1389" y="424"/>
      <point x="1251" y="519"/>
      <point x="1134" y="519" type="curve" smooth="yes"/>
      <point x="1041" y="519"/>
      <point x="920" y="456"/>
      <point x="920" y="273" type="curve" smooth="yes"/>
      <point x="920" y="177"/>
      <point x="904" y="71"/>
      <point x="811" y="71" type="curve" smooth="yes"/>
      <point x="730" y="71"/>
      <point x="680" y="145"/>
      <point x="651" y="222" type="curve"/>
      <point x="629" y="182" type="line"/>
      <point x="638" y="84"/>
      <point x="725" y="-14"/>
      <point x="814" y="-14" type="curve" smooth="yes"/>
    </contour>
    <component base="knLA"/>
  </outline>
</glyph>
<glyph name="knNGAc2.following" format="1">
  <advance width="353"/>
  <outline>
    <contour>
      <point x="-131" y="-470"/>
      <point x="-84" y="-429"/>
      <point x="-67" y="-369" type="curve"/>
      <point x="-62" y="-369" type="line"/>
      <point x="-45" y="-429"/>
      <point x="1" y="-470"/>
      <point x="50" y="-470" type="curve" smooth="yes"/>
      <point x="105" y="-470"/>
      <point x="142" y="-439"/>
      <point x="142" y="-370" type="curve" smooth="yes"/>
      <point x="142" y="-336"/>
      <point x="121" y="-298"/>
      <point x="96" y="-277" type="curve"/>
      <point x="79" y="-292" type="line"/>
      <point x="96" y="-309"/>
      <point x="107" y="-328"/>
      <point x="107" y="-355" type="curve" smooth="yes"/>
      <point x="107" y="-383"/>
      <point x="93" y="-409"/>
      <point x="51" y="-409" type="curve" smooth="yes"/>
      <point x="-5" y="-409"/>
      <point x="-47" y="-355"/>
      <point x="-56" y="-301" type="curve"/>
      <point x="-73" y="-301" type="line"/>
      <point x="-83" y="-355"/>
      <point x="-125" y="-409"/>
      <point x="-183" y="-409" type="curve" smooth="yes"/>
      <point x="-215" y="-409"/>
      <point x="-235" y="-387"/>
      <point x="-235" y="-362" type="curve" smooth="yes"/>
      <point x="-235" y="-301"/>
      <point x="-129" y="-249"/>
      <point x="-129" y="-173" type="curve" smooth="yes"/>
      <point x="-129" y="-125"/>
      <point x="-154" y="-86"/>
      <point x="-219" y="-86" type="curve" smooth="yes"/>
      <point x="-273" y="-86"/>
      <point x="-301" y="-125"/>
      <point x="-301" y="-163" type="curve" smooth="yes"/>
      <point x="-301" y="-186"/>
      <point x="-295" y="-207"/>
      <point x="-280" y="-222" type="curve"/>
      <point x="-265" y="-212" type="line"/>
      <point x="-271" y="-201"/>
      <point x="-273" y="-192"/>
      <point x="-273" y="-184" type="curve" smooth="yes"/>
      <point x="-273" y="-153"/>
      <point x="-256" y="-135"/>
      <point x="-221" y="-135" type="curve" smooth="yes"/>
      <point x="-182" y="-135"/>
      <point x="-168" y="-153"/>
      <point x="-168" y="-183" type="curve" smooth="yes"/>
      <point x="-168" y="-238"/>
      <point x="-272" y="-282"/>
      <point x="-272" y="-370" type="curve" smooth="yes"/>
      <point x="-272" y="-432"/>
      <point x="-238" y="-470"/>
      <point x="-180" y="-470" type="curve" smooth="yes"/>
    </contour>
    <contour>
      <point x="-18" y="-260"/>
      <point x="-4" y="-246"/>
      <point x="-4" y="-222" type="curve" smooth="yes"/>
      <point x="-4" y="-197"/>
      <point x="-18" y="-183"/>
      <point x="-42" y="-183" type="curve" smooth="yes"/>
      <point x="-67" y="-183"/>
      <point x="-81" y="-197"/>
      <point x="-81" y="-222" type="curve" smooth="yes"/>
      <point x="-81" y="-246"/>
      <point x="-67" y="-260"/>
      <point x="-42" y="-260" type="curve" smooth="yes"/>
    </contour>
    <contour>
      <point x="-96" y="-161"/>
      <point x="-43" y="-124"/>
      <point x="21" y="-124" type="curve" smooth="yes"/>
      <point x="71" y="-124"/>
      <point x="93" y="-144"/>
      <point x="93" y="-179" type="curve" smooth="yes"/>
      <point x="93" y="-204"/>
      <point x="85" y="-215"/>
      <point x="76" y="-225" type="curve"/>
      <point x="91" y="-239" type="line"/>
      <point x="113" y="-228"/>
      <point x="124" y="-200"/>
      <point x="124" y="-166" type="curve" smooth="yes"/>
      <point x="124" y="-114"/>
      <point x="98" y="-74"/>
      <point x="31" y="-74" type="curve" smooth="yes"/>
      <point x="-50" y="-74"/>
      <point x="-122" y="-145"/>
      <point x="-160" y="-211" type="curve"/>
      <point x="-160" y="-245" type="line"/>
    </contour>
  </outline>
</glyph>
<glyph name="knNGE" format="1">
  <advance width="946"/>
  <outline>
    <contour>
      <point x="276" y="-14"/>
      <point x="344" y="43"/>
      <point x="367" y="126" type="curve"/>
      <point x="369" y="126" type="line"/>
      <point x="392" y="43"/>
      <point x="460" y="-14"/>
      <point x="528" y="-14" type="curve" smooth="yes"/>
      <point x="594" y="-14"/>
      <point x="655" y="38"/>
      <point x="655" y="125" type="curve" smooth="yes"/>
      <point x="655" y="172"/>
      <point x="626" y="222"/>
      <point x="592" y="251" type="curve"/>
      <point x="571" y="236" type="line"/>
      <point x="595" y="212"/>
      <point x="607" y="183"/>
      <point x="607" y="154" type="curve" smooth="yes"/>
      <point x="607" y="116"/>
      <point x="582" y="71"/>
      <point x="524" y="71" type="curve" smooth="yes"/>
      <point x="451" y="71"/>
      <point x="385" y="146"/>
      <point x="372" y="221" type="curve"/>
      <point x="363" y="221" type="line"/>
      <point x="349" y="145"/>
      <point x="284" y="71"/>
      <point x="211" y="71" type="curve" smooth="yes"/>
      <point x="158" y="71"/>
      <point x="131" y="114"/>
      <point x="131" y="156" type="curve" smooth="yes"/>
      <point x="131" y="187"/>
      <point x="155" y="223"/>
      <point x="189" y="257" type="curve" smooth="yes"/>
      <point x="230" y="298"/>
      <point x="278" y="349"/>
      <point x="278" y="399" type="curve" smooth="yes"/>
      <point x="278" y="465"/>
      <point x="230" y="519"/>
      <point x="154" y="519" type="curve" smooth="yes"/>
      <point x="79" y="519"/>
      <point x="40" y="465"/>
      <point x="40" y="413" type="curve" smooth="yes"/>
      <point x="40" y="381"/>
      <point x="48" y="352"/>
      <point x="69" y="330" type="curve"/>
      <point x="89" y="345" type="line"/>
      <point x="82" y="360"/>
      <point x="79" y="372"/>
      <point x="79" y="383" type="curve" smooth="yes"/>
      <point x="79" y="421"/>
      <point x="102" y="452"/>
      <point x="154" y="452" type="curve" smooth="yes"/>
      <point x="191" y="452"/>
      <point x="225" y="427"/>
      <point x="225" y="385" type="curve" smooth="yes"/>
      <point x="225" y="344"/>
      <point x="194" y="311"/>
      <point x="162" y="278" type="curve" smooth="yes"/>
      <point x="123" y="238"/>
      <point x="80" y="193"/>
      <point x="80" y="125" type="curve" smooth="yes"/>
      <point x="80" y="38"/>
      <point x="141" y="-14"/>
      <point x="208" y="-14" type="curve" smooth="yes"/>
    </contour>
    <contour>
      <point x="429" y="278"/>
      <point x="452" y="302"/>
      <point x="452" y="331" type="curve" smooth="yes"/>
      <point x="452" y="361"/>
      <point x="429" y="385"/>
      <point x="399" y="385" type="curve" smooth="yes"/>
      <point x="369" y="385"/>
      <point x="346" y="361"/>
      <point x="346" y="331" type="curve" smooth="yes"/>
      <point x="346" y="302"/>
      <point x="369" y="278"/>
      <point x="399" y="278" type="curve" smooth="yes"/>
    </contour>
    <contour>
      <point x="324" y="423"/>
      <point x="395" y="467"/>
      <point x="482" y="467" type="curve" smooth="yes"/>
      <point x="546" y="467"/>
      <point x="587" y="430"/>
      <point x="587" y="376" type="curve" smooth="yes"/>
      <point x="587" y="355"/>
      <point x="579" y="337"/>
      <point x="567" y="324" type="curve"/>
      <point x="586" y="308" type="line"/>
      <point x="609" y="332"/>
      <point x="630" y="360"/>
      <point x="630" y="402" type="curve" smooth="yes"/>
      <point x="630" y="472"/>
      <point x="581" y="536"/>
      <point x="497" y="536" type="curve" smooth="yes"/>
      <point x="388" y="536"/>
      <point x="288" y="438"/>
      <point x="236" y="346" type="curve"/>
      <point x="236" y="307" type="line"/>
    </contour>
    <contour>
      <point x="847" y="434"/>
      <point x="901" y="480"/>
      <point x="901" y="553" type="curve" smooth="yes"/>
      <point x="901" y="651"/>
      <point x="823" y="685"/>
      <point x="766" y="685" type="curve" smooth="yes"/>
      <point x="711" y="685"/>
      <point x="683" y="657"/>
      <point x="683" y="625" type="curve" smooth="yes"/>
      <point x="683" y="592"/>
      <point x="706" y="571"/>
      <point x="740" y="571" type="curve" smooth="yes"/>
      <point x="774" y="571"/>
      <point x="795" y="597"/>
      <point x="795" y="633" type="curve" smooth="yes"/>
      <point x="795" y="639"/>
      <point x="797" y="643"/>
      <point x="801" y="643" type="curve" smooth="yes"/>
      <point x="814" y="643"/>
      <point x="858" y="629"/>
      <point x="858" y="577" type="curve"/>
      <point x="858" y="530"/>
      <point x="818" y="509"/>
      <point x="767" y="509" type="curve"/>
      <point x="692" y="509" type="line"/>
      <point x="692" y="434" type="line"/>
      <point x="766" y="434" type="line"/>
    </contour>
    <contour>
      <point x="600" y="335" type="line"/>
      <point x="606" y="331" type="line" smooth="yes"/>
      <point x="637" y="310"/>
      <point x="671" y="297"/>
      <point x="707" y="297" type="curve" smooth="yes"/>
      <point x="777" y="297"/>
      <point x="818" y="355"/>
      <point x="818" y="419" type="curve" smooth="yes"/>
      <point x="818" y="440"/>
      <point x="813" y="456"/>
      <point x="805" y="471" type="curve"/>
      <point x="765" y="491" type="line"/>
      <point x="775" y="479"/>
      <point x="782" y="462"/>
      <point x="782" y="443" type="curve" smooth="yes"/>
      <point x="782" y="394"/>
      <point x="748" y="360"/>
      <point x="694" y="360" type="curve" smooth="yes"/>
      <point x="661" y="360"/>
      <point x="632" y="368"/>
      <point x="602" y="386" type="curve"/>
    </contour>
  </outline>
</glyph>
<glyph name="knNGI" format="1">
  <advance width="863"/>
  <outline>
    <contour>
      <point x="276" y="-14"/>
      <point x="344" y="43"/>
      <point x="367" y="126" type="curve"/>
      <point x="369" y="126" type="line"/>
      <point x="392" y="43"/>
      <point x="460" y="-14"/>
      <point x="528" y="-14" type="curve" smooth="yes"/>
      <point x="594" y="-14"/>
      <point x="655" y="38"/>
      <point x="655" y="125" type="curve" smooth="yes"/>
      <point x="655" y="172"/>
      <point x="626" y="222"/>
      <point x="592" y="251" type="curve"/>
      <point x="571" y="236" type="line"/>
      <point x="595" y="212"/>
      <point x="607" y="183"/>
      <point x="607" y="154" type="curve" smooth="yes"/>
      <point x="607" y="116"/>
      <point x="582" y="71"/>
      <point x="524" y="71" type="curve" smooth="yes"/>
      <point x="451" y="71"/>
      <point x="385" y="146"/>
      <point x="372" y="221" type="curve"/>
      <point x="363" y="221" type="line"/>
      <point x="349" y="145"/>
      <point x="284" y="71"/>
      <point x="211" y="71" type="curve" smooth="yes"/>
      <point x="158" y="71"/>
      <point x="131" y="114"/>
      <point x="131" y="156" type="curve" smooth="yes"/>
      <point x="131" y="187"/>
      <point x="155" y="223"/>
      <point x="189" y="257" type="curve" smooth="yes"/>
      <point x="230" y="298"/>
      <point x="278" y="349"/>
      <point x="278" y="399" type="curve" smooth="yes"/>
      <point x="278" y="465"/>
      <point x="230" y="519"/>
      <point x="154" y="519" type="curve" smooth="yes"/>
      <point x="79" y="519"/>
      <point x="40" y="465"/>
      <point x="40" y="413" type="curve" smooth="yes"/>
      <point x="40" y="381"/>
      <point x="48" y="352"/>
      <point x="69" y="330" type="curve"/>
      <point x="89" y="345" type="line"/>
      <point x="82" y="360"/>
      <point x="79" y="372"/>
      <point x="79" y="383" type="curve" smooth="yes"/>
      <point x="79" y="421"/>
      <point x="102" y="452"/>
      <point x="154" y="452" type="curve" smooth="yes"/>
      <point x="191" y="452"/>
      <point x="225" y="427"/>
      <point x="225" y="385" type="curve" smooth="yes"/>
      <point x="225" y="344"/>
      <point x="194" y="311"/>
      <point x="162" y="278" type="curve" smooth="yes"/>
      <point x="123" y="238"/>
      <point x="80" y="193"/>
      <point x="80" y="125" type="curve" smooth="yes"/>
      <point x="80" y="38"/>
      <point x="141" y="-14"/>
      <point x="208" y="-14" type="curve" smooth="yes"/>
    </contour>
    <contour>
      <point x="429" y="278"/>
      <point x="452" y="302"/>
      <point x="452" y="331" type="curve" smooth="yes"/>
      <point x="452" y="361"/>
      <point x="429" y="385"/>
      <point x="399" y="385" type="curve" smooth="yes"/>
      <point x="369" y="385"/>
      <point x="346" y="361"/>
      <point x="346" y="331" type="curve" smooth="yes"/>
      <point x="346" y="302"/>
      <point x="369" y="278"/>
      <point x="399" y="278" type="curve" smooth="yes"/>
    </contour>
    <contour>
      <point x="324" y="423"/>
      <point x="395" y="467"/>
      <point x="482" y="467" type="curve" smooth="yes"/>
      <point x="546" y="467"/>
      <point x="587" y="430"/>
      <point x="587" y="376" type="curve" smooth="yes"/>
      <point x="587" y="355"/>
      <point x="579" y="337"/>
      <point x="567" y="324" type="curve"/>
      <point x="586" y="308" type="line"/>
      <point x="609" y="332"/>
      <point x="630" y="360"/>
      <point x="630" y="402" type="curve" smooth="yes"/>
      <point x="630" y="472"/>
      <point x="581" y="536"/>
      <point x="497" y="536" type="curve" smooth="yes"/>
      <point x="388" y="536"/>
      <point x="288" y="438"/>
      <point x="236" y="346" type="curve"/>
      <point x="236" y="307" type="line"/>
    </contour>
    <contour>
      <point x="756" y="399"/>
      <point x="843" y="474"/>
      <point x="843" y="579" type="curve" smooth="yes"/>
      <point x="843" y="666"/>
      <point x="782" y="759"/>
      <point x="698" y="759" type="curve" smooth="yes"/>
      <point x="639" y="759"/>
      <point x="603" y="714"/>
      <point x="603" y="645" type="curve" smooth="yes"/>
      <point x="603" y="584"/>
      <point x="643" y="535"/>
      <point x="699" y="536" type="curve" smooth="yes"/>
      <point x="757" y="537"/>
      <point x="787" y="590"/>
      <point x="787" y="648" type="curve" smooth="yes"/>
      <point x="787" y="679"/>
      <point x="780" y="697"/>
      <point x="769" y="712" type="curve"/>
      <point x="741" y="716" type="line"/>
      <point x="755" y="702"/>
      <point x="759" y="686"/>
      <point x="759" y="663" type="curve" smooth="yes"/>
      <point x="759" y="633"/>
      <point x="740" y="596"/>
      <point x="693" y="596" type="curve" smooth="yes"/>
      <point x="657" y="596"/>
      <point x="636" y="615"/>
      <point x="636" y="645" type="curve" smooth="yes"/>
      <point x="636" y="668"/>
      <point x="656" y="693"/>
      <point x="700" y="693" type="curve" smooth="yes"/>
      <point x="766" y="693"/>
      <point x="811" y="634"/>
      <point x="811" y="583" type="curve" smooth="yes"/>
      <point x="811" y="516"/>
      <point x="741" y="458"/>
      <point x="620" y="444" type="curve"/>
      <point x="606" y="386" type="line"/>
    </contour>
  </outline>
</glyph>
<glyph name="knNGUU" format="1">
  <advance width="1400"/>
  <outline>
    <contour>
      <point x="916" y="-14"/>
      <point x="946" y="103"/>
      <point x="946" y="274" type="curve" smooth="yes"/>
      <point x="946" y="416"/>
      <point x="1035" y="437"/>
      <point x="1113" y="437" type="curve" smooth="yes"/>
      <point x="1207" y="437"/>
      <point x="1329" y="357"/>
      <point x="1329" y="235" type="curve" smooth="yes"/>
      <point x="1329" y="140"/>
      <point x="1279" y="71"/>
      <point x="1187" y="71" type="curve" smooth="yes"/>
      <point x="1116" y="71"/>
      <point x="1074" y="112"/>
      <point x="1074" y="169" type="curve" smooth="yes"/>
      <point x="1074" y="211"/>
      <point x="1083" y="237"/>
      <point x="1095" y="237" type="curve" smooth="yes"/>
      <point x="1100" y="237"/>
      <point x="1101" y="232"/>
      <point x="1101" y="227" type="curve" smooth="yes"/>
      <point x="1101" y="191"/>
      <point x="1123" y="165"/>
      <point x="1156" y="165" type="curve" smooth="yes"/>
      <point x="1191" y="165"/>
      <point x="1216" y="194"/>
      <point x="1216" y="230" type="curve" smooth="yes"/>
      <point x="1216" y="262"/>
      <point x="1191" y="299"/>
      <point x="1138" y="299" type="curve" smooth="yes"/>
      <point x="1059" y="299"/>
      <point x="1022" y="233"/>
      <point x="1022" y="155" type="curve" smooth="yes"/>
      <point x="1022" y="56"/>
      <point x="1085" y="-14"/>
      <point x="1171" y="-14" type="curve" smooth="yes"/>
      <point x="1282" y="-14"/>
      <point x="1368" y="82"/>
      <point x="1368" y="238" type="curve" smooth="yes"/>
      <point x="1368" y="424"/>
      <point x="1230" y="519"/>
      <point x="1113" y="519" type="curve" smooth="yes"/>
      <point x="1020" y="519"/>
      <point x="899" y="456"/>
      <point x="899" y="273" type="curve" smooth="yes"/>
      <point x="899" y="177"/>
      <point x="883" y="71"/>
      <point x="790" y="71" type="curve" smooth="yes"/>
      <point x="719" y="71"/>
      <point x="671" y="127"/>
      <point x="632" y="202" type="curve"/>
      <point x="608" y="182" type="line"/>
      <point x="617" y="84"/>
      <point x="704" y="-14"/>
      <point x="793" y="-14" type="curve" smooth="yes"/>
    </contour>
    <component base="knNGA"/>
  </outline>
</glyph>
<glyph name="knNNAc2.following" format="1">
  <advance width="355"/>
  <outline>
    <contour>
      <point x="-161" y="-470"/>
      <point x="-143" y="-403"/>
      <point x="-141" y="-359" type="curve"/>
      <point x="-158" y="-351" type="line"/>
      <point x="-172" y="-394"/>
      <point x="-193" y="-409"/>
      <point x="-225" y="-409" type="curve" smooth="yes"/>
      <point x="-259" y="-409"/>
      <point x="-276" y="-392"/>
      <point x="-276" y="-370" type="curve" smooth="yes"/>
      <point x="-276" y="-335"/>
      <point x="-243" y="-308"/>
      <point x="-182" y="-296" type="curve"/>
      <point x="-182" y="-283" type="line"/>
      <point x="-244" y="-270"/>
      <point x="-277" y="-242"/>
      <point x="-277" y="-202" type="curve" smooth="yes"/>
      <point x="-277" y="-166"/>
      <point x="-252" y="-142"/>
      <point x="-212" y="-142" type="curve" smooth="yes"/>
      <point x="-153" y="-142"/>
      <point x="-114" y="-196"/>
      <point x="-104" y="-256" type="curve"/>
      <point x="-91" y="-256" type="line"/>
      <point x="-82" y="-197"/>
      <point x="-38" y="-142"/>
      <point x="26" y="-142" type="curve" smooth="yes"/>
      <point x="103" y="-142"/>
      <point x="146" y="-202"/>
      <point x="146" y="-284" type="curve" smooth="yes"/>
      <point x="146" y="-367"/>
      <point x="98" y="-409"/>
      <point x="39" y="-409" type="curve" smooth="yes"/>
      <point x="-4" y="-409"/>
      <point x="-27" y="-388"/>
      <point x="-27" y="-346" type="curve" smooth="yes"/>
      <point x="-27" y="-312"/>
      <point x="-10" y="-296"/>
      <point x="22" y="-296" type="curve" smooth="yes"/>
      <point x="45" y="-296"/>
      <point x="58" y="-304"/>
      <point x="68" y="-320" type="curve"/>
      <point x="82" y="-306" type="line"/>
      <point x="72" y="-275"/>
      <point x="53" y="-253"/>
      <point x="19" y="-253" type="curve" smooth="yes"/>
      <point x="-25" y="-253"/>
      <point x="-60" y="-289"/>
      <point x="-60" y="-353" type="curve" smooth="yes"/>
      <point x="-60" y="-422"/>
      <point x="-21" y="-470"/>
      <point x="46" y="-470" type="curve" smooth="yes"/>
      <point x="132" y="-470"/>
      <point x="175" y="-389"/>
      <point x="175" y="-291" type="curve" smooth="yes"/>
      <point x="175" y="-177"/>
      <point x="118" y="-86"/>
      <point x="29" y="-86" type="curve" smooth="yes"/>
      <point x="-31" y="-86"/>
      <point x="-78" y="-127"/>
      <point x="-95" y="-188" type="curve"/>
      <point x="-101" y="-188" type="line"/>
      <point x="-117" y="-127"/>
      <point x="-160" y="-86"/>
      <point x="-215" y="-86" type="curve" smooth="yes"/>
      <point x="-269" y="-86"/>
      <point x="-310" y="-125"/>
      <point x="-310" y="-191" type="curve" smooth="yes"/>
      <point x="-310" y="-244"/>
      <point x="-284" y="-279"/>
      <point x="-239" y="-288" type="curve"/>
      <point x="-239" y="-288"/>
      <point x="-239" y="-290"/>
      <point x="-239" y="-290" type="curve"/>
      <point x="-289" y="-301"/>
      <point x="-310" y="-341"/>
      <point x="-310" y="-383" type="curve" smooth="yes"/>
      <point x="-310" y="-433"/>
      <point x="-279" y="-470"/>
      <point x="-229" y="-470" type="curve" smooth="yes"/>
    </contour>
  </outline>
</glyph>
<glyph name="knNNI" format="1">
  <advance width="942"/>
  <outline>
    <contour>
      <point x="259" y="-14"/>
      <point x="297" y="78"/>
      <point x="300" y="139" type="curve"/>
      <point x="277" y="151" type="line"/>
      <point x="256" y="88"/>
      <point x="223" y="66"/>
      <point x="178" y="66" type="curve" smooth="yes"/>
      <point x="135" y="66"/>
      <point x="112" y="90"/>
      <point x="112" y="124" type="curve" smooth="yes"/>
      <point x="112" y="172"/>
      <point x="156" y="217"/>
      <point x="243" y="231" type="curve"/>
      <point x="243" y="240" type="line"/>
      <point x="162" y="255"/>
      <point x="111" y="302"/>
      <point x="111" y="357" type="curve" smooth="yes"/>
      <point x="111" y="407"/>
      <point x="146" y="441"/>
      <point x="206" y="441" type="curve" smooth="yes"/>
      <point x="283" y="441"/>
      <point x="342" y="366"/>
      <point x="356" y="283" type="curve"/>
      <point x="365" y="283" type="line"/>
      <point x="378" y="365"/>
      <point x="443" y="441"/>
      <point x="527" y="441" type="curve" smooth="yes"/>
      <point x="640" y="441"/>
      <point x="705" y="357"/>
      <point x="705" y="249" type="curve" smooth="yes"/>
      <point x="705" y="128"/>
      <point x="633" y="71"/>
      <point x="560" y="71" type="curve" smooth="yes"/>
      <point x="498" y="71"/>
      <point x="459" y="104"/>
      <point x="459" y="156" type="curve" smooth="yes"/>
      <point x="459" y="201"/>
      <point x="488" y="227"/>
      <point x="525" y="227" type="curve" smooth="yes"/>
      <point x="555" y="227"/>
      <point x="580" y="217"/>
      <point x="591" y="193" type="curve"/>
      <point x="607" y="208" type="line"/>
      <point x="594" y="250"/>
      <point x="570" y="287"/>
      <point x="522" y="287" type="curve" smooth="yes"/>
      <point x="462" y="287"/>
      <point x="419" y="237"/>
      <point x="419" y="148" type="curve" smooth="yes"/>
      <point x="419" y="51"/>
      <point x="481" y="-14"/>
      <point x="562" y="-14" type="curve" smooth="yes"/>
      <point x="666" y="-14"/>
      <point x="740" y="97"/>
      <point x="740" y="235" type="curve" smooth="yes"/>
      <point x="740" y="392"/>
      <point x="661" y="519"/>
      <point x="539" y="519" type="curve" smooth="yes"/>
      <point x="453" y="519"/>
      <point x="385" y="461"/>
      <point x="362" y="377" type="curve"/>
      <point x="359" y="377" type="line"/>
      <point x="336" y="461"/>
      <point x="274" y="519"/>
      <point x="198" y="519" type="curve" smooth="yes"/>
      <point x="123" y="519"/>
      <point x="65" y="464"/>
      <point x="65" y="385" type="curve" smooth="yes"/>
      <point x="65" y="312"/>
      <point x="124" y="246"/>
      <point x="171" y="238" type="curve"/>
      <point x="109" y="217"/>
      <point x="65" y="164"/>
      <point x="65" y="102" type="curve" smooth="yes"/>
      <point x="65" y="36"/>
      <point x="108" y="-14"/>
      <point x="178" y="-14" type="curve" smooth="yes"/>
    </contour>
    <contour>
      <point x="811" y="399"/>
      <point x="898" y="474"/>
      <point x="898" y="579" type="curve" smooth="yes"/>
      <point x="898" y="666"/>
      <point x="837" y="759"/>
      <point x="753" y="759" type="curve" smooth="yes"/>
      <point x="694" y="759"/>
      <point x="658" y="714"/>
      <point x="658" y="645" type="curve" smooth="yes"/>
      <point x="658" y="584"/>
      <point x="698" y="535"/>
      <point x="754" y="536" type="curve" smooth="yes"/>
      <point x="812" y="537"/>
      <point x="842" y="590"/>
      <point x="842" y="648" type="curve" smooth="yes"/>
      <point x="842" y="679"/>
      <point x="835" y="697"/>
      <point x="824" y="712" type="curve"/>
      <point x="796" y="716" type="line"/>
      <point x="810" y="702"/>
      <point x="814" y="686"/>
      <point x="814" y="663" type="curve" smooth="yes"/>
      <point x="814" y="633"/>
      <point x="795" y="596"/>
      <point x="748" y="596" type="curve" smooth="yes"/>
      <point x="712" y="596"/>
      <point x="691" y="615"/>
      <point x="691" y="645" type="curve" smooth="yes"/>
      <point x="691" y="668"/>
      <point x="711" y="693"/>
      <point x="755" y="693" type="curve" smooth="yes"/>
      <point x="821" y="693"/>
      <point x="866" y="634"/>
      <point x="866" y="583" type="curve" smooth="yes"/>
      <point x="866" y="516"/>
      <point x="796" y="458"/>
      <point x="675" y="444" type="curve"/>
      <point x="661" y="386" type="line"/>
    </contour>
  </outline>
</glyph>
<glyph name="knNY" format="1">
  <advance width="1256"/>
  <outline>
    <contour>
      <point x="1190" y="265"/>
      <point x="1223" y="315"/>
      <point x="1223" y="382" type="curve" smooth="yes"/>
      <point x="1223" y="448"/>
      <point x="1180" y="509"/>
      <point x="1079" y="509" type="curve" smooth="yes"/>
      <point x="852" y="509" type="line"/>
      <point x="852" y="434" type="line"/>
      <point x="1114" y="434" type="line" smooth="yes"/>
      <point x="1177" y="434"/>
      <point x="1193" y="412"/>
      <point x="1193" y="385" type="curve" smooth="yes"/>
      <point x="1193" y="355"/>
      <point x="1177" y="334"/>
      <point x="1141" y="334" type="curve" smooth="yes"/>
      <point x="1095" y="334"/>
      <point x="1070" y="369"/>
      <point x="1070" y="410" type="curve" smooth="yes"/>
      <point x="1070" y="520"/>
      <point x="1184" y="582"/>
      <point x="1276" y="598" type="curve"/>
      <point x="1265" y="634" type="line"/>
      <point x="1153" y="607"/>
      <point x="1032" y="541"/>
      <point x="1032" y="406" type="curve" smooth="yes"/>
      <point x="1032" y="320"/>
      <point x="1081" y="265"/>
      <point x="1133" y="265" type="curve" smooth="yes"/>
    </contour>
    <component base="knNYA"/>
  </outline>
</glyph>
<glyph name="knNYE" format="1">
  <advance width="1229"/>
  <outline>
    <contour>
      <point x="616" y="-97"/>
      <point x="627" y="-85"/>
      <point x="627" y="-61" type="curve" smooth="yes"/>
      <point x="627" y="60"/>
      <point x="531" y="223"/>
      <point x="353" y="223" type="curve" smooth="yes"/>
      <point x="256" y="223"/>
      <point x="196" y="180"/>
      <point x="196" y="117" type="curve" smooth="yes"/>
      <point x="196" y="40"/>
      <point x="271" y="-14"/>
      <point x="382" y="-14" type="curve" smooth="yes"/>
      <point x="507" y="-14"/>
      <point x="630" y="78"/>
      <point x="630" y="294" type="curve"/>
      <point x="630" y="430"/>
      <point x="560" y="519"/>
      <point x="469" y="519" type="curve" smooth="yes"/>
      <point x="398" y="519"/>
      <point x="330" y="461"/>
      <point x="307" y="377" type="curve"/>
      <point x="305" y="377" type="line"/>
      <point x="282" y="461"/>
      <point x="214" y="519"/>
      <point x="145" y="519" type="curve" smooth="yes"/>
      <point x="55" y="519"/>
      <point x="10" y="456"/>
      <point x="10" y="387" type="curve" smooth="yes"/>
      <point x="10" y="352"/>
      <point x="19" y="323"/>
      <point x="40" y="296" type="curve"/>
      <point x="71" y="317" type="line"/>
      <point x="64" y="325"/>
      <point x="58" y="340"/>
      <point x="58" y="367" type="curve" smooth="yes"/>
      <point x="58" y="392"/>
      <point x="74" y="444"/>
      <point x="148" y="444" type="curve" smooth="yes"/>
      <point x="232" y="444"/>
      <point x="288" y="358"/>
      <point x="302" y="283" type="curve"/>
      <point x="310" y="283" type="line"/>
      <point x="324" y="358"/>
      <point x="380" y="444"/>
      <point x="464" y="444" type="curve" smooth="yes"/>
      <point x="537" y="444"/>
      <point x="592" y="392"/>
      <point x="592" y="295" type="curve"/>
      <point x="592" y="129"/>
      <point x="496" y="71"/>
      <point x="375" y="71" type="curve"/>
      <point x="280" y="71"/>
      <point x="249" y="96"/>
      <point x="249" y="127" type="curve" smooth="yes"/>
      <point x="249" y="153"/>
      <point x="280" y="184"/>
      <point x="352" y="184" type="curve" smooth="yes"/>
      <point x="497" y="184"/>
      <point x="579" y="48"/>
      <point x="579" y="-70" type="curve" smooth="yes"/>
      <point x="579" y="-85"/>
      <point x="590" y="-97"/>
      <point x="603" y="-97" type="curve" smooth="yes"/>
    </contour>
    <contour>
      <point x="625" y="367"/>
      <point x="680" y="444"/>
      <point x="761" y="444" type="curve" smooth="yes"/>
      <point x="835" y="444"/>
      <point x="851" y="392"/>
      <point x="851" y="367" type="curve" smooth="yes"/>
      <point x="851" y="340"/>
      <point x="845" y="325"/>
      <point x="838" y="317" type="curve"/>
      <point x="869" y="296" type="line"/>
      <point x="890" y="323"/>
      <point x="899" y="352"/>
      <point x="899" y="387" type="curve" smooth="yes"/>
      <point x="899" y="456"/>
      <point x="854" y="519"/>
      <point x="775" y="519" type="curve" smooth="yes"/>
      <point x="689" y="519"/>
      <point x="617" y="441"/>
      <point x="614" y="347" type="curve"/>
      <point x="624" y="293" type="line"/>
    </contour>
    <contour>
      <point x="1130" y="434"/>
      <point x="1184" y="480"/>
      <point x="1184" y="553" type="curve" smooth="yes"/>
      <point x="1184" y="651"/>
      <point x="1106" y="685"/>
      <point x="1049" y="685" type="curve" smooth="yes"/>
      <point x="994" y="685"/>
      <point x="966" y="657"/>
      <point x="966" y="625" type="curve" smooth="yes"/>
      <point x="966" y="592"/>
      <point x="989" y="571"/>
      <point x="1023" y="571" type="curve" smooth="yes"/>
      <point x="1057" y="571"/>
      <point x="1078" y="597"/>
      <point x="1078" y="633" type="curve" smooth="yes"/>
      <point x="1078" y="639"/>
      <point x="1080" y="643"/>
      <point x="1084" y="643" type="curve" smooth="yes"/>
      <point x="1097" y="643"/>
      <point x="1141" y="629"/>
      <point x="1141" y="577" type="curve"/>
      <point x="1141" y="530"/>
      <point x="1101" y="509"/>
      <point x="1050" y="509" type="curve"/>
      <point x="975" y="509" type="line"/>
      <point x="975" y="434" type="line"/>
      <point x="1049" y="434" type="line"/>
    </contour>
    <contour>
      <point x="883" y="335" type="line"/>
      <point x="889" y="331" type="line" smooth="yes"/>
      <point x="920" y="310"/>
      <point x="954" y="297"/>
      <point x="990" y="297" type="curve" smooth="yes"/>
      <point x="1060" y="297"/>
      <point x="1101" y="355"/>
      <point x="1101" y="419" type="curve" smooth="yes"/>
      <point x="1101" y="440"/>
      <point x="1096" y="456"/>
      <point x="1088" y="471" type="curve"/>
      <point x="1048" y="491" type="line"/>
      <point x="1058" y="479"/>
      <point x="1065" y="462"/>
      <point x="1065" y="443" type="curve" smooth="yes"/>
      <point x="1065" y="394"/>
      <point x="1031" y="360"/>
      <point x="977" y="360" type="curve" smooth="yes"/>
      <point x="944" y="360"/>
      <point x="915" y="368"/>
      <point x="885" y="386" type="curve"/>
    </contour>
  </outline>
</glyph>
<glyph name="knRAA" format="1">
  <advance width="1004"/>
  <outline>
    <contour>
      <point x="870" y="-13"/>
      <point x="944" y="93"/>
      <point x="944" y="239" type="curve" smooth="yes"/>
      <point x="944" y="390"/>
      <point x="874" y="509"/>
      <point x="636" y="509" type="curve" smooth="yes"/>
      <point x="359" y="509" type="line"/>
      <point x="359" y="434" type="line"/>
      <point x="645" y="434" type="line" smooth="yes"/>
      <point x="839" y="434"/>
      <point x="909" y="346"/>
      <point x="909" y="236" type="curve" smooth="yes"/>
      <point x="909" y="130"/>
      <point x="847" y="69"/>
      <point x="757" y="69" type="curve" smooth="yes"/>
      <point x="684" y="69"/>
      <point x="640" y="112"/>
      <point x="639" y="170" type="curve" smooth="yes"/>
      <point x="638" y="212"/>
      <point x="660" y="238"/>
      <point x="672" y="238" type="curve" smooth="yes"/>
      <point x="677" y="238"/>
      <point x="679" y="234"/>
      <point x="678" y="228" type="curve"/>
      <point x="679" y="192"/>
      <point x="700" y="166"/>
      <point x="733" y="166" type="curve" smooth="yes"/>
      <point x="768" y="166"/>
      <point x="794" y="195"/>
      <point x="793" y="231" type="curve"/>
      <point x="794" y="263"/>
      <point x="769" y="300"/>
      <point x="714" y="300" type="curve" smooth="yes"/>
      <point x="642" y="300"/>
      <point x="602" y="236"/>
      <point x="601" y="158" type="curve" smooth="yes"/>
      <point x="602" y="59"/>
      <point x="662" y="-13"/>
      <point x="758" y="-13" type="curve" smooth="yes"/>
    </contour>
    <contour>
      <point x="421" y="-14"/>
      <point x="515" y="86"/>
      <point x="515" y="226" type="curve" smooth="yes"/>
      <point x="515" y="315"/>
      <point x="469" y="398"/>
      <point x="395" y="436" type="curve" smooth="yes"/>
      <point x="363" y="453"/>
      <point x="326" y="461"/>
      <point x="285" y="461" type="curve" smooth="yes"/>
      <point x="244" y="461"/>
      <point x="207" y="453"/>
      <point x="175" y="436" type="curve" smooth="yes"/>
      <point x="101" y="398"/>
      <point x="55" y="315"/>
      <point x="55" y="226" type="curve" smooth="yes"/>
      <point x="55" y="86"/>
      <point x="149" y="-14"/>
      <point x="285" y="-14" type="curve" smooth="yes"/>
    </contour>
    <contour>
      <point x="175" y="71"/>
      <point x="100" y="144"/>
      <point x="100" y="247" type="curve" smooth="yes"/>
      <point x="100" y="348"/>
      <point x="184" y="433"/>
      <point x="285" y="433" type="curve" smooth="yes"/>
      <point x="386" y="433"/>
      <point x="470" y="349"/>
      <point x="470" y="248" type="curve" smooth="yes"/>
      <point x="470" y="145"/>
      <point x="394" y="71"/>
      <point x="285" y="71" type="curve" smooth="yes"/>
    </contour>
    <contour>
      <point x="218" y="434" type="line"/>
      <point x="284" y="451" type="line"/>
      <point x="348" y="434" type="line"/>
      <point x="380" y="434" type="line"/>
      <point x="380" y="509" type="line"/>
      <point x="55" y="509" type="line"/>
      <point x="55" y="434" type="line"/>
    </contour>
  </outline>
</glyph>
<glyph name="knRAc2" format="1">
  <advance width="62"/>
  <outline>
    <contour>
      <point x="-116" y="-228"/>
      <point x="32" y="-163"/>
      <point x="32" y="-38" type="curve" smooth="yes"/>
      <point x="32" y="0"/>
      <point x="19" y="17"/>
      <point x="10" y="27" type="curve" smooth="yes"/>
      <point x="3" y="34"/>
      <point x="-1" y="44"/>
      <point x="-1" y="51" type="curve" smooth="yes"/>
      <point x="-1" y="66"/>
      <point x="6" y="73"/>
      <point x="20" y="73" type="curve" smooth="yes"/>
      <point x="47" y="73"/>
      <point x="56" y="34"/>
      <point x="56" y="-8" type="curve" smooth="yes"/>
      <point x="56" y="-144"/>
      <point x="-26" y="-272"/>
      <point x="-241" y="-272" type="curve" smooth="yes"/>
      <point x="-321" y="-272"/>
      <point x="-380" y="-252"/>
      <point x="-421" y="-225" type="curve"/>
      <point x="-417" y="-205" type="line"/>
      <point x="-377" y="-220"/>
      <point x="-328" y="-228"/>
      <point x="-272" y="-228" type="curve" smooth="yes"/>
    </contour>
  </outline>
</glyph>
<glyph name="knRRAc2.following" format="1">
  <advance width="376"/>
  <outline>
    <contour>
      <point x="52" y="-263" type="line"/>
      <point x="52" y="-212" type="line"/>
      <point x="-194" y="-212" type="line"/>
      <point x="-194" y="-263" type="line"/>
    </contour>
    <contour>
      <point x="-80" y="-301" type="line"/>
      <point x="-90" y="-355"/>
      <point x="-134" y="-409"/>
      <point x="-198" y="-409" type="curve" smooth="yes"/>
      <point x="-258" y="-409"/>
      <point x="-292" y="-353"/>
      <point x="-292" y="-284" type="curve" smooth="yes"/>
      <point x="-292" y="-197"/>
      <point x="-264" y="-133"/>
      <point x="-197" y="-133" type="curve" smooth="yes"/>
      <point x="-165" y="-133"/>
      <point x="-148" y="-143"/>
      <point x="-148" y="-171" type="curve" smooth="yes"/>
      <point x="-148" y="-197"/>
      <point x="-160" y="-212"/>
      <point x="-199" y="-212" type="curve" smooth="yes"/>
      <point x="-234" y="-212"/>
      <point x="-252" y="-197"/>
      <point x="-252" y="-166" type="curve" smooth="yes"/>
      <point x="-252" y="-158"/>
      <point x="-249" y="-143"/>
      <point x="-247" y="-136" type="curve"/>
      <point x="-239" y="-118"/>
      <point x="-242" y="-99"/>
      <point x="-253" y="-102" type="curve"/>
      <point x="-269" y="-151" type="line"/>
      <point x="-271" y="-167"/>
      <point x="-272" y="-176"/>
      <point x="-272" y="-186" type="curve" smooth="yes"/>
      <point x="-272" y="-238"/>
      <point x="-241" y="-263"/>
      <point x="-193" y="-263" type="curve" smooth="yes"/>
      <point x="-145" y="-263"/>
      <point x="-116" y="-232"/>
      <point x="-116" y="-174" type="curve" smooth="yes"/>
      <point x="-116" y="-121"/>
      <point x="-135" y="-86"/>
      <point x="-200" y="-86" type="curve" smooth="yes"/>
      <point x="-274" y="-86"/>
      <point x="-327" y="-178"/>
      <point x="-327" y="-292" type="curve" smooth="yes"/>
      <point x="-327" y="-401"/>
      <point x="-277" y="-470"/>
      <point x="-198" y="-470" type="curve" smooth="yes"/>
      <point x="-137" y="-470"/>
      <point x="-90" y="-429"/>
      <point x="-74" y="-369" type="curve"/>
      <point x="-68" y="-369" type="line"/>
      <point x="-52" y="-429"/>
      <point x="-5" y="-470"/>
      <point x="56" y="-470" type="curve" smooth="yes"/>
      <point x="135" y="-470"/>
      <point x="185" y="-401"/>
      <point x="185" y="-292" type="curve" smooth="yes"/>
      <point x="185" y="-178"/>
      <point x="132" y="-86"/>
      <point x="58" y="-86" type="curve" smooth="yes"/>
      <point x="-7" y="-86"/>
      <point x="-26" y="-121"/>
      <point x="-26" y="-174" type="curve" smooth="yes"/>
      <point x="-26" y="-232"/>
      <point x="3" y="-263"/>
      <point x="51" y="-263" type="curve" smooth="yes"/>
      <point x="99" y="-263"/>
      <point x="130" y="-238"/>
      <point x="130" y="-186" type="curve" smooth="yes"/>
      <point x="130" y="-176"/>
      <point x="129" y="-167"/>
      <point x="127" y="-151" type="curve"/>
      <point x="111" y="-102" type="line"/>
      <point x="100" y="-99"/>
      <point x="97" y="-118"/>
      <point x="105" y="-136" type="curve"/>
      <point x="107" y="-143"/>
      <point x="110" y="-158"/>
      <point x="110" y="-166" type="curve" smooth="yes"/>
      <point x="110" y="-197"/>
      <point x="92" y="-212"/>
      <point x="57" y="-212" type="curve" smooth="yes"/>
      <point x="18" y="-212"/>
      <point x="6" y="-197"/>
      <point x="6" y="-171" type="curve" smooth="yes"/>
      <point x="6" y="-143"/>
      <point x="23" y="-133"/>
      <point x="55" y="-133" type="curve" smooth="yes"/>
      <point x="122" y="-133"/>
      <point x="150" y="-197"/>
      <point x="150" y="-284" type="curve" smooth="yes"/>
      <point x="150" y="-353"/>
      <point x="116" y="-409"/>
      <point x="56" y="-409" type="curve" smooth="yes"/>
      <point x="-8" y="-409"/>
      <point x="-52" y="-355"/>
      <point x="-62" y="-301" type="curve"/>
    </contour>
  </outline>
</glyph>
<glyph name="knReph" format="1">
  <advance width="517"/>
  <outline>
    <contour>
      <point x="361" y="293" type="line"/>
      <point x="339" y="293"/>
      <point x="250" y="292"/>
      <point x="212" y="293" type="curve" smooth="yes"/>
      <point x="122" y="292"/>
      <point x="91" y="326"/>
      <point x="91" y="365" type="curve" smooth="yes"/>
      <point x="91" y="403"/>
      <point x="120" y="434"/>
      <point x="223" y="434" type="curve" smooth="yes"/>
      <point x="492" y="434" type="line"/>
      <point x="492" y="508" type="line"/>
      <point x="219" y="508" type="line" smooth="yes"/>
      <point x="101" y="508"/>
      <point x="55" y="444"/>
      <point x="55" y="369" type="curve" smooth="yes"/>
      <point x="55" y="286"/>
      <point x="119" y="220"/>
      <point x="216" y="220" type="curve" smooth="yes"/>
      <point x="246" y="220"/>
      <point x="314" y="220"/>
      <point x="361" y="220" type="curve"/>
    </contour>
    <contour>
      <point x="336" y="293" type="line"/>
      <point x="278" y="293" type="line"/>
      <point x="186" y="293"/>
      <point x="98" y="241"/>
      <point x="98" y="140" type="curve" smooth="yes"/>
      <point x="98" y="46"/>
      <point x="166" y="-14"/>
      <point x="236" y="-14" type="curve" smooth="yes"/>
      <point x="272" y="-14"/>
      <point x="290" y="7"/>
      <point x="290" y="27" type="curve" smooth="yes"/>
      <point x="290" y="44"/>
      <point x="281" y="56"/>
      <point x="267" y="63" type="curve" smooth="yes"/>
      <point x="252" y="71"/>
      <point x="228" y="65"/>
      <point x="197" y="73" type="curve" smooth="yes"/>
      <point x="156" y="83"/>
      <point x="133" y="107"/>
      <point x="133" y="142" type="curve" smooth="yes"/>
      <point x="133" y="178"/>
      <point x="158" y="220"/>
      <point x="249" y="220" type="curve"/>
      <point x="336" y="220" type="line"/>
    </contour>
  </outline>
</glyph>
<glyph name="knSE" format="1">
  <advance width="679"/>
  <outline>
    <contour>
      <point x="110" y="120"/>
      <point x="162" y="170"/>
      <point x="228" y="170" type="curve" smooth="yes"/>
      <point x="375" y="170"/>
      <point x="397" y="-14"/>
      <point x="510" y="-14" type="curve" smooth="yes"/>
      <point x="587" y="-14"/>
      <point x="620" y="62"/>
      <point x="620" y="150" type="curve" smooth="yes"/>
      <point x="620" y="237"/>
      <point x="591" y="319"/>
      <point x="531" y="377" type="curve"/>
      <point x="508" y="360" type="line"/>
      <point x="550" y="310"/>
      <point x="576" y="249"/>
      <point x="576" y="188" type="curve" smooth="yes"/>
      <point x="576" y="114"/>
      <point x="546" y="71"/>
      <point x="497" y="71" type="curve" smooth="yes"/>
      <point x="379" y="71"/>
      <point x="362" y="247"/>
      <point x="229" y="247" type="curve" smooth="yes"/>
      <point x="134" y="247"/>
      <point x="74" y="144"/>
      <point x="74" y="-6" type="curve"/>
      <point x="103" y="-14" type="line"/>
    </contour>
    <contour>
      <point x="355" y="288"/>
      <point x="377" y="314"/>
      <point x="377" y="347" type="curve" smooth="yes"/>
      <point x="377" y="380"/>
      <point x="355" y="404"/>
      <point x="319" y="404" type="curve" smooth="yes"/>
      <point x="283" y="404"/>
      <point x="261" y="380"/>
      <point x="261" y="347" type="curve" smooth="yes"/>
      <point x="261" y="314"/>
      <point x="283" y="288"/>
      <point x="319" y="288" type="curve" smooth="yes"/>
    </contour>
    <contour>
      <point x="489" y="434" type="line" smooth="yes"/>
      <point x="570" y="434"/>
      <point x="624" y="480"/>
      <point x="624" y="552" type="curve" smooth="yes"/>
      <point x="624" y="607"/>
      <point x="593" y="648"/>
      <point x="550" y="664" type="curve"/>
      <point x="535" y="644" type="line"/>
      <point x="559" y="635"/>
      <point x="581" y="610"/>
      <point x="581" y="576" type="curve" smooth="yes"/>
      <point x="581" y="536"/>
      <point x="550" y="509"/>
      <point x="489" y="509" type="curve" smooth="yes"/>
      <point x="45" y="509" type="line"/>
      <point x="45" y="434" type="line"/>
    </contour>
    <contour>
      <point x="570" y="434"/>
      <point x="624" y="480"/>
      <point x="624" y="553" type="curve" smooth="yes"/>
      <point x="624" y="651"/>
      <point x="546" y="685"/>
      <point x="489" y="685" type="curve" smooth="yes"/>
      <point x="434" y="685"/>
      <point x="406" y="657"/>
      <point x="406" y="625" type="curve" smooth="yes"/>
      <point x="406" y="592"/>
      <point x="429" y="571"/>
      <point x="463" y="571" type="curve" smooth="yes"/>
      <point x="497" y="571"/>
      <point x="518" y="597"/>
      <point x="518" y="633" type="curve" smooth="yes"/>
      <point x="518" y="639"/>
      <point x="520" y="643"/>
      <point x="524" y="643" type="curve" smooth="yes"/>
      <point x="537" y="643"/>
      <point x="581" y="629"/>
      <point x="581" y="577" type="curve"/>
      <point x="581" y="530"/>
      <point x="541" y="509"/>
      <point x="490" y="509" type="curve"/>
      <point x="489" y="434" type="line"/>
    </contour>
  </outline>
</glyph>
<glyph name="knSHAA" format="1">
  <advance width="1022"/>
  <outline>
    <contour>
      <point x="888" y="-13"/>
      <point x="962" y="93"/>
      <point x="962" y="239" type="curve" smooth="yes"/>
      <point x="962" y="390"/>
      <point x="892" y="509"/>
      <point x="654" y="509" type="curve" smooth="yes"/>
      <point x="377" y="509" type="line"/>
      <point x="377" y="434" type="line"/>
      <point x="663" y="434" type="line" smooth="yes"/>
      <point x="857" y="434"/>
      <point x="927" y="346"/>
      <point x="927" y="236" type="curve" smooth="yes"/>
      <point x="927" y="130"/>
      <point x="865" y="69"/>
      <point x="775" y="69" type="curve" smooth="yes"/>
      <point x="702" y="69"/>
      <point x="658" y="112"/>
      <point x="657" y="170" type="curve" smooth="yes"/>
      <point x="656" y="212"/>
      <point x="678" y="238"/>
      <point x="690" y="238" type="curve" smooth="yes"/>
      <point x="695" y="238"/>
      <point x="697" y="234"/>
      <point x="696" y="228" type="curve"/>
      <point x="697" y="192"/>
      <point x="718" y="166"/>
      <point x="751" y="166" type="curve" smooth="yes"/>
      <point x="786" y="166"/>
      <point x="812" y="195"/>
      <point x="811" y="231" type="curve"/>
      <point x="812" y="263"/>
      <point x="787" y="300"/>
      <point x="732" y="300" type="curve" smooth="yes"/>
      <point x="660" y="300"/>
      <point x="620" y="236"/>
      <point x="619" y="158" type="curve" smooth="yes"/>
      <point x="620" y="59"/>
      <point x="680" y="-13"/>
      <point x="776" y="-13" type="curve" smooth="yes"/>
    </contour>
    <contour>
      <point x="418" y="-14"/>
      <point x="519" y="90"/>
      <point x="519" y="236" type="curve" smooth="yes"/>
      <point x="519" y="379"/>
      <point x="418" y="469"/>
      <point x="275" y="470" type="curve" smooth="yes"/>
      <point x="182" y="471"/>
      <point x="141" y="426"/>
      <point x="141" y="377" type="curve" smooth="yes"/>
      <point x="141" y="342"/>
      <point x="167" y="308"/>
      <point x="214" y="308" type="curve" smooth="yes"/>
      <point x="248" y="308"/>
      <point x="266" y="331"/>
      <point x="266" y="353" type="curve" smooth="yes"/>
      <point x="266" y="375"/>
      <point x="250" y="393"/>
      <point x="228" y="393" type="curve" smooth="yes"/>
      <point x="208" y="393"/>
      <point x="194" y="376"/>
      <point x="194" y="354" type="curve" smooth="yes"/>
      <point x="194" y="351"/>
      <point x="193" y="347"/>
      <point x="189" y="347" type="curve" smooth="yes"/>
      <point x="180" y="347"/>
      <point x="172" y="360"/>
      <point x="172" y="378" type="curve" smooth="yes"/>
      <point x="172" y="412"/>
      <point x="206" y="439"/>
      <point x="249" y="439" type="curve" smooth="yes"/>
      <point x="292" y="439"/>
      <point x="330" y="399"/>
      <point x="330" y="346" type="curve" smooth="yes"/>
      <point x="330" y="273"/>
      <point x="271" y="261"/>
      <point x="175" y="261" type="curve" smooth="yes"/>
      <point x="102" y="261"/>
      <point x="55" y="222"/>
      <point x="55" y="163" type="curve" smooth="yes"/>
      <point x="55" y="66"/>
      <point x="133" y="-14"/>
      <point x="260" y="-14" type="curve" smooth="yes"/>
    </contour>
    <contour>
      <point x="165" y="71"/>
      <point x="102" y="126"/>
      <point x="102" y="174" type="curve" smooth="yes"/>
      <point x="102" y="209"/>
      <point x="125" y="231"/>
      <point x="209" y="231" type="curve" smooth="yes"/>
      <point x="322" y="231"/>
      <point x="362" y="274"/>
      <point x="362" y="339" type="curve" smooth="yes"/>
      <point x="362" y="383"/>
      <point x="345" y="420"/>
      <point x="313" y="440" type="curve"/>
      <point x="394" y="435"/>
      <point x="469" y="373"/>
      <point x="469" y="263" type="curve" smooth="yes"/>
      <point x="469" y="138"/>
      <point x="390" y="71"/>
      <point x="259" y="71" type="curve" smooth="yes"/>
    </contour>
    <contour>
      <point x="194" y="434" type="line"/>
      <point x="295" y="459" type="line"/>
      <point x="403" y="434" type="line"/>
      <point x="403" y="509" type="line"/>
      <point x="58" y="509" type="line"/>
      <point x="58" y="434" type="line"/>
    </contour>
  </outline>
</glyph>
<glyph name="knSSAc2" format="1">
  <advance width="56"/>
  <outline>
    <contour>
      <point x="-128" y="-419"/>
      <point x="-79" y="-388"/>
      <point x="-65" y="-331" type="curve"/>
      <point x="-59" y="-331" type="line"/>
      <point x="-45" y="-388"/>
      <point x="4" y="-419"/>
      <point x="50" y="-419" type="curve" smooth="yes"/>
      <point x="113" y="-419"/>
      <point x="139" y="-351"/>
      <point x="139" y="-271" type="curve" smooth="yes"/>
      <point x="139" y="-66"/>
      <point x="52" y="45"/>
      <point x="15" y="45" type="curve" smooth="yes"/>
      <point x="0" y="45"/>
      <point x="-8" y="37"/>
      <point x="-8" y="23" type="curve" smooth="yes"/>
      <point x="-8" y="11"/>
      <point x="-1" y="4"/>
      <point x="10" y="-4" type="curve" smooth="yes"/>
      <point x="28" y="-19"/>
      <point x="116" y="-110"/>
      <point x="116" y="-251" type="curve" smooth="yes"/>
      <point x="116" y="-309"/>
      <point x="97" y="-365"/>
      <point x="41" y="-365" type="curve" smooth="yes"/>
      <point x="-6" y="-365"/>
      <point x="-45" y="-309"/>
      <point x="-55" y="-257" type="curve"/>
      <point x="-69" y="-257" type="line"/>
      <point x="-79" y="-309"/>
      <point x="-122" y="-365"/>
      <point x="-173" y="-365" type="curve" smooth="yes"/>
      <point x="-209" y="-365"/>
      <point x="-232" y="-345"/>
      <point x="-232" y="-305" type="curve" smooth="yes"/>
      <point x="-232" y="-270"/>
      <point x="-213" y="-251"/>
      <point x="-186" y="-251" type="curve" smooth="yes"/>
      <point x="-166" y="-251"/>
      <point x="-153" y="-264"/>
      <point x="-144" y="-281" type="curve"/>
      <point x="-127" y="-267" type="line"/>
      <point x="-135" y="-239"/>
      <point x="-155" y="-211"/>
      <point x="-188" y="-211" type="curve" smooth="yes"/>
      <point x="-238" y="-211"/>
      <point x="-260" y="-243"/>
      <point x="-260" y="-309" type="curve" smooth="yes"/>
      <point x="-260" y="-375"/>
      <point x="-233" y="-419"/>
      <point x="-174" y="-419" type="curve" smooth="yes"/>
    </contour>
    <contour>
      <point x="171" y="-457"/>
      <point x="177" y="-472"/>
      <point x="194" y="-472" type="curve" smooth="yes"/>
      <point x="211" y="-472"/>
      <point x="219" y="-459"/>
      <point x="219" y="-442" type="curve"/>
      <point x="219" y="-359"/>
      <point x="201" y="-282"/>
      <point x="129" y="-158" type="curve"/>
      <point x="122" y="-201" type="line"/>
      <point x="167" y="-282"/>
      <point x="171" y="-370"/>
      <point x="171" y="-432" type="curve"/>
    </contour>
  </outline>
</glyph>
<glyph name="knTA.base" format="1">
  <advance width="594"/>
  <outline>
    <contour>
      <point x="444" y="-14"/>
      <point x="539" y="75"/>
      <point x="539" y="191" type="curve" smooth="yes"/>
      <point x="539" y="307"/>
      <point x="440" y="380"/>
      <point x="332" y="380" type="curve" smooth="yes"/>
      <point x="235" y="380"/>
      <point x="178" y="342"/>
      <point x="178" y="287" type="curve" smooth="yes"/>
      <point x="178" y="230"/>
      <point x="234" y="189"/>
      <point x="305" y="189" type="curve" smooth="yes"/>
      <point x="385" y="189"/>
      <point x="452" y="242"/>
      <point x="452" y="322" type="curve" smooth="yes"/>
      <point x="452" y="385"/>
      <point x="405" y="437"/>
      <point x="359" y="449" type="curve"/>
      <point x="294" y="440" type="line"/>
      <point x="348" y="440"/>
      <point x="414" y="394"/>
      <point x="414" y="338" type="curve" smooth="yes"/>
      <point x="414" y="279"/>
      <point x="367" y="247"/>
      <point x="311" y="247" type="curve" smooth="yes"/>
      <point x="263" y="247"/>
      <point x="233" y="265"/>
      <point x="233" y="294" type="curve" smooth="yes"/>
      <point x="233" y="325"/>
      <point x="271" y="344"/>
      <point x="331" y="344" type="curve" smooth="yes"/>
      <point x="420" y="344"/>
      <point x="493" y="293"/>
      <point x="493" y="213" type="curve" smooth="yes"/>
      <point x="493" y="139"/>
      <point x="422" y="71"/>
      <point x="300" y="71" type="curve" smooth="yes"/>
      <point x="173" y="71"/>
      <point x="97" y="129"/>
      <point x="97" y="199" type="curve" smooth="yes"/>
      <point x="97" y="220"/>
      <point x="100" y="239"/>
      <point x="108" y="254" type="curve"/>
      <point x="84" y="258" type="line"/>
      <point x="72" y="240"/>
      <point x="60" y="204"/>
      <point x="60" y="170" type="curve" smooth="yes"/>
      <point x="60" y="76"/>
      <point x="145" y="-14"/>
      <point x="296" y="-14" type="curve" smooth="yes"/>
    </contour>
    <contour>
      <point x="394" y="434" type="line"/>
      <point x="394" y="509" type="line"/>
      <point x="73" y="509" type="line"/>
      <point x="73" y="434" type="line"/>
    </contour>
  </outline>
</glyph>
<glyph name="knTAc2.following" format="1">
  <advance width="494"/>
  <outline>
    <contour>
      <point x="-377" y="-240"/>
      <point x="-381" y="-230"/>
      <point x="-381" y="-213" type="curve" smooth="yes"/>
      <point x="-381" y="-196"/>
      <point x="-377" y="-186"/>
      <point x="-372" y="-186" type="curve"/>
      <point x="-37" y="-186" type="line"/>
      <point x="-10" y="-186"/>
      <point x="15" y="-176"/>
      <point x="15" y="-148" type="curve" smooth="yes"/>
      <point x="15" y="-122"/>
      <point x="-5" y="-107"/>
      <point x="-39" y="-107" type="curve" smooth="yes"/>
      <point x="-69" y="-107"/>
      <point x="-92" y="-122"/>
      <point x="-92" y="-151" type="curve" smooth="yes"/>
      <point x="-92" y="-171"/>
      <point x="-81" y="-192"/>
      <point x="-47" y="-203" type="curve"/>
      <point x="-100" y="-198" type="line"/>
      <point x="-110" y="-183"/>
      <point x="-112" y="-168"/>
      <point x="-112" y="-152" type="curve" smooth="yes"/>
      <point x="-112" y="-95"/>
      <point x="-81" y="-56"/>
      <point x="-37" y="-56" type="curve" smooth="yes"/>
      <point x="6" y="-56"/>
      <point x="36" y="-93"/>
      <point x="36" y="-142" type="curve" smooth="yes"/>
      <point x="36" y="-188"/>
      <point x="10" y="-240"/>
      <point x="-62" y="-240" type="curve"/>
      <point x="-372" y="-240" type="line"/>
    </contour>
  </outline>
</glyph>
<glyph name="knTI" format="1">
  <advance width="563"/>
  <outline>
    <contour>
      <point x="466" y="562"/>
      <point x="341" y="715"/>
      <point x="233" y="715" type="curve" smooth="yes"/>
      <point x="174" y="715"/>
      <point x="138" y="670"/>
      <point x="138" y="601" type="curve" smooth="yes"/>
      <point x="138" y="540"/>
      <point x="178" y="491"/>
      <point x="234" y="492" type="curve" smooth="yes"/>
      <point x="292" y="493"/>
      <point x="322" y="546"/>
      <point x="322" y="604" type="curve" smooth="yes"/>
      <point x="322" y="635"/>
      <point x="315" y="653"/>
      <point x="304" y="668" type="curve"/>
      <point x="276" y="672" type="line"/>
      <point x="290" y="658"/>
      <point x="294" y="642"/>
      <point x="294" y="619" type="curve" smooth="yes"/>
      <point x="294" y="589"/>
      <point x="275" y="552"/>
      <point x="228" y="552" type="curve" smooth="yes"/>
      <point x="192" y="552"/>
      <point x="171" y="571"/>
      <point x="171" y="601" type="curve" smooth="yes"/>
      <point x="171" y="624"/>
      <point x="191" y="649"/>
      <point x="235" y="649" type="curve" smooth="yes"/>
      <point x="331" y="649"/>
      <point x="431" y="537"/>
      <point x="431" y="408" type="curve"/>
      <point x="431" y="299"/>
      <point x="367" y="247"/>
      <point x="301" y="247" type="curve" smooth="yes"/>
      <point x="263" y="247"/>
      <point x="233" y="265"/>
      <point x="233" y="294" type="curve" smooth="yes"/>
      <point x="233" y="325"/>
      <point x="271" y="344"/>
      <point x="331" y="344" type="curve" smooth="yes"/>
      <point x="420" y="344"/>
      <point x="493" y="293"/>
      <point x="493" y="213" type="curve" smooth="yes"/>
      <point x="493" y="139"/>
      <point x="422" y="71"/>
      <point x="300" y="71" type="curve" smooth="yes"/>
      <point x="173" y="71"/>
      <point x="97" y="129"/>
      <point x="97" y="199" type="curve" smooth="yes"/>
      <point x="97" y="220"/>
      <point x="100" y="239"/>
      <point x="108" y="254" type="curve"/>
      <point x="84" y="258" type="line"/>
      <point x="72" y="240"/>
      <point x="60" y="204"/>
      <point x="60" y="170" type="curve" smooth="yes"/>
      <point x="60" y="76"/>
      <point x="145" y="-14"/>
      <point x="296" y="-14" type="curve" smooth="yes"/>
      <point x="444" y="-14"/>
      <point x="539" y="75"/>
      <point x="539" y="191" type="curve" smooth="yes"/>
      <point x="539" y="307"/>
      <point x="440" y="380"/>
      <point x="332" y="380" type="curve" smooth="yes"/>
      <point x="235" y="380"/>
      <point x="178" y="342"/>
      <point x="178" y="287" type="curve" smooth="yes"/>
      <point x="178" y="230"/>
      <point x="234" y="189"/>
      <point x="305" y="189" type="curve" smooth="yes"/>
      <point x="385" y="189"/>
      <point x="466" y="252"/>
      <point x="466" y="412" type="curve"/>
    </contour>
  </outline>
</glyph>
<glyph name="knTTHAc2.following" format="1">
  <advance width="296"/>
  <outline>
    <contour>
      <point x="69" y="-470"/>
      <point x="133" y="-393"/>
      <point x="133" y="-296" type="curve" smooth="yes"/>
      <point x="133" y="-190"/>
      <point x="66" y="-117"/>
      <point x="-42" y="-117" type="curve" smooth="yes"/>
      <point x="-148" y="-117"/>
      <point x="-215" y="-190"/>
      <point x="-215" y="-296" type="curve" smooth="yes"/>
      <point x="-215" y="-393"/>
      <point x="-151" y="-470"/>
      <point x="-42" y="-470" type="curve" smooth="yes"/>
    </contour>
    <contour>
      <point x="-120" y="-409"/>
      <point x="-173" y="-354"/>
      <point x="-173" y="-281" type="curve" smooth="yes"/>
      <point x="-173" y="-200"/>
      <point x="-118" y="-152"/>
      <point x="-42" y="-152" type="curve" smooth="yes"/>
      <point x="35" y="-152"/>
      <point x="90" y="-200"/>
      <point x="90" y="-281" type="curve" smooth="yes"/>
      <point x="90" y="-354"/>
      <point x="37" y="-409"/>
      <point x="-42" y="-409" type="curve" smooth="yes"/>
    </contour>
    <contour>
      <point x="-18" y="-308"/>
      <point x="-4" y="-294"/>
      <point x="-4" y="-270" type="curve" smooth="yes"/>
      <point x="-4" y="-245"/>
      <point x="-18" y="-231"/>
      <point x="-42" y="-231" type="curve" smooth="yes"/>
      <point x="-67" y="-231"/>
      <point x="-81" y="-245"/>
      <point x="-81" y="-270" type="curve" smooth="yes"/>
      <point x="-81" y="-294"/>
      <point x="-67" y="-308"/>
      <point x="-42" y="-308" type="curve" smooth="yes"/>
    </contour>
  </outline>
</glyph>
<glyph name="knTTI" format="1">
  <advance width="791"/>
  <outline>
    <contour>
      <point x="318" y="-14"/>
      <point x="386" y="43"/>
      <point x="409" y="126" type="curve"/>
      <point x="411" y="126" type="line"/>
      <point x="434" y="43"/>
      <point x="502" y="-14"/>
      <point x="572" y="-14" type="curve" smooth="yes"/>
      <point x="683" y="-14"/>
      <point x="745" y="78"/>
      <point x="745" y="214" type="curve" smooth="yes"/>
      <point x="745" y="329"/>
      <point x="683" y="409"/>
      <point x="575" y="425" type="curve"/>
      <point x="545" y="425" type="line"/>
      <point x="561" y="386" type="line"/>
      <point x="659" y="378"/>
      <point x="706" y="302"/>
      <point x="706" y="227" type="curve" smooth="yes"/>
      <point x="706" y="138"/>
      <point x="654" y="71"/>
      <point x="566" y="71" type="curve" smooth="yes"/>
      <point x="493" y="71"/>
      <point x="427" y="146"/>
      <point x="414" y="221" type="curve"/>
      <point x="405" y="221" type="line"/>
      <point x="391" y="145"/>
      <point x="323" y="71"/>
      <point x="248" y="71" type="curve" smooth="yes"/>
      <point x="157" y="71"/>
      <point x="100" y="149"/>
      <point x="100" y="252" type="curve" smooth="yes"/>
      <point x="100" y="345"/>
      <point x="142" y="414"/>
      <point x="235" y="414" type="curve" smooth="yes"/>
      <point x="273" y="414"/>
      <point x="307" y="400"/>
      <point x="307" y="361" type="curve" smooth="yes"/>
      <point x="307" y="325"/>
      <point x="279" y="304"/>
      <point x="232" y="304" type="curve" smooth="yes"/>
      <point x="190" y="304"/>
      <point x="159" y="325"/>
      <point x="159" y="368" type="curve" smooth="yes"/>
      <point x="159" y="379"/>
      <point x="163" y="400"/>
      <point x="166" y="410" type="curve"/>
      <point x="135" y="389" type="line"/>
      <point x="132" y="367"/>
      <point x="131" y="354"/>
      <point x="131" y="341" type="curve" smooth="yes"/>
      <point x="131" y="268"/>
      <point x="174" y="233"/>
      <point x="232" y="233" type="curve" smooth="yes"/>
      <point x="295" y="233"/>
      <point x="337" y="285"/>
      <point x="337" y="351" type="curve" smooth="yes"/>
      <point x="337" y="417"/>
      <point x="301" y="479"/>
      <point x="230" y="479" type="curve" smooth="yes"/>
      <point x="128" y="479"/>
      <point x="60" y="372"/>
      <point x="60" y="241" type="curve" smooth="yes"/>
      <point x="60" y="82"/>
      <point x="137" y="-14"/>
      <point x="248" y="-14" type="curve" smooth="yes"/>
    </contour>
    <contour>
      <point x="234" y="468" type="line"/>
      <point x="192" y="497"/>
      <point x="174" y="524"/>
      <point x="174" y="561" type="curve" smooth="yes"/>
      <point x="174" y="606"/>
      <point x="197" y="637"/>
      <point x="249" y="649" type="curve"/>
      <point x="240" y="671" type="line"/>
      <point x="156" y="666"/>
      <point x="110" y="620"/>
      <point x="110" y="566" type="curve" smooth="yes"/>
      <point x="110" y="511"/>
      <point x="159" y="471"/>
      <point x="213" y="452" type="curve"/>
    </contour>
    <contour>
      <point x="657" y="399"/>
      <point x="729" y="471"/>
      <point x="729" y="565" type="curve" smooth="yes"/>
      <point x="729" y="652"/>
      <point x="668" y="745"/>
      <point x="584" y="745" type="curve" smooth="yes"/>
      <point x="525" y="745"/>
      <point x="489" y="700"/>
      <point x="489" y="631" type="curve" smooth="yes"/>
      <point x="489" y="570"/>
      <point x="529" y="521"/>
      <point x="585" y="522" type="curve" smooth="yes"/>
      <point x="643" y="523"/>
      <point x="673" y="576"/>
      <point x="673" y="634" type="curve" smooth="yes"/>
      <point x="673" y="665"/>
      <point x="666" y="683"/>
      <point x="655" y="698" type="curve"/>
      <point x="627" y="702" type="line"/>
      <point x="641" y="688"/>
      <point x="645" y="672"/>
      <point x="645" y="649" type="curve" smooth="yes"/>
      <point x="645" y="619"/>
      <point x="626" y="582"/>
      <point x="579" y="582" type="curve" smooth="yes"/>
      <point x="543" y="582"/>
      <point x="522" y="601"/>
      <point x="522" y="631" type="curve" smooth="yes"/>
      <point x="522" y="654"/>
      <point x="542" y="679"/>
      <point x="586" y="679" type="curve" smooth="yes"/>
      <point x="652" y="679"/>
      <point x="697" y="620"/>
      <point x="697" y="569" type="curve" smooth="yes"/>
      <point x="697" y="502"/>
      <point x="627" y="444"/>
      <point x="506" y="430" type="curve"/>
      <point x="535" y="379" type="line"/>
    </contour>
  </outline>
</glyph>
<glyph name="knYI" format="1">
  <advance width="1251"/>
  <outline>
    <contour>
      <point x="424" y="-14"/>
      <point x="515" y="99"/>
      <point x="515" y="250" type="curve" smooth="yes"/>
      <point x="515" y="402"/>
      <point x="425" y="519"/>
      <point x="286" y="519" type="curve" smooth="yes"/>
      <point x="147" y="519"/>
      <point x="55" y="402"/>
      <point x="55" y="250" type="curve" smooth="yes"/>
      <point x="55" y="99"/>
      <point x="146" y="-14"/>
      <point x="285" y="-14" type="curve" smooth="yes"/>
    </contour>
    <contour>
      <point x="184" y="71"/>
      <point x="95" y="144"/>
      <point x="95" y="259" type="curve" smooth="yes"/>
      <point x="95" y="369"/>
      <point x="175" y="441"/>
      <point x="286" y="441" type="curve" smooth="yes"/>
      <point x="397" y="441"/>
      <point x="477" y="369"/>
      <point x="477" y="254" type="curve" smooth="yes"/>
      <point x="477" y="144"/>
      <point x="386" y="71"/>
      <point x="285" y="71" type="curve" smooth="yes"/>
    </contour>
    <contour>
      <point x="1091" y="-14"/>
      <point x="1171" y="95"/>
      <point x="1171" y="242" type="curve" smooth="yes"/>
      <point x="1171" y="415"/>
      <point x="1075" y="513"/>
      <point x="1004" y="513" type="curve" smooth="yes"/>
      <point x="973" y="513"/>
      <point x="956" y="493"/>
      <point x="956" y="470" type="curve" smooth="yes"/>
      <point x="956" y="451"/>
      <point x="968" y="435"/>
      <point x="984" y="430" type="curve" smooth="yes"/>
      <point x="1007" y="423"/>
      <point x="1028" y="428"/>
      <point x="1052" y="420" type="curve" smooth="yes"/>
      <point x="1089" y="407"/>
      <point x="1136" y="344"/>
      <point x="1136" y="255" type="curve" smooth="yes"/>
      <point x="1136" y="137"/>
      <point x="1066" y="71"/>
      <point x="978" y="71" type="curve" smooth="yes"/>
      <point x="909" y="71"/>
      <point x="856" y="105"/>
      <point x="819" y="207" type="curve"/>
      <point x="799" y="188" type="line"/>
      <point x="817" y="61"/>
      <point x="892" y="-14"/>
      <point x="978" y="-14" type="curve" smooth="yes"/>
    </contour>
    <contour>
      <point x="801" y="157"/>
      <point x="749" y="71"/>
      <point x="636" y="71" type="curve" smooth="yes"/>
      <point x="573" y="71"/>
      <point x="500" y="123"/>
      <point x="487" y="201" type="curve"/>
      <point x="475" y="133" type="line"/>
      <point x="498" y="53"/>
      <point x="556" y="-14"/>
      <point x="641" y="-14" type="curve" smooth="yes"/>
      <point x="768" y="-14"/>
      <point x="841" y="104"/>
      <point x="841" y="290" type="curve" smooth="yes"/>
      <point x="841" y="551"/>
      <point x="731" y="724"/>
      <point x="622" y="724" type="curve" smooth="yes"/>
      <point x="563" y="724"/>
      <point x="527" y="679"/>
      <point x="527" y="610" type="curve" smooth="yes"/>
      <point x="527" y="549"/>
      <point x="567" y="500"/>
      <point x="623" y="501" type="curve" smooth="yes"/>
      <point x="681" y="502"/>
      <point x="711" y="555"/>
      <point x="711" y="613" type="curve" smooth="yes"/>
      <point x="711" y="644"/>
      <point x="704" y="662"/>
      <point x="693" y="677" type="curve"/>
      <point x="665" y="681" type="line"/>
      <point x="679" y="667"/>
      <point x="683" y="651"/>
      <point x="683" y="628" type="curve" smooth="yes"/>
      <point x="683" y="598"/>
      <point x="664" y="561"/>
      <point x="617" y="561" type="curve" smooth="yes"/>
      <point x="581" y="561"/>
      <point x="560" y="580"/>
      <point x="560" y="610" type="curve" smooth="yes"/>
      <point x="560" y="633"/>
      <point x="580" y="658"/>
      <point x="624" y="658" type="curve" smooth="yes"/>
      <point x="690" y="658"/>
      <point x="801" y="539"/>
      <point x="801" y="300" type="curve" smooth="yes"/>
    </contour>
  </outline>
</glyph>
